<?xml version="1.0" encoding="UTF-8"?>
<svg width="489px" height="102px" viewBox="0 0 489 102" version="1.1" xmlns="http://www.w3.org/2000/svg" xmlns:xlink="http://www.w3.org/1999/xlink">
    <!-- Generator: Sketch 56.3 (81716) - https://sketch.com -->
    <title>Comfyballs_logo_R (syrah)</title>
    <desc>Created with Sketch.</desc>
    <defs>
        <polygon id="path-1" points="-14 109 501 109 501 -22 -14 -22"></polygon>
    </defs>
    <g id="Comfyballs_logo_R-(syrah)" stroke="none" stroke-width="1" fill="none" fill-rule="evenodd">
        <path d="M7.37922705,33.4958093 C9.87681159,30.9968741 12.6950589,29.1226727 15.8369565,27.873205 C18.9768624,26.6247338 22.1745275,26 25.4299517,26 C28.6833842,26 31.8810492,26.6247338 35.0229469,27.873205 C38.1628528,29.1226727 40.9830918,30.9968741 43.4806763,33.4958093 L47,37.0170362 L39.9613527,44.1740744 L36.3285024,40.6528475 C34.813819,39.1383413 33.1109204,38.0024617 31.2198068,37.2442122 C29.3276973,36.4889518 27.3977456,36.1093289 25.4299517,36.1093289 C23.461162,36.1093289 21.5312103,36.4889518 19.6400966,37.2442122 C17.7479871,38.0024617 16.0450886,39.1383413 14.531401,40.6528475 C13.0167175,42.0916284 11.8814518,43.7585816 11.1256039,45.6497216 C10.3677642,47.5438507 9.99033816,49.4748461 9.99033816,51.4437042 C9.99033816,53.4125623 10.3677642,55.3445541 11.1256039,57.2356941 C11.8814518,59.1298232 13.0167175,60.8336427 14.531401,62.3471525 C17.5577803,65.3771613 21.1906306,66.8916675 25.4299517,66.8916675 C27.47343,66.8916675 29.440228,66.5130409 31.3333333,65.7547914 C33.224447,64.9985347 34.8895033,63.8636515 36.3285024,62.3471525 L39.9613527,58.8269219 L47,65.9819674 L43.4806763,69.5041907 C40.9830918,72.0021295 38.1628528,73.876331 35.0229469,75.1257986 C31.8810492,76.3752662 28.6833842,77 25.4299517,77 C22.1745275,77 18.9768624,76.3752662 15.8369565,75.1257986 C12.6950589,73.876331 9.87681159,72.0021295 7.37922705,69.5041907 C4.88164251,67.0042591 3.02637935,64.203419 1.81642512,61.0976849 C0.604479193,57.9939435 0,54.7935528 0,51.4995018 C0,48.2064472 0.604479193,45.0080492 1.81642512,41.9023151 C3.02637935,38.7975774 4.88164251,35.9947446 7.37922705,33.4958093" id="Fill-1" fill="#5C181A"></path>
        <path d="M59.9955457,51.4427078 C59.9955457,53.5640129 60.3930958,55.57173 61.188196,57.46287 C61.9832962,59.3560027 63.0802954,61.0040246 64.4821826,62.4039465 C65.8820771,63.8058611 67.5290704,64.9028817 69.4231626,65.6989938 C71.3142656,66.4931132 73.3219435,66.8906711 75.4432071,66.8906711 C77.5614817,66.8906711 79.5691595,66.4931132 81.4632517,65.6989938 C83.3553511,64.9028817 85.0023444,63.8058611 86.4042316,62.4039465 C87.8041261,61.0040246 88.903118,59.3560027 89.6982183,57.46287 C90.4933185,55.57173 90.8908686,53.5640129 90.8908686,51.4427078 C90.8908686,49.3233955 90.4933185,47.3356061 89.6982183,45.4793397 C88.903118,43.6240696 87.8041261,41.9979682 86.4042316,40.5950571 C85.0023444,39.1951353 83.3553511,38.0961219 81.4632517,37.3020025 C79.5691595,36.5068868 77.5614817,36.1083325 75.4432071,36.1083325 C73.3219435,36.1083325 71.3142656,36.5068868 69.4231626,37.3020025 C67.5290704,38.0961219 65.8820771,39.1951353 64.4821826,40.5950571 C63.0802954,41.9979682 61.9832962,43.6240696 61.188196,45.4793397 C60.3930958,47.3356061 59.9955457,49.3233955 59.9955457,51.4427078 M50,51.4427078 C50,47.8846146 50.6615872,44.5716323 51.9877506,41.5037609 C53.3119212,38.4368858 55.1292932,35.7496337 57.4398664,33.4400117 C59.7484468,31.1293934 62.4555738,29.3119859 65.5612472,27.986793 C68.6649279,26.6635928 71.9589145,26 75.4432071,26 C79.0012308,26 82.3151448,26.6635928 85.3819599,27.986793 C88.4487751,29.3119859 91.1549056,31.1293934 93.5033408,33.4400117 C95.8487868,35.7496337 97.686086,38.4368858 99.0122494,41.5037609 C100.33642,44.5716323 101,47.8846146 101,51.4427078 C101,54.9270685 100.33642,58.2211195 99.0122494,61.3248608 C97.686086,64.4305949 95.8487868,67.1567061 93.5033408,69.5031943 C91.1549056,71.8506789 88.4487751,73.6880141 85.3819599,75.0122106 C82.3151448,76.3374035 79.0012308,77 75.4432071,77 C71.9589145,77 68.6649279,76.3374035 65.5612472,75.0122106 C62.4555738,73.6880141 59.7484468,71.8506789 57.4398664,69.5031943 C55.1292932,67.1567061 53.3119212,64.4305949 51.9877506,61.3248608 C50.6615872,58.2211195 50,54.9270685 50,51.4427078" id="Fill-3" fill="#5C181A"></path>
        <path d="M170.412855,26 C173.975105,26 177.292954,26.6635799 180.363412,27.9867542 C183.433869,29.3129176 186.144211,31.1302895 188.494438,33.4398664 C190.843667,35.7504396 192.683148,38.4366428 194.009889,41.5044543 C195.335632,44.5712695 196,47.8851834 196,51.4432071 L196,77 L185.878863,77 L185.878863,51.4432071 C185.878863,49.3239362 185.480841,47.3361857 184.684796,45.4799555 C183.888752,43.6247216 182.788454,41.9976556 181.386897,40.594772 C179.983345,39.1948775 178.334396,38.096882 176.440049,37.3017817 C174.544705,36.5066815 172.534643,36.1091314 170.412855,36.1091314 C168.29007,36.1091314 166.298961,36.5066815 164.442522,37.3017817 C162.584087,38.096882 160.955089,39.1948775 159.552534,40.594772 C158.148982,41.9976556 157.05068,43.6247216 156.254635,45.4799555 C155.458591,47.3361857 155.060569,49.3239362 155.060569,51.4432071 L155.060569,77 L144.939431,77 L144.939431,51.4432071 C144.939431,49.3239362 144.541409,47.3361857 143.745365,45.4799555 C142.94932,43.6247216 141.850021,41.9976556 140.447466,40.594772 C139.043914,39.1948775 137.394965,38.096882 135.500618,37.3017817 C133.605274,36.5066815 131.595212,36.1091314 129.473424,36.1091314 C127.350639,36.1091314 125.35953,36.5066815 123.50309,37.3017817 C121.644656,38.096882 120.015657,39.1948775 118.613103,40.594772 C117.20955,41.9976556 116.111248,43.6247216 115.315204,45.4799555 C114.519159,47.3361857 114.121137,49.3239362 114.121137,51.4432071 L114.121137,77 L104,77 L104,51.4432071 C104,47.8851834 104.662373,44.5712695 105.990111,41.5044543 C107.315855,38.4366428 109.135385,35.7504396 111.448702,33.4398664 C113.760024,31.1302895 116.470366,29.3129176 119.579728,27.9867542 C122.688092,26.6635799 125.984993,26 129.473424,26 C133.717997,26 137.60445,26.9286133 141.12979,28.7828508 C144.65513,30.639081 147.592913,33.155902 149.94314,36.3363029 C152.292369,33.155902 155.249105,30.639081 158.81335,28.7828508 C162.375599,26.9286133 166.242101,26 170.412855,26" id="Fill-5" fill="#5C181A"></path>
        <path d="M219.821561,16.3886619 C217.899857,17.190949 216.228853,18.2974827 214.80855,19.7092671 C213.386226,21.1220556 212.273234,22.762778 211.466543,24.6314343 C210.659851,26.5020989 210.256506,28.5043023 210.256506,30.640053 L210.256506,35.9056272 L231,35.9056272 L231,46.0943728 L210.256506,46.0943728 L210.256506,77 L200,77 L200,30.640053 C200,27.0543616 200.671232,23.7156823 202.016729,20.6250192 C203.360203,17.534356 205.223277,14.8252563 207.605948,12.4977198 C209.986598,10.1701834 212.752397,8.33867931 215.903346,7.00220347 C219.052273,5.66873998 222.39428,5 225.929368,5 L231,5 L231,15.1877414 L225.929368,15.1877414 C223.77718,15.1877414 221.740233,15.588383 219.821561,16.3886619" id="Fill-7" fill="#5C181A"></path>
        <path d="M286,26 L286,72.2458372 C286,75.8334867 285.33642,79.1701113 284.013246,82.2607313 C282.688079,85.3513514 280.870707,88.0794913 278.560134,90.4461551 C276.250557,92.8098067 273.563357,94.6613672 270.495546,95.9978244 C267.428731,97.3312693 264.116809,98 260.557789,98 L255.445434,98 L255.445434,87.8134047 L260.557789,87.8134047 C262.67706,87.8134047 264.663814,87.4117647 266.520045,86.6104928 C268.375278,85.809221 270.003341,84.7027027 271.405228,83.2919421 C272.806119,81.8781692 273.903118,80.2183918 274.699215,78.3126098 C275.493318,76.4058238 275.891865,74.3835662 275.891865,72.2458372 L275.891865,72.1303657 C273.771598,73.8102251 271.405228,75.1065183 268.792756,76.0222576 C266.179287,76.9379968 263.434298,77.3968706 260.557789,77.3968706 C257.074493,77.3968706 253.77951,76.729144 250.675829,75.3926868 C247.570156,74.0582378 244.843102,72.2086855 242.496659,69.8410175 C240.14922,67.4773659 238.311921,64.729144 236.988747,61.5993641 C235.662584,58.4715923 235,55.1520375 235,51.6406995 L235,26 L245.110128,26 L245.110128,51.6406995 C245.110128,53.7784286 245.506682,55.8016902 246.301782,57.7074722 C247.096882,59.6162664 248.194878,61.2760438 249.595768,62.6868045 C250.996659,64.0995733 252.642656,65.2060915 254.536748,66.0073634 C256.429844,66.8086353 258.436526,67.2082671 260.557789,67.2082671 C262.67706,67.2082671 264.663814,66.8086353 266.520045,66.0073634 C268.375278,65.2060915 270.003341,64.0995733 271.405228,62.6868045 C272.806119,61.2760438 273.903118,59.6162664 274.699215,57.7074722 C275.493318,55.8016902 275.891865,53.7784286 275.891865,51.6406995 L275.891865,26 L286,26 Z" id="Fill-9" fill="#5C181A"></path>
        <path d="M314.557292,66.8124006 C316.674612,66.8124006 318.663397,66.4127688 320.519664,65.6114969 C322.374934,64.809221 324.002032,63.7037068 325.404943,62.290938 C326.803868,60.8801774 327.903878,59.2193959 328.697001,57.3116057 C329.493113,55.4058238 329.890671,53.3825621 329.890671,51.2448331 C329.890671,49.1091122 329.493113,47.1059326 328.697001,45.2352941 C327.903878,43.3656598 326.803868,41.7269685 325.404943,40.3131955 C324.002032,38.9024349 322.374934,37.7959167 320.519664,36.9946448 C318.663397,36.1933729 316.674612,35.7917329 314.557292,35.7917329 L299.109329,35.7917329 L299.109329,51.2448331 C299.109329,53.3825621 299.506887,55.4058238 300.30001,57.3116057 C301.096122,59.2193959 302.194139,60.8801774 303.595057,62.290938 C304.995975,63.7037068 306.643001,64.809221 308.536134,65.6114969 C310.427274,66.4127688 312.435987,66.8124006 314.557292,66.8124006 M324.496239,27.6073132 C327.563114,28.9427663 330.248374,30.7742448 332.559988,33.1027529 C334.868614,35.4302569 336.686021,38.1383148 338.013207,41.2289348 C339.336407,44.3205589 340,47.6591917 340,51.2448331 C340,54.756171 339.336407,58.0757259 338.013207,61.2034976 C336.686021,64.3332775 334.868614,67.0814995 332.559988,69.445151 C330.248374,71.8118149 327.563114,73.6623713 324.496239,74.9968203 C321.428368,76.3322734 318.114389,77 314.557292,77 C311.071935,77 307.778881,76.3322734 304.675139,74.9968203 C301.569405,73.6623713 298.843294,71.8118149 296.495809,69.445151 C294.147328,67.0814995 292.311986,64.3332775 290.986793,61.2034976 C289.6616,58.0757259 289,54.756171 289,51.2448331 L289,5 L299.109329,5 L299.109329,25.6051376 L314.557292,25.6051376 C318.114389,25.6051376 321.428368,26.2738683 324.496239,27.6073132" id="Fill-11" fill="#5C181A"></path>
        <path d="M383.891066,66.8908686 L383.891066,51.4432071 C383.891066,49.3239362 383.49452,47.3361857 382.698439,45.4799555 C381.902358,43.6247216 380.804384,41.9976556 379.40352,40.594772 C378.002657,39.1948775 376.375623,38.096882 374.521421,37.3017817 C372.664231,36.5066815 370.675523,36.1091314 368.556294,36.1091314 C366.435071,36.1091314 364.429425,36.5066815 362.537363,37.3017817 C360.644304,38.096882 358.996347,39.1948775 357.59648,40.594772 C356.193623,41.9976556 355.098638,43.6247216 354.302557,45.4799555 C353.506476,47.3361857 353.108934,49.3239362 353.108934,51.4432071 C353.108934,53.5634744 353.506476,55.5711523 354.302557,57.4632517 C355.098638,59.3563474 356.193623,61.0043371 357.59648,62.4042316 C358.996347,63.8061189 360.644304,64.903118 362.537363,65.6982183 C364.429425,66.4933185 366.435071,66.8908686 368.556294,66.8908686 L383.891066,66.8908686 Z M368.556294,26 C372.11624,26 375.428097,26.6635799 378.494852,27.9867542 C381.561607,29.3129176 384.248755,31.1302895 386.561275,33.4398664 C388.868814,35.7504396 390.686151,38.4366428 392.011292,41.5044543 C393.336433,44.5712695 394,47.8851834 394,51.4432071 L394,77 L368.556294,77 C365.073065,77 361.779143,76.3374165 358.674527,75.0112531 C355.568914,73.6880788 352.842909,71.8517759 350.497509,69.5033408 C348.14912,67.1568984 346.311857,64.4308405 344.988708,61.325167 C343.663567,58.2214863 343,54.9265033 343,51.4432071 C343,47.8851834 343.663567,44.5712695 344.988708,41.5044543 C346.311857,38.4366428 348.14912,35.7504396 350.497509,33.4398664 C352.842909,31.1302895 355.568914,29.3129176 358.674527,27.9867542 C361.779143,26.6635799 365.073065,26 368.556294,26 L368.556294,26 Z" id="Fill-13" fill="#5C181A"></path>
        <mask id="mask-2" fill="white">
            <use xlink:href="#path-1"></use>
        </mask>
        <g id="Clip-16"></g>
        <polygon id="Fill-15" fill="#5C181A" mask="url(#mask-2)" points="398 77 408 77 408 5 398 5"></polygon>
        <polygon id="Fill-17" fill="#5C181A" mask="url(#mask-2)" points="412 77 422 77 422 5 412 5"></polygon>
        <path d="M471.002227,26 L471.002227,36.1091314 L440.219494,36.1091314 C438.781737,36.1091314 437.56916,36.6023327 436.58475,37.5857461 C435.60034,38.5701559 435.110128,39.7827336 435.110128,41.2194936 C435.110128,42.6602391 435.60034,43.889755 436.58475,44.9110304 C437.56916,45.9342984 438.781737,46.4454343 440.219494,46.4454343 L460.664928,46.4454343 C462.784199,46.4454343 464.772946,46.8429844 466.629176,47.6380846 C468.48441,48.4331849 470.110479,49.5122494 471.514359,50.8752784 C472.913258,52.2383073 474.012249,53.8474388 474.806353,55.7026726 C475.60245,57.5589028 476,59.5466534 476,61.6659243 C476,63.7871879 475.60245,65.7739421 474.806353,67.6291759 C474.012249,69.4854062 472.913258,71.1124722 471.514359,72.513363 C470.110479,73.9152503 468.48441,75.0112531 466.629176,75.8073497 C464.772946,76.6024499 462.784199,77 460.664928,77 L429.997773,77 L429.997773,66.8908686 L460.664928,66.8908686 C462.179405,66.8908686 463.427851,66.3996601 464.41525,65.4142539 C465.397667,64.4308405 465.889872,63.1813973 465.889872,61.6659243 C465.889872,60.2281679 465.397667,59.0165866 464.41525,58.030184 C463.427851,57.047767 462.179405,56.5545657 460.664928,56.5545657 L440.219494,56.5545657 C438.099226,56.5545657 436.111476,56.1570156 434.257238,55.3619154 C432.401008,54.5668151 430.793869,53.469816 429.428848,52.0679287 C428.066815,50.6680342 426.986754,49.0399719 426.19265,47.1837416 C425.39755,45.3285078 425,43.3407572 425,41.2194936 C425,39.1012191 425.39755,37.1134685 426.19265,35.2572383 C426.986754,33.4030008 428.066815,31.7928731 429.428848,30.4288477 C430.793869,29.0668151 432.401008,27.9867542 434.257238,27.1926503 C436.111476,26.3965537 438.099226,26 440.219494,26 L471.002227,26 Z" id="Fill-18" fill="#5C181A" mask="url(#mask-2)"></path>
        <path d="M476.837659,11.1370103 L477.691603,11.1370103 C478.688041,11.1370103 479.496183,10.818359 479.496183,10.0456051 C479.496183,9.36445137 478.974046,8.90937439 477.834097,8.90937439 C477.359796,8.90937439 477.02799,8.95517443 476.837659,9.00097447 L476.837659,11.1370103 Z M476.789822,15.3642565 L474.98626,15.3642565 L474.98626,7.90956928 C475.69771,7.77314364 476.694148,7.68251803 477.97659,7.68251803 C479.448346,7.68251803 480.112977,7.90956928 480.682952,8.22822062 C481.110433,8.54589749 481.442239,9.13642565 481.442239,9.86435393 C481.442239,10.6819333 480.777608,11.319236 479.82799,11.5911128 L479.82799,11.6827129 C480.588295,11.9555642 481.014758,12.5002923 481.252926,13.5010719 C481.490076,14.6373027 481.63257,15.0914052 481.821883,15.3642565 L479.875827,15.3642565 C479.638677,15.0914052 479.496183,14.4092769 479.259033,13.5458975 C479.115522,12.7283181 478.641221,12.3638667 477.644784,12.3638667 L476.789822,12.3638667 L476.789822,15.3642565 Z M471.994911,11.4546872 C471.994911,14.7727538 474.558779,17.4096667 478.072265,17.4096667 C481.490076,17.4096667 484.006107,14.7727538 484.006107,11.5004872 C484.006107,8.18242058 481.490076,5.50068213 478.024427,5.50068213 C474.558779,5.50068213 471.994911,8.18242058 471.994911,11.4546872 L471.994911,11.4546872 Z M486,11.4546872 C486,15.6819333 482.535369,19 478.024427,19 C473.561323,19 470,15.6819333 470,11.4546872 C470,7.31904112 473.561323,4 478.024427,4 C482.535369,4 486,7.31904112 486,11.4546872 L486,11.4546872 Z" id="Fill-19" fill="#5C181A" mask="url(#mask-2)"></path>
    </g>
</svg>