<?xml version="1.0" encoding="UTF-8"?><svg id="Layer_2" xmlns="http://www.w3.org/2000/svg" viewBox="0 0 209.58 93.26"><defs><style>.cls-1{fill:red;}</style></defs><g id="Layer_1-2"><path class="cls-1" d="m21.26,53.19c-.29,1.96-.82,3.6-1.6,4.93-.78,1.33-1.86,2.43-3.25,3.3-1.38.88-3.19,1.71-5.4,2.51-3.69,1.35-7.36,2.77-11.01,4.28V20.84c3.63-1.52,7.28-2.97,10.96-4.33,2.15-.78,3.92-1.22,5.3-1.33,1.38-.11,2.48.21,3.29.93.81.73,1.37,1.95,1.68,3.65.31,1.71.46,4,.46,6.88v19.28c0,2.88-.14,5.3-.43,7.25m-7.93-25.3c0-1.05-.18-1.76-.53-2.12-.35-.36-1-.37-1.94-.03-.87.32-1.74.64-2.61.97v29.13c.87-.33,1.74-.65,2.61-.97.97-.35,1.63-.83,1.96-1.44.34-.61.51-1.38.51-2.31v-23.23Z"/><path class="cls-1" d="m50.57,12.78c.23,1.35.16.7.16.7.1.83.16,1.68.18,2.55.02.87.04,1.71.08,2.51,0,7.24,0,14.47,0,21.71.04,4.05-.68,7.34-2.13,9.89-1.45,2.55-3.86,4.19-7.2,4.98-1.14.27-2.27.55-3.41.83-1.93.48-3.66.77-4.89.36-2.99-.99-4.36-4.25-4.36-4.26-.27-.85-.46-1.79-.56-2.82-.1-1.02-.15-2.17-.15-3.42.02-7.34.03-14.69.05-22.03,0-.81,0-1.66.03-2.53.02-.88.09-1.76.23-2.65.14-.93.34-1.86.61-2.79.27-.93.68-1.86,1.23-2.78.55-.88,1.1-1.62,1.67-2.2.57-.58,1.16-1.06,1.77-1.42.62-.37,1.25-.66,1.9-.87.65-.21,1.32-.4,2.01-.58,1.24-.31,2.48-.61,3.72-.91.93-.22,1.81-.32,2.64-.31q.83.02,2.44.43c2.32.72,3.71,3.91,4,5.61m-8.68,3.94c-.22-.33-.56-.45-1.01-.34-.79.17-1.58.34-2.38.52-.52.13-.93.45-1.24.95-.31.51-.46,1.1-.46,1.79v12.22c1.8-4.62,3.61-9.22,5.42-13.8,0-.57-.11-1.02-.34-1.35m.54,16.51c-1.64,4.11-3.27,8.24-4.91,12.39.1.05.24.06.41.02.17-.04.34-.09.51-.13.76-.19,1.51-.38,2.27-.56.48-.12.89-.4,1.21-.84.33-.44.49-1.03.49-1.76v-9.12Z"/><path class="cls-1" d="m80.06,42.74c-.3,1.43-.79,2.63-1.47,3.6-.68.98-1.6,1.74-2.73,2.28-1.14.55-2.57.92-4.28,1.13-1.24.15-2.48.31-3.73.48-2.17.3-3.91.26-5.24-.12-1.32-.38-2.35-1.05-3.08-2.02-.73-.97-1.22-2.23-1.46-3.76-.24-1.54-.37-3.32-.37-5.35.02-7.34.03-14.68.05-22.02,0-.81,0-1.65.03-2.53.02-.88.1-1.75.24-2.63.14-.88.35-1.77.63-2.69.28-.92.7-1.81,1.25-2.67.56-.82,1.12-1.49,1.7-2.01.57-.52,1.18-.93,1.8-1.23.63-.3,1.27-.52,1.94-.65.66-.14,1.35-.25,2.04-.35,1.24-.17,2.48-.33,3.72-.49,1.89-.23,3.45-.24,4.67-.05,1.23.19,2.19.66,2.89,1.38.7.72,1.18,1.71,1.45,2.97.26,1.25.39,2.81.39,4.68v3.34c-2.89,1.45-5.79,2.95-8.67,4.5v-5.41c0-.69-.14-1.23-.42-1.62-.28-.39-.68-.55-1.21-.49-.68.07-1.36.14-2.05.21-.56.08-1,.35-1.31.82-.31.47-.47,1.05-.47,1.74v25.05c0,.89.18,1.48.55,1.78.37.29.81.4,1.34.33.63-.08,1.26-.17,1.89-.25,1.12-.14,1.68-.96,1.68-2.46v-4.26c-.89.11-1.78.22-2.68.34v-9.12c3.78-.49,7.56-.91,11.35-1.25v13.74c0,1.95-.15,3.63-.45,5.06"/><path class="cls-1" d="m103.07,47.38c-2.23-7.04-4.47-14.05-6.7-21.04-.04,0-.07,0-.11,0v21.16c-2.9.09-5.8.23-8.7.41V.54c2.6-.16,5.2-.29,7.8-.38,2.2,7.1,4.4,14.23,6.6,21.38.04,0,.07,0,.11,0V.01c2.9-.03,5.81-.01,8.71.05v47.37c-2.57-.06-5.14-.08-7.71-.06"/><path class="cls-1" d="m134.23,48.96c-2.82-.3-5.64-.57-8.47-.78-3.12-16.03-6.25-32.01-9.38-47.93,3.04.13,6.08.31,9.12.54,1.51,9.82,3.02,19.66,4.53,29.51.04,0,.07,0,.11.01,1.49-9.57,2.98-19.13,4.47-28.68,3.01.33,6.02.71,9.02,1.14-3.13,15.34-6.26,30.74-9.39,46.19"/><path class="cls-1" d="m149.16,50.99V3.56c2.87.47,5.74.99,8.6,1.55v47.43c-2.86-.56-5.73-1.08-8.6-1.55"/><path class="cls-1" d="m164.98,54.07V6.63c2.85.64,5.69,1.33,8.52,2.07v38.25c3.85,1,7.67,2.08,11.48,3.25v9.18c-6.62-2.03-13.29-3.8-20.01-5.31"/><path class="cls-1" d="m190.02,60.98V13.54c2.79.92,5.58,1.88,8.35,2.88v38.25c3.76,1.37,7.5,2.82,11.21,4.36v9.18c-6.45-2.67-12.97-5.08-19.55-7.24"/><path class="cls-1" d="m84.13,64.93c0-5.38-4.64-6.32-6.51-6.59-2.07-.3-8.52-.25-10.8,6.06-1.69,4.67.56,7.29,1.89,8.36.41.33,1.01.17,1.22-.31l.57-1.36c.17-.41.13-.88-.11-1.26-.49-.76-1.19-2.2-.75-3.72.65-2.22,3.01-4.67,6.16-5.07,3.15-.39,5.4,1.56,5.4,3.74,0,2.06-1.36,3.68-3.89,3.84-.2.01-.45.15-.55.32-.3.48-.63,1.4-.77,2.03-.05.24.09.49.33.57,1.02.32,3.29,1.17,3.68,2.66.5,1.93-.79,3.07-2.04,3.48-1.25.41-3.31.44-3.57-1.38-.25-1.75.22-5.6,2.12-11.56.09-.29-.4-.61-.97-.38l-1.54.57c-.52.24-.59.59-.68.89l-.35,1.11s-2.89,8.08-1.44,11.76c1.45,3.68,7.04,2.25,7.04,2.25,0,0,4.78-1.16,4.78-5.58,0,0,.1-4.12-3.29-4.78,0,0,4.07-.26,4.07-5.64"/><path class="cls-1" d="m142.87,76.01c-.13-.35-.49-.55-.86-.49-.33.05-.61-.05-.61-.05-1.11-.29-.54-2.21.2-4.17.75-1.96.8-2.72.51-3.31-.3-.59-1.29-1.03-2.69-.7-1.4.33-3.24-.33-3.24-.33.11-1.47-1.08-2.05-1.53-2.27-.45-.22-3.04-.2-3.23,2.27-.18,2.47,2.25,3.43,2.25,3.43.28,1.2-1.58,6.23-5.04,7.23-1.73.5-2.86-.08-3.56-.78,1.62-1.41,2.95-2.66,3.58-3.45,2.31-2.92,2.61-4.72.97-5.89-1.64-1.16-4.79-.4-6.06.6-2.2,1.74-3.74,4.17-2.11,8.11l-2.98,2.44.31-7.17c.02-.42-.43-.7-.8-.49l-1.03.59c-.31.18-.51.5-.53.86-.07,1.22-.28,3.43-.79,4.06-.66.81-2.23,1.58-3.37-.1-1.53-2.26.36-5.52,2.37-6.66,1.68-.94,3.37.24,4.09.63.14.07.3.03.4-.09l.78-1.03c.2-.26.18-.62-.04-.86-.23-.25-.52-.54-.77-.7-.48-.31-3.46-2.04-7.12.37-3.66,2.4-3.43,7.21-3.43,7.21-.53.48-1.17.22-1.17.22-1.11-.29-.54-2.21.2-4.17.75-1.96.8-2.72.51-3.31-.29-.59-1.29-1.03-2.69-.7-1.4.33-3.24-.33-3.24-.33.11-1.47-1.08-2.05-1.53-2.27-.45-.22-3.04-.2-3.23,2.27-.18,2.47,2.25,3.43,2.25,3.43.11,2.95-2.06,6.78-3.24,7.04-1.18.26-.92-2.1-.92-2.1,1.29-5.42.41-7.41-.1-8.11-.24-.32-.81-.34-1.07-.18l-.72.35c-.51.27-.48.57-.44.85.46,2.85-.98,6.33-1.39,7.41-.43,1.14-2.06,2.21-3.01.09-.8-1.79.84-6.22,1.4-7.62.09-.24.07-.79-.3-.97l-.44-.22c-.6-.23-.96.12-1.04.22-.75.9-4.09,5.12-3.2,8.69.99,3.98,3.2,4.54,4.75,4.54s3.15-1.3,3.15-1.3c0,0,.39,1.3,2.56,1.3s5.98-2.58,6.51-9.34c0,0,1.26.38,2.11.16,0,0,.59-.25.4.22-.18.47-1.66,5.28.73,6.49,2.4,1.21,4.06-.31,4.06-.31,0,0,1.58,3.66,5.8,2.48,0,0,0,.18-.01.92l-1.36.81c-1.49,1.04-5.83,5.07-4.18,9.03,1.84,4.4,6.46,1.78,7.22.29.73-1.44,1.04-1.28,1.38-8.7,1.4-1.11,3-2.41,4.53-3.69,2.54,2.5,6.82,1.64,6.82,1.64,2.8-.53,5.98-2.58,6.51-9.34,0,0,1.26.38,2.11.16,0,0,.59-.25.4.22-.18.47-1.66,5.28.73,6.49,1.69.85,3.01.35,3.65-.02.25-.15.35-.45.24-.72l-.44-1.15Zm-28.12,12.61c-.48,1.62-2.1,1.62-2.4,1.03-.29-.59-.77-1.55,1.95-4.09,0,0,.31-.24.84-.65-.07,1.81-.19,3.01-.4,3.71m9.98-17.78c1.6-1.71,2.8-.91,2.66-.2-.1.53-.16,1.07-3.47,4.05,0,0-.68-2.26.81-3.85"/></g></svg>