<svg xmlns="http://www.w3.org/2000/svg" width="124" height="122" fill="none"><g clip-path="url(#a)"><path fill="#3C4932" d="M47.372 76.688c-2.64 0-4.754-1.378-6.057-3.995-.477-.956-.713-2.022-.705-3.172 0-.253-.006-.514-.011-.79-.009-.408-.02-.827-.006-1.27.011-.327.042-.644.078-.94-1.3-.406-2.328-1.301-3.058-2.662-1.008-1.881-1.086-4.056-.223-6.29.544-1.406 1.167-2.775 1.772-4.1l.482-1.06c.32-.713.657-1.427.98-2.116.626-1.336 1.22-2.598 1.743-3.898.387-.964.644-2.03.91-3.156.048-.191.093-.386.14-.578.19-.783.334-1.583.487-2.43.053-.295.106-.59.162-.884.09-.478.175-.956.259-1.434a102.838 102.838 0 0 1 .713-3.698l.259-1.258c.103-.517.203-1.036.306-1.553.106-.55.215-1.097.323-1.647.218-1.078.443-2.162.633-3.081.275-1.323.554-2.645.838-3.967.047-.228.095-.453.14-.681.289-1.445.615-3.081 1.64-4.578 1.581-2.317 4.241-3.434 6.859-2.967 1.356-1.884 3.11-3.14 4.564-4.057 2.231-1.405 4.782-1.683 7.372-.808 2.02.683 3.713 2.098 4.9 4.09 1.208 2.033 1.865 4.3 1.949 6.736.097 2.773.164 5.729-.134 8.718a485.85 485.85 0 0 0-.396 4.195 611.46 611.46 0 0 1-.376 4c-.18 1.843-.381 3.712-.57 5.521l-.184 1.742c.18-.361.34-.678.462-.92l.09-.822a216 216 0 0 1 .434-3.559c.078-.617.147-1.147.183-1.464a67.75 67.75 0 0 1 .627-4.303c.19-1.03.426-2.048.657-3.028.087-.364.17-.726.254-1.09.27-1.186.557-2.447.855-3.703.167-.7.345-1.4.515-2.075l.145-.567a2177.184 2177.184 0 0 1 2-7.798l.292-1.142c.256-1.008.52-2.05.824-3.08.087-.293.167-.59.245-.884.318-1.17.677-2.498 1.415-3.745.88-1.49 2.072-2.542 3.542-3.137 2.967-1.197 6.476-.158 8.344 2.467 1.231 1.731 1.248 3.587 1.153 4.831-.066.878-.225 1.706-.378 2.506a2.48 2.48 0 0 0-.031.164c.161-.57.323-1.139.496-1.714.378-1.272.84-2.778 1.409-4.306.41-1.1.902-2.161 1.468-3.156.373-.658.91-1.103 1.303-1.425.086-.072.173-.142.253-.214l.098-.086c.331-.298.746-.67 1.314-.942a6.692 6.692 0 0 1 4.701-.45c1.571.408 2.81 1.18 3.788 2.359.888 1.072 1.406 2.347 1.537 3.792.14 1.528-.103 2.953-.384 4.264-.173.797-.334 1.623-.49 2.417l-.131.661c-.109.553-.217 1.103-.323 1.656l-.276 1.414-.136.703c-.173.88-.351 1.79-.538 2.69-.12.58-.248 1.16-.373 1.725-.078.35-.156.703-.231 1.053-.1.466-.201.933-.298 1.402-.17.806-.348 1.64-.532 2.465-.187.839-.41 1.664-.618 2.43-.076.273-.145.548-.218.823-.072.28-.144.558-.22.839l-.409 1.483c-.178.648-.356 1.295-.532 1.942-.145.534-.287 1.067-.429 1.603a307.21 307.21 0 0 1-.423 1.587c-.061.23-.151.536-.276.853-.32.802-.198 1.761-.056 2.872.037.29.076.578.103.867a34.77 34.77 0 0 0 .544 3.412c.103.502.27 1.041.504 1.639.016 0 .036.005.055.005a2.49 2.49 0 0 0 1.312-.216c1.125-.512 2.267-1.076 3.37-1.617l1.172-.575c.337-.164.669-.334 1.02-.514.735-.375 1.492-.764 2.306-1.1 3.063-1.267 5.979-.184 7.255 2.694.465 1.053.52 2.264.155 3.412-1.389 4.359-4.344 7.706-8.778 9.951-2.801 1.417-5.72 2.059-8.669 1.906-1.819-.094-3.643-.544-5.423-1.342-1.217-.544-2.244-1.347-2.994-1.933-.164-.128-.32-.25-.442-.342-.165.239-.33.475-.502.703-.936 1.261-2.036 2.378-2.994 3.328a14.094 14.094 0 0 1-4.723 3.095c-1.838.73-3.66.964-5.408.692-.903-.142-1.8-.49-2.822-1.1a7.394 7.394 0 0 1-.247-.156c-2.034 2.806-4.604 6.117-6.35 7.5-1.576 1.248-3.29 1.923-5.097 2.007-2.66.122-4.98-.864-6.712-2.848-1.529-1.75-2.456-3.748-2.76-5.931a28.82 28.82 0 0 1-.261-3.356c-.05-2.706-.059-5.907.261-9.124.076-.75.17-1.5.262-2.225.062-.48.12-.959.176-1.44.067-.594.128-1.188.19-1.785.035-.367.074-.737.113-1.103l.176-1.623.161-1.486a94.424 94.424 0 0 0-.417 1.82c-.084.372-.167.744-.254 1.116l-.276 1.181c-.206.884-.42 1.798-.612 2.69a153.29 153.29 0 0 0-.83 4.17 104.589 104.589 0 0 0-.607 3.666 220.892 220.892 0 0 0-.504 3.712l-.134 1.011c-.162 1.226-.32 2.448-.48 3.673l-.177 1.375c-.036.278-.073.553-.106.831-.073.564-.142 1.128-.223 1.692-.437 3.153-2.59 5.576-5.484 6.173a8.534 8.534 0 0 1-1.737.186l-.003-.014Zm-2.663-10.47c-.016.144-.033.288-.053.433-.041.339-.083.658-.091.944-.012.328 0 .678.005 1.045.008.294.014.597.011.908-.003.531.092.984.29 1.384.771 1.547 1.766 2.039 3.434 1.694 1.874-.386 2.278-2.27 2.356-2.839.075-.547.145-1.097.214-1.644l.109-.842.178-1.375c.159-1.228.318-2.456.48-3.684l.13-1.006c.162-1.233.329-2.511.513-3.77.183-1.256.395-2.536.629-3.809.259-1.408.546-2.85.852-4.278.198-.93.418-1.864.63-2.767.091-.39.18-.778.273-1.167.083-.364.167-.73.247-1.095.19-.847.387-1.725.613-2.594.348-1.348.744-2.767 1.178-4.22.51-1.706 1.053-3.429 1.58-5.09l.105-.336c.161-.517.34-1.025.51-1.514.06-.172.12-.348.178-.52a3 3 0 0 1 .253-.689l.023-.044c.13-.32.264-.65.398-.984.253-.636.518-1.294.81-1.95.574-1.278 1.262-2.625 2.384-3.8l.571-.6.63-.662.013-.014a2.295 2.295 0 0 1 2.752-.386 2.497 2.497 0 0 1 1.223 2.737c-.042.178-.09.333-.145.478-.463 1.17-1.34 1.814-1.978 2.283-.682.5-.802.636-.86.973-.145.833-1.668 13.201-1.874 15.21-.092.895-.19 1.786-.287 2.68l-.176 1.615c-.039.361-.075.725-.111 1.086a137.32 137.32 0 0 1-.195 1.834c-.056.494-.12.989-.181 1.483-.09.7-.178 1.423-.25 2.126-.301 3.008-.293 6.064-.246 8.656.02.978.095 1.95.223 2.887.195 1.411.81 2.717 1.821 3.876.933 1.07 2.09 1.558 3.537 1.491.97-.044 1.888-.42 2.808-1.15 1.136-.9 3.225-3.42 5.773-6.96a7.014 7.014 0 0 0-.772-.824 3.388 3.388 0 0 1-.629-.795 2.405 2.405 0 0 1 .568-3.07 2.396 2.396 0 0 1 3.1.048c.262.227.47.491.624.789.103.2.18.386.242.539.033.08.078.191.097.227.7 1.234 1.307 1.928 2.1 2.4.571.34 1.014.526 1.398.587 1.053.164 2.14.014 3.326-.456a10.079 10.079 0 0 0 3.395-2.225c.855-.847 1.83-1.836 2.6-2.875.66-.887 1.27-1.906 1.92-2.987.646-1.075 1.314-2.19 2.055-3.2a2.31 2.31 0 0 1 .707-.631 2.532 2.532 0 0 1 2.877.22 2.48 2.48 0 0 1 .825 2.722 2.35 2.35 0 0 1-.363.697 9.602 9.602 0 0 1-.54.614c-.22.237-.76.82-1.111 1.278.07.053.142.111.214.167.621.486 1.396 1.092 2.17 1.436 1.348.603 2.657.931 4.005 1 2.25.117 4.492-.38 6.67-1.483 3.498-1.77 5.72-4.262 6.792-7.618.05-.161.092-.394-.002-.608-.17-.38-.563-1.273-2.103-.636-.66.272-1.317.608-2.011.964-.354.18-.718.37-1.092.55-.387.189-.774.377-1.161.57-1.131.555-2.298 1.13-3.476 1.666a6.52 6.52 0 0 1-3.372.553c-2.103-.22-2.93-1.503-3.236-2.248a14.283 14.283 0 0 1-.8-2.542 38.31 38.31 0 0 1-.601-3.795 34.203 34.203 0 0 0-.095-.775c-.186-1.444-.395-3.083.304-4.837.053-.13.097-.294.133-.422.142-.522.282-1.044.421-1.567.145-.541.287-1.08.434-1.62.179-.652.357-1.305.538-1.958l.406-1.475c.073-.261.14-.525.207-.786.075-.292.15-.587.231-.878.197-.72.404-1.49.573-2.248.179-.8.354-1.622.521-2.42l.301-1.416c.078-.359.156-.717.237-1.076.122-.55.248-1.116.362-1.67.181-.877.356-1.777.529-2.647l.139-.705c.092-.467.184-.937.273-1.403l.326-1.67.128-.656c.159-.814.326-1.655.504-2.486.251-1.161.398-2.131.312-3.076-.058-.641-.27-1.175-.643-1.625-.44-.53-.975-.855-1.733-1.053-.713-.186-1.32-.128-1.977.186-.07.04-.256.209-.381.32l-.112.1c-.117.103-.239.206-.365.308a4.179 4.179 0 0 0-.392.35 17.874 17.874 0 0 0-1.19 2.565 63.272 63.272 0 0 0-1.322 4.05 184.263 184.263 0 0 0-1.393 5.023c-.22.828-.437 1.697-.66 2.634a2.377 2.377 0 0 1 3.559 2.125c-.008.33-.044.6-.108.842-.14.525-.315 1.014-.452 1.38l-.593 1.592a236.5 236.5 0 0 1-1.799 4.751 143.97 143.97 0 0 1-1.72 4.109c-.149.344-.299.689-.447 1.036a732.181 732.181 0 0 1-2.634 6.084 229.202 229.202 0 0 1-1.927 4.279c-.12.258-.237.514-.354.772-.652 1.44-1.326 2.925-2.42 4.292-.284.356-.56.714-.85 1.092-.133.175-.267.35-.403.522l-.783 1.012-1.245-.295.457-1.928-.47 1.923-1.363-.323-.264-1.22-.025-.1a4.044 4.044 0 0 1-.126-.733c-.186-2.878.142-5.831 1.042-9.293.298-1.147.59-2.308.866-3.4.198-.79.396-1.578.59-2.367l.939-3.776.192-.772c.153-.611.312-1.245.457-1.864.161-.692.317-1.403.468-2.095l.1-.46c.209-.957.412-1.912.618-2.865l.031-.145c.206-.96.412-1.922.615-2.883l.243-1.159c.114-.553.23-1.106.348-1.659.095-.447.195-.891.295-1.339.12-.538.24-1.08.354-1.622.206-.978.406-1.936.579-2.886.036-.203.075-.403.114-.606.14-.722.27-1.406.318-2.059.078-1.036-.053-1.706-.435-2.244-.802-1.128-2.356-1.595-3.617-1.087-.66.267-1.176.736-1.613 1.478-.465.786-.727 1.748-1.002 2.764a54.61 54.61 0 0 1-.268.962 86.275 86.275 0 0 0-.785 2.942c-.098.386-.198.775-.298 1.161-.393 1.514-.783 3.028-1.17 4.545-.276 1.078-.551 2.156-.824 3.234l-.145.57c-.17.66-.343 1.347-.501 2.014-.296 1.239-.58 2.489-.847 3.664-.084.372-.173.744-.26 1.117-.227.978-.445 1.903-.617 2.84a59.61 59.61 0 0 0-.518 3.466c.203.061.404.15.593.27.9.564 1.32 1.664 1.02 2.678a2.51 2.51 0 0 1-.28.63c-.136.217-1.436 2.35-2.302 3.776-.786 1.54-2.805 5.578-3.273 6.837-.178.48-.448 1.006-.735 1.564-.253.492-.677 1.317-.738 1.623-.05.308.122 1.22.178 1.52.064.344.109.572.109.824 0 .148-.014.3-.045.453a2.336 2.336 0 0 1-2.245 1.859 2.385 2.385 0 0 1-2.372-1.781 2.256 2.256 0 0 1-.073-.589l.006-.572c.011-1.206.022-2.453.097-3.704.05-.839.15-1.655.245-2.447.048-.384.095-.767.134-1.15.086-.806.167-1.612.25-2.417l.193-1.87.292-2.77c.19-1.8.387-3.664.568-5.492.131-1.32.254-2.67.374-3.973a535.3 535.3 0 0 1 .398-4.228c.273-2.745.209-5.551.117-8.19-.061-1.767-.532-3.4-1.395-4.857-.705-1.186-1.632-1.978-2.758-2.358-1.44-.486-2.776-.35-3.98.405-2.035 1.281-3.227 2.44-3.99 3.873l-.671 1.261-1.412-.236a.98.98 0 0 0-.095-.01 3.466 3.466 0 0 1-.774-.168c-1.499-.516-2.696.273-3.32 1.187-.568.833-.78 1.895-1.028 3.122-.05.245-.097.487-.15.731a660.161 660.161 0 0 0-1.459 7.001 272.77 272.77 0 0 0-.32 1.623c-.104.525-.204 1.05-.31 1.575-.086.428-.175.855-.262 1.283-.122.595-.25 1.212-.367 1.812-.112.586-.22 1.189-.323 1.775-.086.489-.176.978-.265 1.467-.053.286-.106.572-.156.855-.156.867-.317 1.764-.534 2.662l-.134.564c-.29 1.217-.59 2.478-1.09 3.714-.564 1.406-1.208 2.778-1.832 4.104a140.02 140.02 0 0 0-.955 2.06c-.161.36-.326.718-.487 1.073-.607 1.331-1.181 2.59-1.682 3.884-.596 1.548-.276 2.453.016 3 .307.573.569.709.802.767l.134.034c.376.097.582.15.933.194a2.095 2.095 0 0 1 1.423.84c.596.813.424 1.735.32 2.288a1.292 1.292 0 0 1-.019.1h.008Zm27.438-8.785v.005-.005Zm18.799-26.126c-.131.542-.265 1.08-.396 1.603-.064.253-.128.508-.19.761l-.938 3.776c-.197.794-.392 1.586-.593 2.378a427.043 427.043 0 0 1-1 3.93c.44-.966.897-1.985 1.382-3.086.534-1.22 1.094-2.508 1.72-3.958-.247-.398-.414-.94-.367-1.67v-.03a41.27 41.27 0 0 1 .384-3.704h-.002Z"/><path fill="#3C4932" d="M47.372 77.43c-2.922 0-5.308-1.564-6.723-4.406-.53-1.059-.791-2.24-.783-3.509 0-.242-.005-.495-.01-.764-.012-.42-.02-.853-.007-1.314.006-.147.014-.286.023-.422-1.223-.53-2.2-1.473-2.916-2.806-1.114-2.076-1.203-4.465-.262-6.91.551-1.428 1.18-2.806 1.788-4.142l.011-.025c.156-.344.315-.686.468-1.03.326-.723.66-1.437.986-2.128.624-1.326 1.211-2.579 1.727-3.86.367-.913.615-1.952.877-3.053l.005-.027.134-.553c.184-.761.326-1.55.476-2.387.053-.297.106-.594.162-.889.086-.47.173-.939.256-1.408v-.02c.112-.602.22-1.222.34-1.836.123-.633.253-1.264.379-1.875l.256-1.256c.1-.506.2-1.014.298-1.52l.011-.05c.106-.544.212-1.086.32-1.63.218-1.084.443-2.167.635-3.087.276-1.325.557-2.648.839-3.97.047-.217.089-.436.133-.653v-.02c.307-1.513.65-3.227 1.758-4.85 1.648-2.414 4.353-3.67 7.143-3.348 1.41-1.816 3.13-3.025 4.498-3.883 2.428-1.528 5.197-1.834 8.01-.884 2.188.742 4.02 2.267 5.3 4.415 1.272 2.142 1.963 4.528 2.052 7.09.078 2.227.136 4.575.005 6.973.14-.606.284-1.223.43-1.834.166-.7.345-1.4.517-2.078l.148-.575c.273-1.084.551-2.164.827-3.248.39-1.52.78-3.04 1.175-4.556.095-.367.19-.736.281-1.106l.009-.033a86.67 86.67 0 0 1 .83-3.109c.083-.28.158-.564.236-.844l.006-.023c.329-1.216.705-2.594 1.493-3.928.966-1.63 2.28-2.792 3.904-3.448 3.284-1.325 7.163-.177 9.23 2.726.56.786.894 1.592 1.086 2.358.084-.233.167-.469.256-.705a22.52 22.52 0 0 1 1.518-3.265c.44-.777 1.064-1.291 1.476-1.633l.025-.022c.073-.059.142-.117.209-.178l.095-.086c.348-.311.824-.74 1.487-1.059 1.662-.8 3.417-.966 5.213-.5 1.727.45 3.092 1.303 4.172 2.603.986 1.19 1.56 2.6 1.707 4.198.148 1.628-.103 3.12-.398 4.487-.17.789-.331 1.608-.484 2.397l-.131.667-.318 1.62-.005.033-.276 1.414-.137.7c-.172.887-.35 1.795-.537 2.695-.12.584-.251 1.167-.373 1.728-.078.356-.156.706-.231 1.056-.101.467-.201.933-.298 1.4-.17.808-.348 1.645-.532 2.473a53.963 53.963 0 0 1-.627 2.464l-.212.797c-.075.295-.15.578-.225.859l-.41 1.486a370.867 370.867 0 0 0-.958 3.537c-.142.53-.281 1.06-.426 1.589-.067.25-.164.583-.303.933-.248.625-.137 1.495-.009 2.503.039.295.076.59.106.884a34.56 34.56 0 0 0 .532 3.34c.067.33.164.677.295 1.055a1.85 1.85 0 0 0 .535-.15c1.114-.509 2.25-1.067 3.35-1.609l.042-.02c.379-.185.755-.372 1.134-.555.331-.161.657-.328 1.002-.506.752-.386 1.524-.78 2.365-1.127 3.411-1.412 6.792-.145 8.221 3.078.54 1.217.604 2.614.184 3.936-1.454 4.557-4.534 8.051-9.152 10.388-2.918 1.478-5.962 2.145-9.045 1.983-1.911-.1-3.824-.572-5.687-1.405-1.206-.54-2.214-1.298-2.975-1.892-.02.028-.041.055-.06.083-.97 1.303-2.092 2.445-3.067 3.412a14.772 14.772 0 0 1-4.974 3.256c-1.963.78-3.916 1.028-5.798.733-.897-.139-1.78-.461-2.752-1.003-2.629 3.593-4.676 5.979-6.088 7.099-1.702 1.347-3.56 2.078-5.525 2.166-2.894.134-5.42-.941-7.308-3.103-1.624-1.861-2.612-3.986-2.935-6.317a29.082 29.082 0 0 1-.268-3.445c-.03-1.623-.044-3.42.017-5.293-.067.417-.131.834-.192 1.248a225.863 225.863 0 0 0-.504 3.7l-.134 1.012c-.162 1.225-.32 2.447-.48 3.672l-.177 1.376c-.037.272-.07.544-.106.816a134.62 134.62 0 0 1-.223 1.709c-.482 3.467-2.866 6.137-6.071 6.798-.646.133-1.281.2-1.889.2l-.002.025Zm7.475-62.311c-1.989 0-3.863.997-5.058 2.747-.938 1.373-1.25 2.931-1.526 4.306v.02l-.142.672c-.281 1.323-.56 2.642-.836 3.965-.192.914-.415 1.994-.632 3.072-.108.54-.214 1.081-.317 1.623l-.011.05c-.1.508-.198 1.02-.301 1.528-.084.422-.173.842-.26 1.261-.125.608-.255 1.236-.375 1.859-.117.605-.226 1.22-.332 1.814v.022c-.089.475-.172.947-.261 1.42-.056.291-.109.586-.162.877-.153.859-.3 1.67-.496 2.476-.044.18-.086.364-.13.547l-.006.028c-.276 1.156-.535 2.245-.944 3.261-.532 1.323-1.128 2.593-1.76 3.937-.323.686-.655 1.395-.978 2.106-.156.347-.315.692-.47 1.036l-.012.025c-.598 1.314-1.22 2.676-1.754 4.062-.783 2.028-.719 3.99.184 5.673.635 1.183 1.517 1.959 2.623 2.303l.588.183-.073.611c-.027.237-.061.55-.072.881-.014.42-.006.83.005 1.228.006.284.014.547.012.811-.009 1.034.203 1.987.626 2.837 1.167 2.345 3.03 3.584 5.39 3.584.506 0 1.04-.059 1.587-.17 2.581-.533 4.503-2.711 4.898-5.548.078-.561.15-1.12.22-1.68.037-.287.07-.559.106-.834l.178-1.375c.16-1.225.318-2.45.48-3.676l.133-1.008c.159-1.22.326-2.484.507-3.723.178-1.217.384-2.461.613-3.692.253-1.38.535-2.79.832-4.19.193-.9.407-1.816.616-2.703v-.016c.095-.386.187-.773.276-1.162.083-.364.167-.73.247-1.094l.006-.02c.142-.63.276-1.228.42-1.83l1.466.252c-.053.495-.106.992-.162 1.487l-.175 1.622c-.04.367-.076.734-.115 1.1-.06.6-.122 1.198-.189 1.795-.056.48-.114.958-.175 1.436-.092.734-.187 1.476-.26 2.217-.317 3.176-.309 6.351-.258 9.035.019 1.105.105 2.206.253 3.267.284 2.042 1.153 3.906 2.584 5.548 1.577 1.808 3.693 2.703 6.116 2.595 1.646-.075 3.217-.698 4.668-1.845 1.359-1.075 3.503-3.62 6.208-7.354l.415-.572.593.383.225.142c.936.558 1.75.878 2.554 1.003 1.616.253 3.303.033 5.019-.647a13.325 13.325 0 0 0 4.475-2.931c.939-.928 2.014-2.023 2.922-3.242.156-.212.32-.442.484-.681l.437-.64.621.462c.129.094.29.222.46.353.719.564 1.704 1.333 2.84 1.842 1.694.758 3.429 1.189 5.156 1.278 2.818.147 5.611-.467 8.296-1.825 4.25-2.15 7.08-5.351 8.405-9.513.312-.975.268-2-.125-2.886-1.117-2.52-3.584-3.426-6.289-2.309-.782.325-1.529.706-2.25 1.075-.359.183-.693.356-1.033.522-.376.184-.752.37-1.128.553l-.042.02a131.257 131.257 0 0 1-3.389 1.625 3.223 3.223 0 0 1-1.782.267l-.429-.061-.159-.403a10.567 10.567 0 0 1-.54-1.762 35.5 35.5 0 0 1-.555-3.483c-.03-.284-.066-.567-.103-.85-.15-1.162-.289-2.26.101-3.24.111-.28.192-.561.25-.772.142-.528.284-1.056.424-1.584.142-.536.284-1.07.428-1.606.176-.65.354-1.297.532-1.944.137-.495.273-.99.407-1.484.075-.275.148-.553.217-.828.075-.286.145-.558.22-.83.209-.756.426-1.57.61-2.398.184-.82.359-1.65.529-2.456.101-.47.198-.936.298-1.406.075-.352.153-.705.231-1.058a97.74 97.74 0 0 0 .371-1.714c.184-.892.362-1.798.535-2.675l.139-.709.276-1.411.005-.034c.106-.541.209-1.083.318-1.625l.13-.658c.159-.803.321-1.628.493-2.431.271-1.256.502-2.612.371-4.042-.117-1.292-.579-2.431-1.37-3.384-.875-1.053-1.986-1.745-3.401-2.114-1.442-.375-2.854-.242-4.191.4-.471.225-.827.544-1.139.825l-.098.089c-.083.072-.167.141-.25.214l-.025.02c-.368.302-.825.68-1.131 1.219a21.019 21.019 0 0 0-1.418 3.05c-.56 1.506-1.019 2.998-1.392 4.256-.162.54-.32 1.098-.49 1.703l-1.449-.339.031-.164c.15-.78.304-1.586.368-2.42.086-1.13.072-2.81-1.02-4.347-1.67-2.348-4.806-3.276-7.458-2.209-1.314.53-2.387 1.481-3.18 2.826-.688 1.16-1.034 2.436-1.337 3.561l-.006.022c-.078.292-.158.587-.245.876a85.997 85.997 0 0 0-.816 3.056l-.008.033-.284 1.111a2177.184 2177.184 0 0 0-2 7.796l-.145.566c-.172.681-.35 1.376-.512 2.065-.298 1.25-.585 2.511-.852 3.697-.084.364-.167.73-.254 1.095a63.04 63.04 0 0 0-.649 2.992 67.792 67.792 0 0 0-.62 4.256c-.037.311-.104.834-.182 1.442v.03a186.18 186.18 0 0 0-.437 3.545l-.103.956-.061.122c-.123.242-.282.556-.463.917l-1.832 3.656.613-5.809c.192-1.814.39-3.678.57-5.515.131-1.33.257-2.683.377-3.992.128-1.386.256-2.808.395-4.206.295-2.942.226-5.873.13-8.618-.08-2.311-.7-4.459-1.845-6.384-1.092-1.84-2.649-3.14-4.498-3.764-2.373-.803-4.701-.548-6.737.733-1.343.845-3.05 2.048-4.356 3.862l-.273.38-.462-.083a5.94 5.94 0 0 0-1.056-.095l-.002-.002Zm-7.48 58.355c-1.416 0-2.415-.709-3.162-2.212-.25-.505-.373-1.066-.367-1.72 0-.302-.006-.6-.011-.885a19.843 19.843 0 0 1-.006-1.087c.011-.32.053-.655.097-1.014.017-.141.037-.283.053-.425l.006-.036.017-.089.005-.028c.092-.488.217-1.158-.19-1.714a1.355 1.355 0 0 0-.915-.541c-.399-.05-.633-.112-1.025-.212l-.134-.033c-.532-.136-.925-.486-1.273-1.136-.568-1.059-.587-2.242-.056-3.617.51-1.317 1.087-2.584 1.7-3.926l.01-.022.477-1.047c.309-.69.64-1.39.958-2.065.62-1.322 1.261-2.683 1.818-4.072.477-1.187.772-2.42 1.056-3.612l.136-.567c.212-.875.373-1.761.527-2.617.053-.289.103-.578.158-.864.092-.486.179-.972.265-1.461.103-.586.212-1.192.326-1.784.117-.605.245-1.225.367-1.822.09-.428.179-.853.262-1.28.103-.518.203-1.032.304-1.548l.005-.022c.106-.542.212-1.087.32-1.628.215-1.065.438-2.143.63-3.054.276-1.32.554-2.636.835-3.956.05-.239.1-.48.148-.72.262-1.308.488-2.439 1.142-3.397.74-1.086 2.28-2.123 4.178-1.47.239.084.462.111.62.13h.02l.106.018.883.147.42-.79c.827-1.555 2.1-2.797 4.253-4.152 1.4-.881 2.952-1.045 4.615-.481 1.297.439 2.361 1.342 3.16 2.684.93 1.564 1.435 3.317 1.502 5.209.092 2.664.158 5.497-.12 8.287a522.33 522.33 0 0 0-.396 4.206c-.12 1.32-.245 2.667-.375 3.992-.182 1.831-.38 3.695-.569 5.495l-.292 2.77c-.064.609-.125 1.214-.187 1.823l-.005.044c-.084.806-.165 1.614-.25 2.42-.043.383-.087.77-.135 1.153a37.217 37.217 0 0 0-.242 2.411c-.072 1.231-.083 2.47-.095 3.665l-.005.575c0 .128.017.26.05.394a1.64 1.64 0 0 0 1.635 1.225 1.593 1.593 0 0 0 1.562-1.564v-.02h-.766v-.027l.766.014a4.188 4.188 0 0 0-.097-.661c-.181-.95-.231-1.467-.181-1.776l.005-.024c.07-.342.334-.9.805-1.815.276-.539.538-1.044.7-1.483.573-1.556 3.277-6.865 3.305-6.918l.028-.05c.735-1.206 2.16-3.547 2.308-3.784.084-.13.148-.278.198-.447a1.633 1.633 0 0 0-1.108-2.025l-.605-.18.078-.623c.168-1.35.335-2.467.527-3.509.175-.956.392-1.89.624-2.875.086-.37.172-.742.256-1.112.267-1.18.554-2.436.847-3.672.161-.675.334-1.362.504-2.026l.144-.57c.273-1.077.549-2.155.825-3.233.39-1.517.78-3.03 1.172-4.545.1-.386.198-.772.295-1.158.248-.981.507-1.992.791-2.967.092-.314.179-.631.265-.948.29-1.067.563-2.078 1.08-2.947.521-.878 1.165-1.462 1.975-1.79 1.57-.633 3.506-.055 4.503 1.345.485.68.66 1.522.569 2.728-.053.695-.187 1.398-.33 2.142-.038.2-.074.4-.113.6-.176.959-.376 1.923-.585 2.906-.114.536-.231 1.073-.351 1.606l-.006.022c-.097.445-.197.89-.292 1.334-.117.55-.234 1.103-.348 1.655-.084.398-.162.778-.242 1.162-.204.961-.41 1.925-.616 2.886l-.039.18c-.203.945-.404 1.89-.61 2.832l-.1.46a91.081 91.081 0 0 1-.93 3.973l-.011.05c-.062.242-.123.487-.181.729l-.947 3.808c-.192.778-.388 1.556-.582 2.334-.276 1.092-.569 2.253-.866 3.406-.878 3.384-1.204 6.262-1.02 9.06.017.239.067.45.106.602l.006.02.025.106.164.76.186.045.296-1.205 1.448.347-.287 1.203.056.014.49-.631c.134-.172.267-.347.401-.52.298-.386.574-.747.86-1.105 1.037-1.295 1.691-2.737 2.323-4.134.123-.27.237-.525.357-.78a218.74 218.74 0 0 0 1.921-4.265 740.42 740.42 0 0 0 2.632-6.079l.446-1.036c.573-1.33 1.167-2.709 1.712-4.087.622-1.575 1.218-3.184 1.794-4.737l.593-1.594c.131-.35.298-.817.43-1.311.05-.187.074-.398.083-.673a1.615 1.615 0 0 0-.7-1.38 1.633 1.633 0 0 0-1.754-.076l-1.476.828.387-1.644c.223-.945.44-1.815.663-2.654.454-1.7.902-3.367 1.398-5.042.362-1.22.805-2.659 1.34-4.098.348-.93.763-1.83 1.239-2.67l.033-.058.042-.05c.092-.11.231-.233.49-.447.117-.097.234-.192.343-.292l.108-.097c.262-.236.393-.347.516-.414l.039-.02c.816-.391 1.604-.466 2.487-.236.905.237 1.579.648 2.116 1.298.474.57.738 1.233.811 2.03.094 1.04-.062 2.07-.326 3.298-.178.825-.343 1.662-.501 2.47l-.131.661c-.109.545-.215 1.09-.321 1.634l-.005.033-.273 1.406-.139.703c-.173.883-.348 1.778-.53 2.656a92.493 92.493 0 0 1-.362 1.672l-.236 1.078c-.101.467-.201.934-.298 1.4-.17.809-.346 1.631-.527 2.44a47.239 47.239 0 0 1-.582 2.28c-.078.29-.153.578-.228.867a89.207 89.207 0 0 1-.616 2.276 325.033 325.033 0 0 0-.966 3.573 304.67 304.67 0 0 1-.42 1.572 4.32 4.32 0 0 1-.162.502c-.629 1.576-.44 3.048-.256 4.47v.02c.036.258.069.517.094.775a37.7 37.7 0 0 0 .594 3.723c.156.755.403 1.544.757 2.408.295.723.992 1.62 2.624 1.792a5.739 5.739 0 0 0 2.988-.488 135.31 135.31 0 0 0 3.456-1.66c.398-.194.78-.383 1.164-.569.365-.177.727-.364 1.078-.541.71-.364 1.379-.706 2.066-.992 1.827-.756 2.677.139 3.07 1.022.15.34.161.73.03 1.134-1.133 3.556-3.478 6.192-7.163 8.056-2.292 1.159-4.662 1.687-7.043 1.562-1.44-.075-2.835-.423-4.269-1.064-.858-.384-1.671-1.02-2.326-1.531l-.796-.62.448-.586c.373-.489.922-1.08 1.159-1.333.234-.253.39-.42.495-.559.106-.142.19-.3.248-.475.226-.7-.003-1.45-.582-1.917a1.79 1.79 0 0 0-2.036-.155 1.593 1.593 0 0 0-.482.428c-.72.983-1.38 2.08-2.016 3.144-.657 1.098-1.278 2.131-1.96 3.048-.803 1.08-1.802 2.095-2.677 2.962a10.851 10.851 0 0 1-3.645 2.386c-1.315.522-2.53.686-3.716.5-.479-.075-1.008-.292-1.662-.68-.914-.545-1.599-1.32-2.365-2.673a2.579 2.579 0 0 1-.139-.311 5.136 5.136 0 0 0-.214-.478 1.939 1.939 0 0 0-.454-.572 1.653 1.653 0 0 0-2.14-.031 1.662 1.662 0 0 0-.392 2.125c.131.23.298.44.496.622.362.34.649.648.852.914l.334.437-.32.447c-2.618 3.634-4.718 6.16-5.915 7.106-1.047.831-2.109 1.259-3.236 1.312-1.663.078-3.053-.511-4.13-1.748-1.109-1.272-1.783-2.706-2-4.261a25.28 25.28 0 0 1-.231-2.973c-.05-2.611-.059-5.695.248-8.743.072-.711.161-1.439.25-2.142.061-.492.123-.983.181-1.475.07-.608.131-1.217.195-1.825v-.034c.04-.352.075-.703.111-1.055l.176-1.617V45.2c.097-.887.195-1.77.284-2.656.206-2.014 1.735-14.425 1.88-15.26.111-.654.473-.945 1.153-1.445.599-.44 1.342-.987 1.727-1.959.044-.111.08-.23.111-.372a1.756 1.756 0 0 0-.858-1.923 1.55 1.55 0 0 0-1.863.261l-.058.061-1.145 1.2c-1.047 1.095-1.699 2.373-2.245 3.593a51.437 51.437 0 0 0-.8 1.92c-.136.341-.27.672-.4.991l-.036.08a2.4 2.4 0 0 0-.2.534l-.023.075c-.059.175-.12.348-.181.523-.167.486-.343.989-.501 1.494l-.106.336c-.524 1.662-1.067 3.376-1.576 5.082a116.846 116.846 0 0 0-1.173 4.192c-.223.861-.418 1.73-.607 2.573-.08.366-.164.733-.248 1.1-.09.386-.178.77-.27 1.153-.215.914-.432 1.842-.63 2.767a157.75 157.75 0 0 0-.846 4.259 105.86 105.86 0 0 0-.627 3.78c-.184 1.254-.35 2.526-.512 3.754l-.134 1.011c-.162 1.228-.32 2.453-.479 3.681l-.178 1.375-.109.84c-.072.56-.142 1.108-.217 1.652-.379 2.729-2.348 3.343-2.944 3.465a5.41 5.41 0 0 1-1.092.122l-.008.014Zm-1.922-7.148c-.017.139-.034.28-.053.42-.042.322-.078.624-.09.874-.01.309 0 .645.006 1.003.008.297.014.606.011.93-.003.412.067.757.212 1.048.62 1.245 1.281 1.573 2.618 1.298 1.359-.28 1.69-1.642 1.771-2.215.075-.541.145-1.08.212-1.622l.108-.858.178-1.376c.16-1.228.318-2.456.482-3.683l.131-1.006c.162-1.24.329-2.517.515-3.781.187-1.264.399-2.556.635-3.837.262-1.417.549-2.864.855-4.3.2-.94.42-1.876.633-2.781.092-.398.183-.781.27-1.164.083-.364.164-.726.248-1.09.192-.852.39-1.736.618-2.62.35-1.355.749-2.783 1.186-4.244a338.45 338.45 0 0 1 1.582-5.1l.106-.337c.167-.525.343-1.04.515-1.534l.167-.483c.09-.372.226-.653.298-.806l.011-.025c.128-.308.257-.628.385-.947.261-.653.526-1.32.827-1.986.601-1.34 1.323-2.754 2.526-4.01l1.228-1.286a3.03 3.03 0 0 1 3.64-.51 3.241 3.241 0 0 1 1.588 3.553 4.5 4.5 0 0 1-.179.583c-.543 1.37-1.557 2.114-2.23 2.609-.123.091-.496.364-.56.455l-.009.045c-.142.828-1.66 13.154-1.866 15.16-.091.89-.186 1.775-.284 2.664v.023c-.061.538-.12 1.075-.175 1.614l-.109 1.05v.033c-.067.614-.128 1.228-.197 1.842-.056.497-.12.995-.181 1.492-.087.694-.179 1.414-.248 2.106-.298 2.972-.29 5.998-.24 8.568.017.95.092 1.892.217 2.797.176 1.267.73 2.442 1.646 3.492.786.9 1.721 1.295 2.941 1.24.808-.037 1.585-.362 2.381-.992 1.025-.814 2.941-3.11 5.286-6.335a12.837 12.837 0 0 0-.331-.325 4.146 4.146 0 0 1-.766-.967 3.147 3.147 0 0 1 .74-4.014 3.143 3.143 0 0 1 4.064.061c.332.29.599.628.797 1.009.12.23.206.441.27.597.022.053.047.12.067.158.623 1.1 1.155 1.715 1.824 2.114.479.287.85.445 1.13.49.917.144 1.877.008 2.936-.415a9.336 9.336 0 0 0 3.147-2.06c.835-.829 1.788-1.793 2.529-2.793.637-.858 1.239-1.861 1.88-2.925.654-1.092 1.33-2.217 2.091-3.26.248-.335.56-.616.93-.832a3.268 3.268 0 0 1 3.718.28 3.216 3.216 0 0 1 1.067 3.528c-.109.337-.27.645-.479.917-.148.195-.323.383-.588.67-.12.127-.356.383-.596.658.507.389 1.081.8 1.629 1.045 1.262.564 2.485.872 3.738.936 2.119.108 4.236-.361 6.294-1.403 3.311-1.675 5.411-4.026 6.419-7.182a.32.32 0 0 0 .02-.1c-.148-.333-.276-.589-1.131-.236-.632.261-1.275.592-1.955.94-.357.183-.727.371-1.106.555-.381.186-.763.372-1.144.561-1.15.567-2.323 1.142-3.512 1.684a7.241 7.241 0 0 1-3.76.614c-2.487-.261-3.478-1.806-3.846-2.706-.39-.95-.666-1.826-.838-2.673a39.751 39.751 0 0 1-.613-3.867c-.025-.247-.058-.492-.089-.74V42.6c-.19-1.458-.423-3.272.348-5.206.042-.106.089-.278.106-.342.142-.52.278-1.041.418-1.564.144-.542.287-1.083.434-1.625.178-.656.357-1.309.538-1.961.136-.492.27-.981.403-1.473.07-.255.137-.511.204-.77.078-.305.156-.6.236-.897.195-.711.399-1.47.566-2.211.178-.803.351-1.62.518-2.412.103-.483.2-.95.303-1.42.078-.36.156-.719.237-1.08.123-.55.245-1.114.359-1.659.179-.87.354-1.76.524-2.625l.142-.72c.092-.466.184-.933.273-1.4l.005-.033c.106-.547.212-1.092.321-1.639l.128-.656c.161-.82.326-1.664.507-2.5.236-1.097.376-2 .298-2.853-.045-.495-.195-.884-.477-1.22-.339-.408-.74-.65-1.345-.808-.523-.136-.935-.106-1.412.114-.069.055-.203.177-.259.227l-.111.1c-.125.112-.256.22-.387.328a6.934 6.934 0 0 0-.268.228 17.273 17.273 0 0 0-1.091 2.373c-.521 1.397-.953 2.808-1.31 4.003a182.8 182.8 0 0 0-1.745 6.393 3.12 3.12 0 0 1 1.949.555 3.108 3.108 0 0 1 1.337 2.642 4.259 4.259 0 0 1-.134 1.011 15.473 15.473 0 0 1-.473 1.448c-.198.53-.396 1.061-.591 1.592a256.116 256.116 0 0 1-1.804 4.767c-.555 1.4-1.15 2.79-1.73 4.131-.147.345-.298.69-.445 1.034a742.004 742.004 0 0 1-2.638 6.09 218.67 218.67 0 0 1-1.935 4.292c-.117.25-.231.502-.346.755-.674 1.492-1.367 3.023-2.523 4.462-.278.347-.549.7-.835 1.072-.14.184-.276.359-.41.534l-1.075 1.389-1.008-.24-1.429-.335-1.11-.264-.363-1.678c-.005-.02-.008-.04-.014-.059l-.005-.022c-.045-.183-.123-.492-.148-.864-.192-2.959.145-5.987 1.064-9.526.298-1.145.59-2.306.863-3.395.195-.775.387-1.553.58-2.328l.946-3.812.184-.73.011-.042c.154-.614.312-1.242.454-1.853.162-.686.315-1.395.465-2.08l.1-.462c.207-.942.407-1.886.61-2.828l.04-.18c.206-.962.412-1.923.615-2.884.08-.381.159-.762.24-1.142.117-.57.233-1.125.353-1.678.098-.448.195-.898.296-1.345l.005-.022c.117-.53.234-1.062.348-1.592.206-.975.404-1.928.577-2.867.036-.203.075-.406.114-.611.133-.703.262-1.364.306-1.976.081-1.066-.106-1.486-.298-1.758-.599-.842-1.796-1.203-2.732-.828-.51.206-.894.564-1.25 1.167-.415.697-.663 1.614-.925 2.58-.089.326-.178.653-.273.976-.278.947-.532 1.947-.777 2.911l-.298 1.167a1402.374 1402.374 0 0 0-1.994 7.773l-.145.573c-.167.658-.34 1.339-.498 2.003a328.16 328.16 0 0 0-.844 3.659c-.084.375-.173.747-.26 1.122-.225.97-.44 1.884-.609 2.806-.159.867-.3 1.792-.443 2.87a3.118 3.118 0 0 1 1.515 3.623c-.089.3-.209.566-.362.813l-2.284 3.743c-1.08 2.12-2.82 5.642-3.222 6.734-.192.522-.473 1.067-.771 1.645-.15.291-.593 1.158-.666 1.414 0 .066.006.35.176 1.25.07.372.12.639.122.958 0 .2-.02.406-.061.609a3.08 3.08 0 0 1-2.955 2.45 3.122 3.122 0 0 1-3.108-2.336 3.025 3.025 0 0 1-.097-.784l.005-.572c.011-1.214.022-2.473.098-3.74.05-.86.153-1.691.25-2.492.048-.386.092-.764.134-1.139.086-.805.167-1.61.248-2.414l.005-.044c.062-.609.126-1.217.187-1.826l.292-2.772c.19-1.8.388-3.662.569-5.487.13-1.317.253-2.664.373-3.964.128-1.398.259-2.826.398-4.234.27-2.7.203-5.476.111-8.09-.055-1.64-.493-3.156-1.292-4.504-.613-1.028-1.404-1.714-2.356-2.036-1.234-.417-2.325-.309-3.342.33-1.919 1.209-3.033 2.281-3.732 3.593l-.922 1.733-2.002-.333a4.4 4.4 0 0 1-.928-.2c-1.384-.478-2.233.57-2.459.9-.484.708-.682 1.7-.91 2.85-.05.248-.098.495-.15.74a991.596 991.596 0 0 0-.833 3.95c-.19.911-.413 1.983-.627 3.042-.109.539-.215 1.078-.318 1.62l-.005.022c-.1.52-.2 1.036-.306 1.556-.087.43-.176.858-.265 1.289-.123.594-.25 1.205-.365 1.803-.111.583-.22 1.183-.323 1.764-.086.492-.175.983-.267 1.475-.053.283-.103.567-.156.853-.159.88-.32 1.786-.546 2.706-.045.18-.086.361-.131.544-.3 1.262-.607 2.548-1.125 3.837-.574 1.425-1.223 2.806-1.85 4.142-.317.678-.645 1.373-.949 2.05-.159.353-.317.703-.479 1.053l-.011.023c-.602 1.32-1.173 2.567-1.663 3.845-.482 1.247-.264 1.928-.02 2.38.196.364.296.39.332.4l.134.034c.367.094.535.139.838.178a2.858 2.858 0 0 1 1.933 1.139c.785 1.072.568 2.236.451 2.861l-.014.073-.006-.003Zm43.06-22.262-1.4-.483.128-.511c.298-1.153.593-2.323.872-3.423.198-.786.393-1.572.587-2.359l.942-3.792.192-.764c.13-.525.265-1.058.396-1.594l1.462.272c-.045.33-.09.664-.134 1.006a40.831 40.831 0 0 0-.242 2.644v.034c-.037.486.05.9.256 1.228l.203.327-.153.356a555.443 555.443 0 0 1-1.724 3.964 223.073 223.073 0 0 1-1.384 3.098v-.003Z"/><path fill="#3C4932" d="M18.489 120.364c-.165 0-.329 0-.496-.009-2.228-.069-4.38-.753-6.776-2.156-2.668-1.561-4.715-3.806-6.258-6.859-1.25-2.472-2.16-4.845-2.785-7.251a31.46 31.46 0 0 1-.941-9.587c.125-2.342.42-4.267.925-6.06.988-3.511 2.798-6.03 5.53-7.703 1.323-.809 2.847-.99 4.184-.49 1.359.506 2.411 1.668 2.89 3.185.889 2.814.702 5.54.443 7.598a22.066 22.066 0 0 0 .014 5.503l.048.381c.144 1.159.28 2.256.523 3.306.36 1.556.769 3.32 1.666 4.715.147.23.52.786.88 1.308.172-.169.353-.367.54-.592 1.103-1.33 2.038-2.947 2.86-4.936l.298-.72a81.874 81.874 0 0 0 1.248-3.123c.398-1.08.743-2.172 1.142-3.483.356-1.181.768-2.556 1.108-3.92.278-1.123.549-2.373.844-3.934.312-1.645.61-3.34.908-5.176.133-.822.25-1.675.362-2.5.07-.506.139-1.014.211-1.52.148-1.022.307-2.022.427-2.781.044-.278.228-1.628.403-2.917a12.73 12.73 0 0 1-2.62 1.247c-2.178.74-4.22.92-6.244.545-4.094-.753-7.191-3.114-9.207-7.015-1.064-2.059-1.738-4.42-2.064-7.218-.3-2.589-.134-5.122.078-7.706.186-2.256.568-4.6 1.17-7.162a47.298 47.298 0 0 1 4.428-11.669c1.907-3.525 4.37-6.895 7.319-10.018 1.097-1.16 2.038-2.122 3.066-3.039 1.632-1.456 3.141-2.395 4.745-2.956 1.24-.433 2.588-.608 4.005-.522 1.362.083 2.718.461 4.27 1.192.117.055.429.105.682.147.128.022.256.042.382.067.247.047.515.083.799.119.573.078 1.225.167 1.885.364 1.791.536 3.19 1.823 4.041 3.72.184.408.287.789.379 1.125.03.108.058.22.092.325l.03.103.078.397c.179.911.363 1.853.335 2.892l-.009.292c-.033 1.322-.07 2.686-.195 4.056a159.077 159.077 0 0 1-.771 6.915c-.128.956-.295 1.9-.457 2.814-.192 1.09-.373 2.12-.496 3.159-.32 2.728-.484 4.815-.531 6.767a11.527 11.527 0 0 1-1.064 4.582 810.31 810.31 0 0 0-1.593 3.528l-.688 1.533c-.526 1.17-.68 2.11-.47 2.876.119.439.23.62.27.672.058.022.175.053.264.075.27.07.64.167 1.025.372 1.178.623 1.78 1.798 1.654 3.229-.125 1.392-.432 4.83-.615 6.728a192.926 192.926 0 0 1-.602 5.56c-.136 1.086-.323 2.164-.498 3.203l-.143.83a126.02 126.02 0 0 1-.626 3.523c-.184.945-.401 1.859-.604 2.717l-.129.536a91.381 91.381 0 0 1-.807 3.2 168.91 168.91 0 0 1-1.109 3.77l-.356 1.187a87.489 87.489 0 0 1-.816 2.623c-.32.952-.68 2.033-1.109 3.092l-.264.661c-.526 1.314-1.072 2.672-1.73 3.995-1.971 3.967-4.283 7.02-7.068 9.337-.994.828-2.172 1.509-3.607 2.084-1.442.58-2.985.864-4.7.864l-.003.003Zm-8.18-36.439c-.206 0-.42.109-.546.187-1.866 1.141-3.069 2.858-3.784 5.4-.424 1.506-.674 3.159-.783 5.2a27.57 27.57 0 0 0 .819 8.385c.551 2.131 1.367 4.243 2.487 6.46 1.189 2.353 2.735 4.064 4.723 5.228 1.8 1.053 3.35 1.567 4.888 1.614 1.373.042 2.515-.139 3.587-.569 1.058-.425 1.869-.887 2.548-1.453 2.35-1.956 4.333-4.593 6.055-8.057.587-1.181 1.077-2.406 1.601-3.706l.27-.67c.382-.944.724-1.964 1.025-2.864.273-.82.532-1.675.78-2.503l.359-1.192c.365-1.208.744-2.458 1.083-3.686.279-1 .53-2.048.772-3.062l.128-.542c.195-.814.401-1.683.568-2.55.22-1.13.412-2.264.607-3.42l.142-.842c.178-1.044.348-2.033.474-3.033.242-1.917.434-3.826.59-5.443.162-1.692.426-4.62.568-6.209-.858-.267-1.743-.742-2.406-1.873a2.735 2.735 0 0 1-1.281 1.126c-1.089.478-2.395 1.492-2.501 1.939a389.72 389.72 0 0 0-.426 3.072 338.7 338.7 0 0 1-.46 3.318c-.12.747-.272 1.73-.417 2.728-.073.494-.14.989-.206 1.486-.117.847-.237 1.725-.376 2.598a195.58 195.58 0 0 1-.928 5.284 76.605 76.605 0 0 1-.891 4.15 83.853 83.853 0 0 1-1.161 4.115c-.362 1.192-.758 2.464-1.215 3.706-.409 1.114-.866 2.211-1.306 3.27l-.295.714c-.975 2.361-2.108 4.309-3.47 5.95-.791.953-1.57 1.634-2.384 2.081-.3.164-.574.317-.833.461-.933.523-1.74.973-2.938 1.503-.13.059-.278.112-.448.162a2.552 2.552 0 0 1-3.002-1.326 2.54 2.54 0 0 1 .776-3.181l.173-.125c.276-.191.588-.33.975-.458-.059-.086-.106-.161-.145-.222-1.267-1.973-1.78-4.184-2.192-5.959-.29-1.25-.445-2.5-.596-3.71l-.047-.374a25.956 25.956 0 0 1-.011-6.49c.312-2.464.223-4.29-.29-5.915-.108-.344-.29-.589-.493-.664a.527.527 0 0 0-.172-.03l.005-.009Zm3.883 24.665-.026.011.025-.011Zm18.461-89.52c-.713 0-1.364.105-1.983.322-1.094.383-2.178 1.072-3.411 2.17-.922.822-1.797 1.713-2.824 2.802-2.713 2.87-4.972 5.96-6.715 9.182a43.236 43.236 0 0 0-4.058 10.69c-.557 2.37-.908 4.523-1.078 6.585-.203 2.467-.35 4.692-.091 6.926.267 2.314.807 4.23 1.648 5.859 1.443 2.792 3.537 4.406 6.397 4.934 1.34.247 2.727.117 4.242-.4 1.003-.342 1.98-.897 2.991-1.703 1.292-1.03 2.423-2.342 3.618-3.731.406-.473.824-.959 1.25-1.431.822-.914 2.089-1.108 3.156-.48.072.041.142.088.211.136.07-1.045.368-2.145.897-3.323l.688-1.53a807.252 807.252 0 0 1 1.601-3.549 7.512 7.512 0 0 0 .71-3.039c.05-2.078.223-4.278.56-7.132.137-1.152.334-2.286.53-3.383.16-.917.314-1.781.431-2.659.279-2.064.524-4.27.752-6.748.114-1.24.148-2.481.181-3.798l.008-.294c.017-.603-.114-1.264-.261-2.031l-.04-.203a15.696 15.696 0 0 1-.094-.342 4.801 4.801 0 0 0-.167-.539c-.504-1.12-1.13-1.42-1.563-1.547-.362-.108-.807-.17-1.278-.233a21.617 21.617 0 0 1-1.29-.203c-.495-.08-1.11-.184-1.729-.473-1.097-.514-1.966-.77-2.821-.82a8.982 8.982 0 0 0-.468-.013v-.003Zm-13.61 44.653h-.075a2.341 2.341 0 0 1-2.203-1.742 2.292 2.292 0 0 1 1.468-2.776 5.38 5.38 0 0 1 .882-.205c-.579-2.476-.76-5.373-.454-7.72.296-2.257.769-4.488 1.192-6.374.605-2.695 1.657-5.426 3.214-8.351 1.824-3.428 4.23-6.61 7.155-9.454 1.005-.978 2.075-1.867 3.083-2.692.225-.186.479-.33.746-.43a2.343 2.343 0 0 1 2.604.658c.652.744.777 1.825.31 2.692a2.693 2.693 0 0 1-.728.855c-.214.164-.442.29-.704.434-.217.12-.694.38-.9.572-.089 1.386-.186 4.059-.259 6.037a522.79 522.79 0 0 1-.072 1.914c-.098 2.376-.242 4.91-.855 7.432-.379 1.567-.916 3.245-1.69 5.284-1.017 2.678-2.46 5.309-4.535 8.279l-.3.433c-.78 1.136-1.666 2.425-3.117 3.353-1.551.992-2.952 1.556-4.408 1.773a2.529 2.529 0 0 1-.357.025l.003.003ZM30.5 32.616a33.611 33.611 0 0 0-3.927 5.795c-1.386 2.608-2.32 5.014-2.846 7.36-.404 1.8-.855 3.922-1.128 6.02-.217 1.658-.111 3.794.248 5.664.268-.339.527-.72.802-1.12l.318-.46c1.885-2.698 3.18-5.054 4.08-7.421.713-1.878 1.203-3.406 1.543-4.81.526-2.175.657-4.483.746-6.664.02-.478.045-1.145.072-1.897.028-.756.059-1.615.092-2.467Z"/><path fill="#3C4932" d="M18.489 121.105c-.17 0-.343 0-.518-.008-2.356-.072-4.623-.789-7.13-2.259-2.793-1.636-4.935-3.981-6.547-7.167-1.276-2.52-2.203-4.94-2.841-7.398a32.226 32.226 0 0 1-.964-9.813c.128-2.397.432-4.373.953-6.22 1.041-3.7 2.957-6.362 5.857-8.137 1.517-.931 3.28-1.131 4.832-.553 1.573.586 2.793 1.92 3.339 3.656.93 2.953.74 5.781.47 7.915a21.247 21.247 0 0 0 .014 5.317l.048.38c.142 1.143.275 2.218.51 3.232.348 1.497.74 3.195 1.567 4.481l.334.506c1.006-1.248 1.866-2.756 2.63-4.607l.297-.722c.424-1.02.861-2.073 1.237-3.095.393-1.061.735-2.145 1.128-3.442.354-1.172.763-2.536 1.097-3.884.276-1.111.543-2.347.836-3.895.312-1.639.607-3.325.905-5.156.13-.814.248-1.661.36-2.48.069-.51.138-1.018.21-1.526.148-1.025.307-2.031.43-2.792.025-.167.108-.764.203-1.44a12.72 12.72 0 0 1-1.445.59c-2.3.78-4.468.97-6.62.572-4.331-.797-7.606-3.29-9.731-7.404-1.106-2.139-1.808-4.584-2.142-7.473-.309-2.659-.139-5.231.078-7.851.19-2.295.577-4.673 1.187-7.27a47.97 47.97 0 0 1 4.497-11.85c1.939-3.583 4.44-7.006 7.433-10.173 1.112-1.175 2.064-2.148 3.111-3.081 1.707-1.522 3.295-2.509 4.994-3.103 1.334-.467 2.78-.656 4.297-.561 1.454.088 2.89.486 4.523 1.253.095.027.367.075.504.094l.395.067c.232.041.49.078.764.114.601.08 1.283.175 2 .389 2.002.6 3.561 2.028 4.505 4.125.206.461.323.892.418 1.236l.008.028c.025.092.05.184.078.272l.05.178.078.398c.187.95.376 1.93.349 3.05l-.009.292c-.036 1.333-.072 2.711-.198 4.103a165.094 165.094 0 0 1-.774 6.948c-.13.97-.298 1.92-.462 2.842-.192 1.084-.37 2.1-.49 3.12-.318 2.703-.482 4.77-.53 6.698a12.27 12.27 0 0 1-1.13 4.87 566.05 566.05 0 0 0-1.59 3.526l-.691 1.533c-.446.992-.59 1.79-.432 2.376.028.1.053.18.078.244.287.075.688.19 1.114.414 1.435.756 2.2 2.234 2.047 3.95-.125 1.392-.431 4.837-.615 6.735a190.15 190.15 0 0 1-.605 5.584c-.139 1.103-.325 2.19-.504 3.237l-.142.827c-.2 1.187-.398 2.35-.63 3.543a62.406 62.406 0 0 1-.612 2.747l-.128.536a90.988 90.988 0 0 1-.813 3.226c-.354 1.278-.74 2.553-1.111 3.784l-.357 1.183c-.259.864-.526 1.756-.824 2.642-.323.967-.688 2.056-1.122 3.134l-.265.661c-.532 1.328-1.083 2.7-1.755 4.048-2.019 4.062-4.394 7.195-7.257 9.579-1.053.878-2.298 1.597-3.805 2.203-1.534.617-3.163.917-4.98.917l.004.005ZM10.32 80.711c-.757 0-1.531.222-2.242.658-2.565 1.57-4.266 3.948-5.202 7.274-.49 1.739-.774 3.614-.897 5.898a30.608 30.608 0 0 0 .92 9.362c.61 2.353 1.503 4.678 2.729 7.104 1.478 2.922 3.43 5.067 5.97 6.553 2.284 1.337 4.323 1.99 6.423 2.054 1.813.055 3.409-.206 4.893-.803 1.36-.548 2.476-1.189 3.409-1.967 2.704-2.248 4.951-5.226 6.879-9.099.643-1.294 1.183-2.639 1.704-3.939l.267-.664c.418-1.036.777-2.103 1.092-3.048.293-.87.554-1.75.81-2.603l.357-1.186c.37-1.225.752-2.492 1.103-3.754.295-1.06.551-2.136.8-3.175l.127-.536c.204-.85.418-1.759.6-2.687.227-1.172.422-2.325.62-3.503l.142-.833c.176-1.034.36-2.1.496-3.173.248-1.961.443-3.9.599-5.537.18-1.892.49-5.334.615-6.726.1-1.133-.345-2.022-1.259-2.506a3.866 3.866 0 0 0-.866-.308c-.133-.036-.242-.064-.328-.095l-.218-.077-.133-.186c-.145-.2-.273-.506-.385-.912-.259-.939-.091-2.042.51-3.375l.688-1.534c.53-1.178 1.058-2.355 1.593-3.533.635-1.395.96-2.798 1-4.293.047-1.975.214-4.084.537-6.834.126-1.061.31-2.1.502-3.2a65.89 65.89 0 0 0 .45-2.787c.285-2.108.535-4.362.767-6.884.122-1.345.158-2.698.192-4.006l.008-.295c.025-.955-.15-1.858-.32-2.73l-.09-.426c-.033-.105-.06-.214-.091-.32l-.008-.027c-.09-.325-.179-.661-.34-1.017-.763-1.695-2-2.84-3.576-3.311-.605-.18-1.223-.264-1.772-.34-.295-.038-.57-.077-.835-.124-.12-.023-.242-.042-.365-.064-.4-.067-.68-.117-.877-.209-1.462-.689-2.735-1.044-4-1.122-1.317-.08-2.567.08-3.712.48-1.51.529-2.938 1.42-4.495 2.81-1.008.897-1.935 1.847-3.019 2.994-2.904 3.073-5.33 6.393-7.204 9.86a46.458 46.458 0 0 0-4.359 11.485c-.593 2.525-.969 4.834-1.153 7.054-.209 2.544-.373 5.036-.08 7.559.314 2.709.963 4.987 1.985 6.962 1.905 3.687 4.824 5.915 8.678 6.623 1.897.35 3.816.18 5.868-.517a11.91 11.91 0 0 0 2.47-1.175l1.343-.83-.215 1.56c-.19 1.387-.362 2.654-.406 2.935-.12.758-.279 1.755-.426 2.772-.073.503-.142 1.009-.212 1.514-.114.828-.231 1.687-.365 2.52a185.21 185.21 0 0 1-.91 5.195 75.967 75.967 0 0 1-.853 3.976c-.342 1.383-.757 2.767-1.117 3.956a62.805 62.805 0 0 1-1.155 3.525 79.693 79.693 0 0 1-1.26 3.148l-.3.722c-.85 2.059-1.821 3.737-2.974 5.126a8.737 8.737 0 0 1-.593.65l-.636.62-.5-.731a70.716 70.716 0 0 1-.892-1.328c-.966-1.503-1.39-3.334-1.763-4.948-.25-1.086-.39-2.2-.537-3.38l-.048-.382a22.863 22.863 0 0 1-.014-5.686c.251-1.984.432-4.607-.415-7.285-.409-1.297-1.297-2.286-2.442-2.711a3.715 3.715 0 0 0-1.292-.23l.005.002Zm27.627-65.062h.003-.003ZM18.494 117.147c-.13 0-.264 0-.4-.006-1.666-.053-3.332-.597-5.242-1.714-2.117-1.239-3.757-3.051-5.013-5.534-1.145-2.264-1.977-4.426-2.543-6.609-.718-2.765-1-5.662-.84-8.61.11-2.098.37-3.803.81-5.362.771-2.733 2.077-4.587 4.11-5.834.22-.133.56-.294.933-.294.15 0 .295.025.432.075.426.158.763.564.944 1.136.546 1.733.646 3.653.32 6.231-.259 2.05-.256 4.17.011 6.307l.048.377c.147 1.19.3 2.42.582 3.634.398 1.723.894 3.865 2.094 5.726l.14.214.537.811-.925.303a4.13 4.13 0 0 0-.476.186l.479 1.086-.017.009-.495-1.078c-.104.05-.193.103-.276.161a5.233 5.233 0 0 0-.159.114 1.81 1.81 0 0 0 1.576 3.195 2.75 2.75 0 0 0 .354-.125c1.167-.52 1.958-.961 2.877-1.473.262-.147.537-.3.838-.464.73-.4 1.44-1.022 2.17-1.903 1.311-1.583 2.409-3.467 3.356-5.759l.295-.714c.44-1.058.891-2.145 1.295-3.245a63.921 63.921 0 0 0 1.2-3.664c.37-1.22.794-2.64 1.15-4.078.296-1.184.574-2.49.883-4.11.318-1.674.621-3.397.922-5.261.14-.861.26-1.734.373-2.578v-.03c.07-.49.137-.976.21-1.465.144-1 .3-1.989.42-2.74.05-.31.22-1.563.456-3.3v-.025c.19-1.364.382-2.772.427-3.064l.01-.053c.212-.905 2.04-2.061 2.925-2.45.404-.178.73-.461.936-.817l.64-1.103.646 1.1c.585 1 1.368 1.348 1.983 1.54l.574.177-.053.598c-.142 1.591-.407 4.517-.568 6.214-.156 1.62-.348 3.537-.59 5.465a68.677 68.677 0 0 1-.48 3.064l-.142.842c-.195 1.161-.39 2.3-.61 3.44-.172.88-.378 1.758-.576 2.58l-.128.542a86.236 86.236 0 0 1-.777 3.087 165.149 165.149 0 0 1-1.089 3.7l-.36 1.192c-.25.833-.509 1.695-.785 2.525-.303.909-.649 1.942-1.038 2.909l-.27.67c-.527 1.314-1.025 2.553-1.624 3.758-1.769 3.559-3.813 6.274-6.244 8.296-.741.617-1.616 1.117-2.746 1.572-1.064.428-2.18.631-3.49.631v-.005Zm-8.28-32.438a.433.433 0 0 0-.058.033C8.46 85.782 7.36 87.36 6.7 89.712c-.41 1.45-.649 3.053-.755 5.04-.15 2.797.117 5.542.797 8.159.54 2.078 1.334 4.142 2.43 6.312 1.123 2.223 2.577 3.834 4.437 4.923 1.688.986 3.128 1.467 4.534 1.511 1.27.039 2.315-.125 3.287-.516.983-.395 1.73-.82 2.347-1.334 2.27-1.889 4.189-4.445 5.865-7.815.574-1.153 1.062-2.367 1.577-3.653l.27-.67c.373-.925.71-1.933 1.008-2.822.27-.809.526-1.659.772-2.481l.359-1.192c.362-1.203.738-2.448 1.078-3.67a85.66 85.66 0 0 0 .763-3.034l.13-.541c.196-.809.396-1.667.563-2.52.217-1.123.41-2.25.605-3.4.047-.281.094-.565.144-.845.179-1.04.346-2.017.471-3.003.242-1.909.432-3.81.588-5.42.145-1.51.367-3.987.518-5.637a4.537 4.537 0 0 1-1.652-1.17c-.276.242-.59.445-.941.597-.939.414-1.883 1.175-2.078 1.462a480 480 0 0 0-.406 2.945v.025c-.248 1.8-.415 3.005-.465 3.333a196.2 196.2 0 0 0-.418 2.72c-.07.483-.137.967-.203 1.45v.028c-.12.853-.24 1.736-.385 2.617-.303 1.88-.61 3.614-.93 5.304a78.046 78.046 0 0 1-.9 4.189c-.364 1.472-.796 2.914-1.17 4.15a68.73 68.73 0 0 1-1.228 3.748 88.339 88.339 0 0 1-1.314 3.295l-.298.717c-1.003 2.431-2.175 4.439-3.581 6.14-.85 1.028-1.702 1.767-2.599 2.258-.298.164-.568.314-.827.459-.952.53-1.771.989-3 1.533a4 4 0 0 1-.543.195 3.296 3.296 0 0 1-3.879-1.709 3.28 3.28 0 0 1 1.005-4.109l.19-.133c.1-.07.203-.133.312-.192-1.106-1.933-1.582-3.989-1.972-5.67-.298-1.289-.457-2.559-.61-3.787l-.047-.375a26.642 26.642 0 0 1-.011-6.675c.297-2.354.217-4.082-.262-5.599-.017-.052-.036-.097-.05-.133l-.012-.008Zm11.656-15.31c-.496 0-.98-.045-1.465-.134-3.103-.572-5.37-2.314-6.924-5.323-.883-1.709-1.448-3.706-1.726-6.112-.268-2.3-.117-4.564.089-7.07.172-2.098.532-4.287 1.097-6.69a43.94 43.94 0 0 1 4.127-10.874c1.774-3.278 4.072-6.42 6.826-9.337 1.042-1.1 1.928-2.006 2.869-2.848 1.306-1.164 2.47-1.903 3.66-2.317.846-.294 1.74-.408 2.74-.347.952.058 1.908.333 3.091.889.526.247 1.061.336 1.532.411l.317.053c.326.061.646.103.953.144.501.067.975.134 1.392.259.892.266 1.554.905 2.025 1.956.078.177.142.405.209.65.03.108.058.22.092.328l.016.066.04.203c.158.808.292 1.506.275 2.19l-.008.294c-.036 1.33-.067 2.583-.184 3.845a162.597 162.597 0 0 1-.755 6.778c-.12.892-.273 1.764-.437 2.687-.192 1.086-.39 2.211-.524 3.342-.331 2.83-.504 5.009-.554 7.062a8.232 8.232 0 0 1-.777 3.328c-.537 1.18-1.07 2.362-1.598 3.545l-.688 1.53c-.499 1.107-.772 2.11-.833 3.068l-.086 1.33-1.09-.777a2.777 2.777 0 0 0-.155-.103c-.763-.45-1.635-.317-2.223.336-.42.467-.835.95-1.239 1.42-1.22 1.417-2.37 2.753-3.718 3.828-1.078.859-2.13 1.456-3.216 1.825-1.1.375-2.145.562-3.156.562l.006.002ZM32.653 19.81c-.63 0-1.197.092-1.735.28-1 .35-2.005.992-3.16 2.023-.903.806-1.764 1.686-2.777 2.759-2.669 2.822-4.888 5.859-6.6 9.023a42.5 42.5 0 0 0-3.989 10.507c-.549 2.334-.894 4.45-1.061 6.473-.2 2.428-.345 4.612-.095 6.78.26 2.224.772 4.058 1.57 5.603 1.332 2.575 3.254 4.061 5.872 4.545 1.208.222 2.476.1 3.868-.373.92-.313 1.824-.83 2.765-1.578 1.24-.986 2.346-2.272 3.518-3.633.406-.475.83-.964 1.259-1.442.871-.973 2.13-1.314 3.317-.962.156-.805.426-1.636.821-2.511l.688-1.528c.532-1.183 1.064-2.37 1.604-3.553a6.818 6.818 0 0 0 .644-2.75c.053-2.104.225-4.323.562-7.199.137-1.172.34-2.317.535-3.425a66.21 66.21 0 0 0 .429-2.628c.278-2.053.52-4.251.749-6.715.111-1.214.145-2.445.178-3.748l.008-.297c.015-.523-.108-1.145-.247-1.867l-.034-.172c-.03-.109-.061-.214-.089-.323-.042-.152-.097-.36-.128-.43-.423-.94-.894-1.08-1.097-1.142-.307-.092-.722-.147-1.162-.208-.328-.045-.665-.09-1.027-.156-.09-.017-.181-.03-.27-.047-.53-.086-1.229-.203-1.942-.536-1.008-.473-1.793-.706-2.548-.75a7.276 7.276 0 0 0-.42-.014l-.006-.006Zm-13.61 44.653h-.095a3.078 3.078 0 0 1-2.902-2.292A3.026 3.026 0 0 1 18 58.5c.075-.025.153-.05.23-.07-.476-2.406-.592-5.062-.306-7.245.298-2.284.777-4.537 1.203-6.44.621-2.761 1.694-5.553 3.284-8.537 1.86-3.495 4.314-6.737 7.291-9.638 1.025-1 2.108-1.897 3.13-2.733.29-.237.613-.423.956-.553a3.088 3.088 0 0 1 3.425.864 3.13 3.13 0 0 1 .41 3.522l-.006.012a3.41 3.41 0 0 1-.93 1.091c-.26.198-.521.342-.8.498-.228.125-.406.23-.537.31-.08 1.448-.17 3.87-.237 5.677l-.072 1.916c-.098 2.415-.248 4.987-.875 7.577-.387 1.597-.933 3.306-1.718 5.373-1.039 2.736-2.507 5.417-4.62 8.442l-.293.423c-.824 1.203-1.754 2.556-3.333 3.567-1.643 1.05-3.136 1.647-4.699 1.88a3.306 3.306 0 0 1-.465.034l.006-.006ZM34.88 24.567c-.19 0-.382.034-.57.103a1.82 1.82 0 0 0-.535.311c-.998.814-2.053 1.692-3.036 2.648-2.869 2.792-5.228 5.912-7.016 9.27-1.526 2.865-2.553 5.537-3.144 8.166-.42 1.87-.888 4.08-1.18 6.306-.293 2.242-.129 5.028.44 7.456l.183.784-.796.12c-.284.041-.527.1-.76.174a1.548 1.548 0 0 0-.98 1.878c.186.692.79 1.173 1.503 1.192h.053c.083 0 .167-.005.248-.016 1.345-.2 2.654-.731 4.113-1.662 1.323-.844 2.164-2.07 2.905-3.147l.303-.44c2.042-2.92 3.454-5.5 4.45-8.117.764-2.009 1.293-3.659 1.663-5.195.594-2.459.739-4.948.833-7.287.02-.481.045-1.153.073-1.912.072-1.967.172-4.659.259-6.056l.02-.297.22-.203c.239-.223.645-.459 1.043-.678.248-.136.443-.244.613-.372a1.91 1.91 0 0 0 .521-.611v-.006a1.64 1.64 0 0 0-.212-1.853 1.61 1.61 0 0 0-1.214-.556Zm-12.457 34.63-.31-1.606c-.38-1.989-.476-4.192-.253-5.898.279-2.128.733-4.27 1.14-6.084.542-2.411 1.495-4.878 2.915-7.546a34.297 34.297 0 0 1 4.013-5.922l1.401-1.667-.086 2.172c-.034.84-.064 1.687-.092 2.434v.03l-.072 1.903c-.092 2.217-.226 4.568-.766 6.807-.346 1.433-.847 2.99-1.571 4.898-.922 2.422-2.245 4.831-4.164 7.581-.105.15-.208.303-.314.456a22.5 22.5 0 0 1-.83 1.158l-1.008 1.29-.003-.006ZM29.67 34.88a32.2 32.2 0 0 0-2.437 3.878c-1.356 2.548-2.264 4.895-2.776 7.176-.401 1.784-.847 3.884-1.117 5.954-.14 1.055-.142 2.33-.02 3.614.012-.017.026-.033.037-.053 1.85-2.645 3.116-4.953 3.994-7.256.701-1.85 1.183-3.348 1.515-4.72.51-2.109.637-4.379.726-6.52.02-.476.045-1.134.073-1.879v-.047l.008-.145-.003-.002Z"/><path fill="#fff" d="M83.958 50.549c.423-.548.841-1.103 1.273-1.642 1.125-1.403 1.777-3.056 2.523-4.662.652-1.406 1.287-2.82 1.91-4.24a750.16 750.16 0 0 0 2.627-6.067c.724-1.692 1.467-3.378 2.144-5.092.825-2.09 1.593-4.204 2.379-6.31.147-.394.286-.791.392-1.197.028-.1.04-.244.042-.389a.393.393 0 0 0-.543-.372c-.084.033-.153.078-.175.139-.218.542.022 1.478-.193 2.02-1.548 3.911-3.063 7.831-4.879 11.646-.334-.15-.292-.464-.278-.706.052-.856.122-1.712.233-2.562.198-1.497.413-2.992.652-4.484a89.48 89.48 0 0 1 .66-3.553c.262-1.294.538-2.586.833-3.875a97.77 97.77 0 0 1 .852-3.465 177.91 177.91 0 0 1 1.41-5.075c.417-1.406.854-2.806 1.367-4.179a19.99 19.99 0 0 1 1.334-2.87c.256-.452.746-.777 1.153-1.139.298-.264.598-.552.952-.722 1.064-.511 2.147-.63 3.339-.32 1.131.295 2.033.831 2.76 1.706.649.784 1 1.7 1.092 2.71.114 1.244-.089 2.458-.348 3.669-.223 1.034-.421 2.072-.627 3.111-.203 1.023-.398 2.048-.599 3.073-.22 1.125-.437 2.25-.671 3.37-.189.922-.401 1.842-.601 2.762-.276 1.283-.541 2.57-.827 3.85a49.101 49.101 0 0 1-.596 2.34c-.151.552-.287 1.108-.438 1.66-.312 1.145-.632 2.287-.941 3.432-.287 1.06-.565 2.125-.852 3.189-.059.217-.123.43-.206.639-.619 1.55-.243 3.12-.081 4.676a36.53 36.53 0 0 0 .574 3.603c.153.747.401 1.483.69 2.19.279.68.894.955 1.607 1.027a4.466 4.466 0 0 0 2.342-.383c1.546-.703 3.064-1.47 4.59-2.215 1.072-.522 2.114-1.11 3.214-1.564 1.944-.803 3.802-.314 4.679 1.664.289.653.287 1.362.078 2.012-1.298 4.064-4.027 6.884-7.784 8.784-2.409 1.22-4.966 1.834-7.67 1.695-1.638-.086-3.203-.495-4.712-1.17-1.376-.616-2.582-1.733-3.253-2.192-.368-.25-.535-.608-.552-1.075-.036-.9 1.989-2.82 2.306-3.236a.417.417 0 0 0 .053-.106c.15-.464-.387-.872-.81-.625a.312.312 0 0 0-.106.092c-1.398 1.908-2.57 4.3-3.983 6.198-.827 1.114-1.81 2.122-2.798 3.1a12.061 12.061 0 0 1-4.06 2.659c-1.413.561-2.878.806-4.368.572-.732-.114-1.423-.433-2.108-.841-1.298-.776-2.103-1.881-2.81-3.129-.15-.264-.237-.56-.376-.83a.707.707 0 0 0-.167-.206c-.362-.314-.88.133-.64.547.066.114.153.23.267.34.593.555 2.047 1.986 1.406 2.886-1.395 1.956-4.626 6.376-6.533 7.887-1.159.92-2.48 1.511-3.952 1.578-2.028.092-3.777-.625-5.125-2.17-1.23-1.411-2.033-3.045-2.292-4.903a25.973 25.973 0 0 1-.242-3.12c-.056-2.967-.042-5.934.253-8.89.123-1.214.296-2.423.435-3.637.111-.967.203-1.936.306-2.903.153-1.43.312-2.859.46-4.29.203-1.97 1.732-14.42 1.89-15.346.357-2.07 2.362-2.164 2.95-3.645.022-.056.042-.122.058-.194.092-.395-.348-.795-.634-.509l-1.187 1.245c-.897.936-1.484 2.075-2.01 3.242-.427.95-.794 1.928-1.193 2.892-.064.158-.161.303-.178.47-.24.708-.493 1.41-.718 2.125a354.452 354.452 0 0 0-1.677 5.4c-.412 1.376-.8 2.76-1.158 4.148-.312 1.206-.569 2.426-.847 3.64-.3 1.3-.616 2.597-.894 3.9-.3 1.403-.582 2.812-.841 4.226a105.728 105.728 0 0 0-.618 3.736c-.232 1.581-.432 3.165-.644 4.748-.223 1.684-.44 3.37-.657 5.054-.109.833-.209 1.67-.326 2.503-.298 2.136-1.654 4.04-3.921 4.506-2.462.508-4.406-.322-5.615-2.75-.353-.714-.504-1.478-.498-2.278.005-.67-.04-1.34-.017-2.006.017-.52.1-1.036.159-1.553.028-.256.234-.992-.008-1.023-.527-.066-.842-.155-1.31-.275-.983-.253-1.61-.916-2.057-1.75-.814-1.514-.713-3.111-.12-4.645.663-1.714 1.453-3.381 2.211-5.059.916-2.03 1.924-4.026 2.757-6.09.515-1.28.81-2.658 1.136-4.006.273-1.128.457-2.275.669-3.417.203-1.083.384-2.17.59-3.25.2-1.04.426-2.073.632-3.112.215-1.067.415-2.134.63-3.198a797.85 797.85 0 0 1 1.465-7.026c.334-1.57.543-3.186 1.478-4.556 1.226-1.794 3.393-2.706 5.607-1.942.172.059.362.064.548.098 1.092-2.053 2.81-3.44 4.685-4.618 1.76-1.108 3.723-1.267 5.675-.608 1.666.564 2.93 1.711 3.83 3.225 1.06 1.784 1.601 3.734 1.674 5.798.097 2.82.156 5.637-.126 8.454-.273 2.731-.501 5.468-.771 8.199-.273 2.758-.574 5.514-.86 8.273-.148 1.43-.29 2.861-.444 4.29-.122 1.169-.303 2.336-.373 3.508-.083 1.392-.083 2.787-.097 4.181 0 .02.003.045.011.07.1.386.668.405.752.017a.217.217 0 0 0 .005-.04c0-.269-.431-1.841-.25-2.744.192-.959 1.217-2.565 1.557-3.484.615-1.67 3.397-7.118 3.397-7.118s2.161-3.547 2.354-3.859a.62.62 0 0 0 .058-.141c.109-.361-.331-.659-.613-.403-.008.006-.013.014-.016.017-.154.197-1.758 3.542-1.738 3.361.159-1.467.51-4.1.615-5.003.165-1.398.357-2.795.61-4.179.248-1.355.588-2.692.891-4.036.279-1.228.56-2.459.85-3.684.209-.873.431-1.742.654-2.614a2690.003 2690.003 0 0 1 2-7.79c.36-1.39.693-2.787 1.097-4.162.415-1.417.7-2.881 1.465-4.176.618-1.041 1.432-1.844 2.579-2.305 2.111-.85 4.648-.098 5.98 1.775.765 1.078.888 2.297.793 3.536-.072.964-.284 1.917-.46 2.87-.18.984-.384 1.962-.59 2.937-.209.991-.437 1.978-.649 2.967-.2.936-.39 1.875-.587 2.811a1226.52 1226.52 0 0 1-1.265 5.907c-.186.864-.373 1.728-.573 2.586-.21.89-.438 1.773-.658 2.662-.228.925-.46 1.85-.69 2.775-.279 1.125-.557 2.25-.841 3.373a437.265 437.265 0 0 1-.87 3.414c-.737 2.842-1.175 5.72-.983 8.668.012.183.07.364.112.544l.159.04.008-.017Z"/><path fill="#fff" d="M42.632 21.311c.18.948.381 1.842.356 2.759-.036 1.409-.067 2.82-.195 4.22-.209 2.28-.454 4.562-.76 6.831-.27 2.01-.721 3.995-.958 6.007-.27 2.306-.488 4.628-.546 6.948a9.535 9.535 0 0 1-.888 3.812c-.77 1.686-1.524 3.38-2.287 5.07-.607 1.347-.96 2.797-.574 4.212.635 2.303 1.769 1.936 2.549 2.344.507.267.654.742.604 1.303-.159 1.778-.443 4.94-.613 6.718a181.043 181.043 0 0 1-.596 5.5c-.167 1.326-.41 2.64-.63 3.957a148.292 148.292 0 0 1-.615 3.472 65.153 65.153 0 0 1-.587 2.634c-.295 1.225-.58 2.456-.916 3.67-.438 1.575-.92 3.14-1.39 4.706-.279.928-.554 1.856-.86 2.773-.335 1-.672 2-1.067 2.978-.613 1.52-1.203 3.053-1.933 4.517-1.64 3.301-3.696 6.312-6.562 8.696-.916.761-1.95 1.314-3.077 1.77-1.434.577-2.882.761-4.392.714-2.125-.067-4.021-.826-5.832-1.884-2.467-1.445-4.213-3.517-5.492-6.045-1.11-2.201-2.019-4.476-2.637-6.857a29.306 29.306 0 0 1-.88-8.984c.103-1.909.337-3.795.855-5.632.769-2.722 2.161-5.025 4.656-6.553 1.705-1.045 3.537-.317 4.142 1.603.704 2.23.654 4.484.367 6.756a24 24 0 0 0 .014 5.995c.165 1.3.312 2.612.607 3.887.43 1.848.88 3.706 1.928 5.337a86.57 86.57 0 0 0 1.629 2.386c-.27.311-2.496.639-2.994.987-.045.03-.092.063-.136.097-.51.372-.11 1.183.498 1.008.08-.022.148-.047.198-.069 1.431-.636 2.25-1.139 3.62-1.892.694-.381 1.298-.989 1.81-1.609 1.354-1.633 2.357-3.486 3.164-5.442.538-1.3 1.09-2.595 1.574-3.914a62.302 62.302 0 0 0 1.178-3.595 79.812 79.812 0 0 0 1.133-4.018c.332-1.336.61-2.689.87-4.042.33-1.739.634-3.484.915-5.228.218-1.348.382-2.7.58-4.05.133-.92.275-1.837.423-2.757.1-.63.785-5.759.886-6.39.28-1.789 3.186-3.23 3.66-3.439.45-.197.49-.58.442-.87a.921.921 0 0 0-.443-.666c-.19-.111-.437-.159-.668.097-1.643 1.828-3.19 3.859-5.108 5.387-1.092.87-2.267 1.578-3.59 2.028-1.707.58-3.44.805-5.244.472-3.632-.67-6.15-2.775-7.8-5.973-1.059-2.045-1.59-4.248-1.855-6.537-.285-2.447-.115-4.884.086-7.315.192-2.314.593-4.603 1.125-6.873a44.969 44.969 0 0 1 4.244-11.18c1.894-3.5 4.284-6.706 7.016-9.598.95-1.006 1.913-2 2.943-2.92 1.206-1.075 2.526-2.022 4.078-2.564 1.041-.364 2.122-.483 3.227-.414 1.26.078 2.412.473 3.546 1.006.47.22 1.025.272 1.545.37.825.152 1.68.194 2.476.433 1.345.403 2.234 1.375 2.802 2.634.173.386.259.81.384 1.22l-.005-.004Zm-8.779 3.62c.167-.31-.136-.686-.468-.561a.69.69 0 0 0-.186.108c-1.011.828-2.02 1.667-2.955 2.576-2.715 2.645-5.005 5.614-6.787 8.965-1.328 2.497-2.409 5.095-3.03 7.857-.46 2.05-.888 4.114-1.161 6.195-.323 2.472-.031 5.753.735 8.176.103.328.044.605-.245.808-.677.47-1.473.306-2.259.564-.011.003-.025.011-.036.017-.29.178-.136.63.203.642.03 0 .056 0 .078-.003 1.329-.197 2.501-.758 3.632-1.48 1.27-.812 2.03-2.068 2.857-3.254 1.719-2.459 3.24-5.04 4.306-7.848.627-1.65 1.203-3.334 1.618-5.045.557-2.306.702-4.679.8-7.049.074-1.828.222-6.387.347-8.212.084-1.217 1.933-1.906 2.362-2.236a.678.678 0 0 0 .187-.22h.002Z"/><path fill="#3C4932" d="m48.52 84.378 4.614-1.136c3.704-.911 5.511 1.125 5.32 4.203-.137 2.181-1.349 3.365-2.465 4.006 1.484.314 2.693 1.548 2.595 4.095-.109 3.05-2.11 5.279-5.628 6.148l-5.774 1.428 1.334-18.747.003.003Zm1.935 15.372 2.041-.506c1.551-.383 2.941-1.325 2.936-3.511-.006-1.887-.88-2.895-3.264-2.306l-1.298.32-.418 6.003h.003Zm2.203-9.013c1.86-.458 2.72-1.333 2.76-2.792.041-1.608-.616-2.497-2.551-2.02l-1.482.365-.32 4.842 1.596-.395h-.003Zm11.334 3.531-1.267 5.015-3.177.786 5.297-19.705 4.252-1.045 2.863 17.683-3.077.761-.643-4.542-4.247 1.047Zm3.822-3.672c-.493-3.36-.88-6.446-1.048-8.196l-.078.02c-.312 1.816-1.083 5.122-1.98 8.94l3.103-.764h.002Zm9.382-2.84-.549 8.09-3.147.778 1.335-18.71 4.834-1.187c4.083-1.003 5.737 1.197 5.456 4.348-.234 2.603-1.721 3.703-2.757 4.3 1.267.292 2.05 1.342 1.888 4.112-.125 2.337-.167 3.453-.086 4.506l-3.02.745c-.136-.786-.116-2.261.015-4.52.147-2.55-.37-3.345-2.262-2.878l-1.704.42-.003-.004Zm.209-2.664 1.512-.372c1.772-.436 2.874-1.14 3.01-3.014.126-1.715-.698-2.754-2.575-2.292l-1.585.388-.365 5.29h.003Z"/><path fill="#fff" d="m47.79 83.042 4.614-1.136c3.704-.912 5.512 1.125 5.32 4.203-.137 2.18-1.348 3.364-2.465 4.006 1.484.314 2.693 1.547 2.596 4.095-.11 3.05-2.111 5.279-5.629 6.148l-5.773 1.428 1.334-18.747.002.003Zm1.932 15.369 2.042-.506c1.551-.383 2.94-1.325 2.935-3.511-.005-1.887-.88-2.895-3.264-2.306l-1.298.32-.418 6.003h.003Zm2.206-9.01c1.86-.458 2.721-1.333 2.76-2.792.042-1.608-.616-2.497-2.551-2.02l-1.482.364-.32 4.843 1.596-.395h-.003Zm11.335 3.531-1.267 5.015-3.178.786 5.297-19.706 4.253-1.044 2.863 17.683-3.078.761-.643-4.542-4.247 1.047Zm3.818-3.675c-.493-3.36-.88-6.446-1.047-8.196l-.078.02c-.312 1.816-1.084 5.122-1.98 8.94l3.102-.764h.003Zm9.385-2.84-.548 8.09-3.147.778 1.334-18.71 4.834-1.187c4.083-1.003 5.738 1.197 5.456 4.348-.234 2.603-1.72 3.703-2.757 4.3 1.267.292 2.05 1.342 1.888 4.112-.125 2.337-.167 3.453-.086 4.506l-3.019.745c-.136-.786-.117-2.262.014-4.52.148-2.55-.37-3.345-2.261-2.879l-1.705.42-.002-.003Zm.21-2.661 1.512-.373c1.77-.436 2.874-1.138 3.01-3.014.126-1.714-.699-2.753-2.576-2.292l-1.585.39-.364 5.289h.002Z"/></g><defs><clipPath id="a"><path fill="#fff" d="M.442 0h122.601v121.105H.442z"/></clipPath></defs></svg>