<?xml version="1.0" encoding="UTF-8"?> <svg xmlns="http://www.w3.org/2000/svg" id="Layer_2" data-name="Layer 2" viewBox="0 0 470.71 108"><defs><style> .cls-1 { fill: #ffffff; stroke-width: 0px; } </style></defs><g id="Layer_1-2" data-name="Layer 1"><path class="cls-1" d="M27.06,84.72h86.27v23.28H0V0h27.06v84.72ZM68.14,0v21.68h45.2V0h-45.2ZM34.08,28.27v50.13h79.25v-23.28h-52.19v-6.04h52.19v-20.95H34.08v.14ZM61.15,0h-27.06v21.68h27.06V0Z"></path><g><path class="cls-1" d="M140.43,10.81h7.94v30.02h15.26v6.88h-23.2V10.81Z"></path><path class="cls-1" d="M168.62,47.72V10.81h7.94v36.9h-7.94Z"></path><path class="cls-1" d="M183.83,10.81h23.03v6.88h-15.1v7.77h12.93v6.88h-12.93v8.49h15.48v6.88h-23.42V10.81Z"></path><path class="cls-1" d="M150.7,97.22l-12.1-36.91h8.05l8.21,27.31h.33l8.38-27.31h7.77l-12.38,36.91h-8.27Z"></path><path class="cls-1" d="M175.29,60.31h23.03v6.88h-15.1v7.77h12.93v6.88h-12.93v8.49h15.48v6.88h-23.42v-36.91Z"></path><path class="cls-1" d="M233.78,60.31v36.91h-7.33l-14.76-23.86h-.11v23.86h-7.6v-36.91h7.66l14.37,23.48h.11v-23.48h7.66Z"></path><path class="cls-1" d="M266.86,60.31v6.88h-10.54v30.02h-7.83v-30.02h-10.21v-6.88h28.58Z"></path><path class="cls-1" d="M271.47,97.22v-36.91h7.94v36.91h-7.94Z"></path><path class="cls-1" d="M286.73,60.31h7.94v30.02h15.26v6.88h-23.2v-36.91Z"></path><path class="cls-1" d="M311.7,97.22l12.43-36.91h8.82l12.93,36.91h-8.38l-3-8.99h-12.26l-2.94,8.99h-7.6ZM323.69,82.34h9.27l-4.44-14.71h-.22l-4.61,14.71Z"></path><path class="cls-1" d="M350.39,87.73c2.33,1.44,6.83,3.27,10.38,3.27,2.61,0,5.11-.83,5.11-4.33,0-3-2.83-3.94-6.49-4.94-5.16-1.44-10.6-3.66-10.6-10.93s5.49-11.16,12.88-11.16c5.22,0,10.04,2.28,13.1,5.33l-4.16,5.22c-2.94-2.28-6.05-3.88-8.93-3.88-2.16,0-4.61,1-4.61,3.88s2.94,3.94,6.83,5.11c5.05,1.61,10.38,3.83,10.38,11.1s-5.49,11.49-13.54,11.49c-5.49,0-10.99-2.16-13.1-3.66l2.78-6.49Z"></path><path class="cls-1" d="M379.3,89.34c1.55,1.05,3.61,1.94,5.88,1.94,2.77,0,4-1.61,4-4.77v-26.19h7.94v23.92c0,1.61,0,3.88-.28,5.66-.78,4.94-4.55,7.99-10.49,7.99-4.27,0-7.83-1.39-9.82-2.83l2.77-5.72Z"></path><path class="cls-1" d="M418.76,97.88c-10.04,0-16.04-6.44-16.04-19.04,0-14.21,8.82-19.2,16.71-19.2,8.38,0,15.65,5.11,15.65,19.2,0,12.65-6.44,19.04-16.32,19.04ZM419.15,91.34c6.1,0,7.88-6.1,7.88-12.32,0-5.27-1.5-12.76-7.99-12.76-5.99,0-8.16,6.1-8.16,12.26s1.39,12.82,8.27,12.82Z"></path><path class="cls-1" d="M470.71,60.31v36.91h-7.33l-14.76-23.86h-.11v23.86h-7.6v-36.91h7.66l14.37,23.48h.11v-23.48h7.66Z"></path></g></g></svg> 