<svg xmlns="http://www.w3.org/2000/svg" id="Layer_2" viewBox="0 0 1514.27 179.32" fill="#ffffff"><g id="Layer_1-2"><path d="m71.87,151.68c-7.22,9.28-18.47,14.49-30.22,14.01-11.72.5-22.97-4.67-30.22-13.9C1.14,138.72,0,121.22,0,82.78S1.06,26.85,11.35,13.89C18.62,4.69,29.86-.47,41.57.03c11.71-.51,22.96,4.65,30.22,13.86,10.49,12.72,11.39,30.45,11.39,68.89s-.98,56.17-11.31,68.89ZM53.47,29.12c-2.47-4.07-6.99-6.44-11.74-6.15-4.77-.39-9.34,2-11.74,6.15-4.62,7.83-5.48,24.11-5.48,53.67s.86,45.95,5.48,53.67c2.4,4.14,6.97,6.53,11.74,6.15,4.75.3,9.28-2.07,11.74-6.15,4.62-7.83,5.25-24.11,5.25-53.67s-.63-45.92-5.25-53.67Z" style="stroke-width:0px;"></path><path d="m105.37,163.73V1.83h24.5v138.92h40.94v22.98h-65.45Z" style="stroke-width:0px;"></path><path d="m189.22,163.73V1.83h24.5v161.9h-24.5Z" style="stroke-width:0px;"></path><path d="m287.31,163.73h-25.4L227.74,1.83h26.93l19.92,122.79L294.75,1.83h26.93l-34.37,161.9Z" style="stroke-width:0px;"></path><path d="m335.69,163.73V1.83h65.45v22.94h-41.02v45.92h35.23v22.98h-35.23v46.97h40.94v22.98l-65.37.12Z" style="stroke-width:0px;"></path><path d="m483.7,163.73l-36.79-96.18v96.18h-24.5V1.83h21.88l36.56,96.18V1.83h24.5v161.9h-21.65Z" style="stroke-width:0px;"></path><path d="m531.65,163.73V1.83h24.5v138.92h40.94v22.98h-65.45Z" style="stroke-width:0px;"></path><path d="m678.55,153.95c-16.12,15.76-41.89,15.76-58.01,0-7.26-8.19-11.1-18.85-10.73-29.79V2.03h24.5v123.46c0,11.74,7.01,17.3,15.31,17.3s15.11-5.68,15.11-17.3V1.83h24.54v122.13c.39,11-3.45,21.73-10.73,29.98h0Z" style="stroke-width:0px;"></path><path d="m775.51,163.73l-36.76-96.18v96.18h-24.54V1.83h21.92l36.56,96.18V1.83h24.5v161.9h-21.69Z" style="stroke-width:0px;"></path><path d="m893.33,150.31c-7.39,8.99-18.59,13.97-30.22,13.43h-39.65V1.83h39.65c11.63-.54,22.83,4.44,30.22,13.43,10.49,12.06,11.35,30.02,11.35,67.29s-.86,55.74-11.35,67.76Zm-18.4-118.92c-2.68-4.27-7.45-6.78-12.49-6.58h-14.44v115.94h14.44c5.04.21,9.81-2.3,12.49-6.58,4.81-7.52,5.25-23.49,5.25-51.63s-.43-43.65-5.25-51.16Z" style="stroke-width:0px;"></path><path d="m926.8,163.73V1.83h65.49v22.94h-41.1v45.92h35.23v22.98h-35.23v46.97h41.1v22.98l-65.49.12Z" style="stroke-width:0px;"></path><path d="m1074.8,163.73l-36.76-96.18v96.18h-24.54V1.83h21.92l36.56,96.18V1.83h24.5v161.9h-21.69Z" style="stroke-width:0px;"></path><path d="m1293.34,166.41c5.13-2.98,9.72-6.81,13.57-11.32-9.08-5.14-16.19-13.15-20.22-22.77-.81-1.92-1.22-3.98-1.23-6.06v-26.93l-16-13.48-2.22,3.73c-1.36,2.37-2.08,5.06-2.09,7.8v28.6c0,16.55,8.68,31.89,22.88,40.4,1.64.97,3.67.97,5.31,0" style="stroke-width:0px;"></path><path d="m1308.64,38.13c1.86,3.46,2.57,7.42,2,11.31l10.13,8.51,6.47-5.43c3.37-2.81,4.61-7.43,3.12-11.56-4.39-12.15-11.45-23.16-20.66-32.22-1.3-1.28-3.18-1.79-4.95-1.34-6.15,1.56-11.98,4.18-17.23,7.74,8.87,5.77,16.13,13.68,21.13,23h-.01Z" style="stroke-width:0px;"></path><path d="m1374.9,166.41c-1.64.97-3.67.97-5.31,0-12.64-7.57-21-20.62-22.61-35.26l20-12.75c-3.25,7.72.38,16.62,8.11,19.86,1.7.72,3.53,1.12,5.37,1.18l12.11,10.14c-4.48,6.93-10.53,12.7-17.67,16.84" style="stroke-width:0px;"></path><path d="m1314.37,72.94l-23.56-20.71c-3.4-2.97-5.35-7.27-5.35-11.78v-6.55l-11.27-9.47c-5.72,4.97-9.01,12.19-9,19.77v6.84c.51,6.54,3.46,12.65,8.27,17.11l18.25,16c15.54,12.55,22.58,32.86,18.13,52.33l7.69,6.45c18.51-18.84,18.25-49.11-.59-67.63-.84-.82-1.71-1.62-2.6-2.37" style="stroke-width:0px;"></path><path d="m1347.31,44.2c0-7.58,3.28-14.8,9-19.77l11.29,9.47v9.68l-20.29,12.71v-12.09Z" style="stroke-width:0px;"></path><path d="m1390.37,38.15c-5-9.33-12.27-17.24-21.14-23,5.25-3.56,11.08-6.18,17.23-7.75,1.79-.47,3.69.04,5,1.34,9.19,9.07,16.23,20.08,20.6,32.22.86,2.38.82,5-.1,7.36-2.79,8.11-7.74,15.3-14.31,20.81,18.33,18.39,20.37,47.44,4.81,68.22l-10.54-8.77c2.9-18.77-5.78-37.43-22-47.31,8.74-8.21,15.83-18.01,20.9-28.87,1.89-4.06,1.96-8.74.18-12.86-.21-.47-.43-.93-.67-1.38" style="stroke-width:0px;"></path><path d="m1456.74,166.41c-1.64.97-3.67.97-5.31,0-14.2-8.5-22.89-23.83-22.89-40.38V44.2c-.01-7.58,3.27-14.8,9-19.77l11.28,9.47v93.37c0,1.28.24,2.55.7,3.75,3.91,10.19,11.24,18.7,20.73,24.07-3.84,4.52-8.43,8.35-13.56,11.32" style="stroke-width:0px;"></path><path d="m1221.37,179.32c2.47-9.01,3.72-18.31,3.72-27.65V43.78c0-4.62-3.73-8.37-8.35-8.37-.77,0-1.54.1-2.28.31,9.08-11.53,19.78-21.68,31.78-30.14-.61,4.52-.92,9.08-.92,13.64v120.66c0,16.59-9.23,31.8-23.95,39.44h0Z" style="stroke-width:0px;"></path><path d="m1474.32,46.17c0-2.52-.61-5-1.77-7.23-5-9.61-12.41-17.77-21.49-23.67,5.25-3.54,11.08-6.14,17.23-7.69,1.79-.47,3.69.04,5,1.34,9.24,9.09,16.3,20.14,20.68,32.34.41,1.13.62,2.33.62,3.53v65.13c-1.02,12.31-5.98,23.96-14.13,33.23l-7.2-6c.68-1.95,1.01-4,1-6.07l.06-84.91Z" style="stroke-width:0px;"></path><path d="m1166.46,3.92v162.27h-4.24V3.92h4.24Z" style="stroke-width:0px;"></path><path d="m1505.03,25.58c-5.1,0-9.24-4.14-9.24-9.24,0-5.1,4.14-9.24,9.24-9.24,5.1,0,9.24,4.14,9.24,9.24h0c0,5.1-4.14,9.24-9.24,9.24Zm0-16c-3.57-.06-6.52,2.79-6.57,6.36,0,.13,0,.25,0,.38,0,3.65,2.96,6.61,6.61,6.61s6.61-2.96,6.61-6.61c.16-3.56-2.61-6.58-6.17-6.74-.16,0-.32,0-.48,0Zm1.33,11.58l-1.45-3.58h-.8v3.59h-2.65v-9.67h4.31c1.7-.13,3.18,1.15,3.31,2.85,0,.08,0,.15,0,.23.01,1.07-.6,2.04-1.56,2.5l1.81,4-2.98.08Zm-.9-7.52h-1.33v1.94h1.33c.54.13,1.08-.19,1.21-.73s-.19-1.08-.73-1.21c-.16-.04-.33-.04-.49,0Z" style="stroke-width:0px;"></path></g></svg>
