<?xml version="1.0" encoding="UTF-8"?>
<svg xmlns="http://www.w3.org/2000/svg" version="1.1" viewBox="0 0 1024 935" preserveAspectRatio="xMinYMid meet">
  <g>
    <g id="Layer_1">
      <path d="M274.3,1c33.18,0,61.51,4.39,85,13.15,23.48,8.77,42.57,21.13,57.29,37.1,14.7,15.97,25.36,34.91,31.93,56.82,6.57,21.92,9.86,45.71,9.86,71.37,0,45.08-9.08,81.4-27.24,108.95-18.17,27.56-47.28,44.46-87.34,50.71v1.88c41.94,3.76,70.75,18.47,86.41,44.14,15.64,25.68,23.48,61.05,23.48,106.13v84.53c0,9.39.31,18.32.94,26.77.62,8.45,1.56,16.13,2.82,23.01,1.25,6.9,2.82,12.21,4.7,15.97,2.49,3.76,5,7.36,7.51,10.8,2.5,3.45,6.57,6.73,12.21,9.86v9.39h-185.96c-4.39-8.76-7.68-19.09-9.86-30.99-2.2-11.89-3.76-23.79-4.7-35.69-.94-11.89-1.57-23.32-1.88-34.28-.32-10.95-.47-19.87-.47-26.77v-45.08c0-18.79-.94-34.43-2.82-46.96-1.88-12.52-5.17-22.38-9.86-29.59-4.7-7.19-10.65-12.21-17.84-15.03-7.21-2.81-16.13-4.23-26.77-4.23h-46.02v268.6H1V1h273.3ZM210.44,284.63c25.03,0,43.51-7.35,55.41-22.07,11.89-14.71,17.84-33.96,17.84-57.76,0-28.17-5.8-48.2-17.37-60.1-11.59-11.89-30.52-17.85-56.82-17.85h-33.81v157.78h34.75Z" fill="#fff"/>
      <path d="M859.58,1l163.42,670.57h-185.96l-17.84-117.4h-139l-17.84,117.4h-183.14L639.82,1h219.76ZM748.76,138.12l-47.9,284.57h97.67l-47.9-284.57h-1.88Z" fill="#fff"/>
      <path d="M80.34,758.34c0-5.3-1.08-9.82-3.23-13.54-2.16-3.73-5.47-5.59-9.94-5.59-4.97,0-8.62,1.61-10.93,4.84-2.32,3.23-3.48,6.84-3.48,10.81,0,5.8,1.86,10.4,5.59,13.8,3.73,3.39,8.41,6.34,14.04,8.82,5.63,2.48,11.68,5.01,18.14,7.58,6.46,2.57,12.51,5.93,18.14,10.07,5.63,4.14,10.31,9.57,14.04,16.28,3.73,6.71,5.59,15.45,5.59,26.22,0,18.88-5.39,32.6-16.15,41.13-10.77,8.53-26.34,12.8-46.72,12.8-9.61,0-18.1-.79-25.47-2.36-7.37-1.57-13.59-4.31-18.64-8.2-5.06-3.89-8.91-8.99-11.56-15.28-2.65-6.3-3.98-14.08-3.98-23.36v-6.21h44.73v4.23c0,7.62,1.4,12.97,4.23,16.03,2.81,3.07,6.46,4.6,10.93,4.6,4.8,0,8.49-1.66,11.06-4.97,2.57-3.31,3.85-7.37,3.85-12.18,0-5.79-1.78-10.39-5.34-13.79-3.57-3.39-8.04-6.3-13.42-8.7s-11.22-4.85-17.52-7.34c-6.3-2.48-12.14-5.71-17.52-9.69-5.39-3.97-9.86-9.19-13.42-15.65-3.56-6.46-5.34-14.91-5.34-25.35,0-18.05,4.8-31.81,14.41-41.25,9.61-9.45,24.19-14.17,43.74-14.17s34.83,4.35,43.86,13.05c9.03,8.7,13.54,22.57,13.54,41.63h-43.24v-4.23Z" fill="#fff"/>
      <path d="M145.92,754.36v-39.51h44.73v39.51h17.64v30.07h-17.64v64.12c0,3.82.87,6.5,2.61,8.08,1.74,1.57,4.43,2.36,8.08,2.36h6.96v29.82c-4.14,0-8.29.13-12.42.37-4.14.25-8.12.37-11.93.37-6.8,0-12.59-.29-17.4-.87-4.81-.58-8.74-2.03-11.8-4.35-3.07-2.32-5.3-5.76-6.71-10.31-1.41-4.56-2.11-10.57-2.11-18.02v-71.57h-14.91v-30.07h14.91Z" fill="#fff"/>
      <path d="M281.28,881.61c-.33-2.48-.66-5.13-.99-7.95h-.5c-2.48,5.96-6.42,10.43-11.8,13.42-5.39,2.98-11.56,4.47-18.52,4.47s-12.55-.87-17.27-2.61c-4.72-1.74-8.57-4.35-11.56-7.83-2.98-3.48-5.14-7.62-6.46-12.43-1.33-4.8-1.99-10.1-1.99-15.91,0-6.29.62-11.76,1.86-16.4,1.24-4.64,3.27-8.65,6.09-12.05,2.81-3.39,6.62-6.29,11.43-8.7,4.8-2.4,10.77-4.43,17.89-6.09l17.65-4.23c4.8-1.16,8.2-2.86,10.19-5.09,1.99-2.24,2.98-5.43,2.98-9.57,0-8.28-3.81-12.42-11.43-12.42-4.31,0-7.46,1.2-9.44,3.6-1.99,2.41-3.07,7.17-3.23,14.29h-38.77c0-9.77,1.74-17.61,5.22-23.49,3.48-5.88,7.79-10.44,12.92-13.67,5.13-3.23,10.69-5.38,16.65-6.46,5.96-1.08,11.51-1.61,16.65-1.61,7.79,0,14.95.62,21.5,1.86,6.54,1.24,12.18,3.48,16.9,6.71,4.72,3.23,8.37,7.63,10.94,13.17,2.57,5.55,3.85,12.72,3.85,21.5v65.61c0,6.3.25,11.85.75,16.65.5,4.8,1.65,8.94,3.48,12.42h-43.24c-.83-2.32-1.41-4.72-1.74-7.21ZM277.06,856.76c2.15-3.65,3.23-9.2,3.23-16.65v-16.15h-.5c-1.33,1.83-3.35,2.95-6.09,3.36-2.73.42-5.76,1.37-9.07,2.86-3.48,1.66-5.88,3.85-7.21,6.59-1.33,2.73-1.99,6.34-1.99,10.81s.99,8.04,2.98,10.69c1.99,2.65,4.64,3.97,7.95,3.97,4.97,0,8.53-1.82,10.69-5.47Z" fill="#fff"/>
      <path d="M371.07,754.36l12.68,96.68h.5l12.42-96.68h46.23l-32.8,134.45h-52.69l-31.81-134.45h45.48Z" fill="#fff"/>
      <path d="M508.53,881.61c-.33-2.48-.66-5.13-.99-7.95h-.5c-2.48,5.96-6.42,10.43-11.8,13.42-5.39,2.98-11.56,4.47-18.52,4.47s-12.55-.87-17.27-2.61c-4.72-1.74-8.57-4.35-11.56-7.83-2.98-3.48-5.14-7.62-6.46-12.43-1.33-4.8-1.99-10.1-1.99-15.91,0-6.29.62-11.76,1.86-16.4,1.24-4.64,3.27-8.65,6.09-12.05,2.81-3.39,6.62-6.29,11.43-8.7,4.8-2.4,10.77-4.43,17.89-6.09l17.65-4.23c4.8-1.16,8.2-2.86,10.19-5.09,1.99-2.24,2.98-5.43,2.98-9.57,0-8.28-3.81-12.42-11.43-12.42-4.31,0-7.46,1.2-9.44,3.6-1.99,2.41-3.07,7.17-3.23,14.29h-38.77c0-9.77,1.74-17.61,5.22-23.49,3.48-5.88,7.79-10.44,12.92-13.67,5.13-3.23,10.69-5.38,16.65-6.46,5.96-1.08,11.51-1.61,16.65-1.61,7.79,0,14.95.62,21.5,1.86,6.54,1.24,12.18,3.48,16.9,6.71,4.72,3.23,8.37,7.63,10.94,13.17,2.57,5.55,3.85,12.72,3.85,21.5v65.61c0,6.3.25,11.85.75,16.65s1.65,8.94,3.48,12.42h-43.24c-.83-2.32-1.41-4.72-1.74-7.21ZM504.31,856.76c2.15-3.65,3.23-9.2,3.23-16.65v-16.15h-.5c-1.33,1.83-3.35,2.95-6.09,3.36-2.73.42-5.76,1.37-9.07,2.86-3.48,1.66-5.88,3.85-7.21,6.59-1.33,2.73-1.99,6.34-1.99,10.81s.99,8.04,2.98,10.69c1.99,2.65,4.64,3.97,7.95,3.97,4.97,0,8.53-1.82,10.69-5.47Z" fill="#fff"/>
      <path d="M607.84,754.36v16.4h.5c5.8-13.25,16.65-19.88,32.56-19.88,4.97,0,9.57.54,13.79,1.61,4.23,1.08,7.91,3.03,11.06,5.84,3.15,2.82,5.63,6.55,7.46,11.18,1.82,4.64,2.73,10.6,2.73,17.89v101.4h-44.73v-88.72c0-5.63-.83-9.69-2.48-12.18-1.66-2.48-4.47-3.73-8.45-3.73s-6.8,1.25-8.45,3.73c-1.66,2.49-2.48,6.55-2.48,12.18v88.72h-44.73v-134.45h43.24Z" fill="#fff"/>
      <path d="M800.49,754.36v132.22c0,8.78-1.45,16.23-4.35,22.37-2.9,6.13-6.88,11.01-11.93,14.66-5.06,3.65-10.98,6.25-17.77,7.83-6.79,1.57-14.17,2.36-22.12,2.36-7.12,0-13.83-.54-20.13-1.62-6.3-1.08-11.81-3.02-16.53-5.84-4.72-2.82-8.45-6.67-11.18-11.56-2.73-4.89-4.18-11.15-4.35-18.76h40.26c0,3.31.99,5.88,2.98,7.7,1.99,1.82,4.72,2.73,8.2,2.73,1.66,0,3.31-.16,4.97-.5,1.65-.33,3.11-1.08,4.35-2.24,1.24-1.16,2.28-2.82,3.11-4.97.83-2.16,1.24-5.14,1.24-8.95v-24.85h-.5c-2.82,7.79-7.04,13.09-12.68,15.91-5.63,2.82-11.52,4.23-17.64,4.23-4.47,0-9.03-.83-13.67-2.49-4.64-1.65-8.87-4.88-12.68-9.69-3.81-4.8-6.92-11.56-9.32-20.25-2.41-8.7-3.6-20.01-3.6-33.93,0-12.92.95-23.73,2.86-32.43,1.9-8.7,4.64-15.66,8.2-20.87,3.56-5.22,7.91-8.95,13.05-11.18,5.13-2.24,10.93-3.36,17.4-3.36s12.18,1.66,17.65,4.97c5.47,3.32,9.44,9.04,11.93,17.15h.49v-18.64h41.75ZM732.77,835.26c.58,4.39,1.4,7.83,2.48,10.31,1.08,2.48,2.4,4.14,3.98,4.97,1.57.83,3.44,1.24,5.59,1.24,1.99,0,3.77-.41,5.34-1.24,1.57-.83,2.9-2.49,3.98-4.97,1.08-2.49,1.86-5.93,2.36-10.31.5-4.39.75-10.15.75-17.27s-.25-12.63-.75-17.03c-.5-4.38-1.28-7.83-2.36-10.31-1.08-2.48-2.4-4.18-3.98-5.09-1.58-.91-3.35-1.37-5.34-1.37-2.15,0-4.02.46-5.59,1.37-1.58.91-2.9,2.61-3.98,5.09-1.08,2.49-1.9,5.93-2.48,10.31-.58,4.39-.87,10.07-.87,17.03s.29,12.88.87,17.27Z" fill="#fff"/>
      <path d="M856.53,846.82c0,7.29,1.24,12.14,3.73,14.54,2.48,2.41,5.3,3.6,8.45,3.6,3.98,0,7.08-1.61,9.32-4.84,2.24-3.24,3.35-9.4,3.35-18.52h40.26c-.34,16.57-4.56,29.04-12.68,37.4-8.12,8.37-21.46,12.55-40.01,12.55-10.77,0-19.8-1.2-27.09-3.6-7.29-2.4-13.17-6.38-17.65-11.93-4.47-5.55-7.66-12.8-9.57-21.74-1.9-8.95-2.86-19.8-2.86-32.56s1.07-23.86,3.23-32.81c2.15-8.95,5.55-16.23,10.19-21.87,4.64-5.63,10.56-9.73,17.77-12.3,7.21-2.56,15.86-3.85,25.97-3.85,8.95,0,16.78,1.08,23.48,3.23,6.71,2.15,12.34,5.76,16.9,10.81,4.56,5.06,7.95,11.68,10.19,19.88,2.24,8.2,3.35,18.43,3.35,30.69v13.67h-66.35v17.64ZM878.53,783.19c-1.74-3.31-5.02-4.97-9.82-4.97s-7.83,1.66-9.57,4.97c-1.74,3.32-2.61,8.54-2.61,15.66v5.96h24.6v-5.96c0-7.12-.87-12.34-2.61-15.66Z" fill="#fff"/>
      <path d="M975.67,754.36v21.37h.49c2.49-8.11,6.46-14.29,11.93-18.51,5.47-4.23,11.51-6.34,18.14-6.34h7.21v41.75c-1.99-.33-3.9-.58-5.72-.74-1.83-.16-3.65-.25-5.47-.25-7.95,0-14.13,1.74-18.52,5.22-4.39,3.48-6.59,9.69-6.59,18.64v73.32h-44.73v-134.45h43.24Z" fill="#fff"/>
    </g>
  </g>
</svg>