<?xml version="1.0" encoding="utf-8"?>
<!-- Generator: Adobe Illustrator 28.2.0, SVG Export Plug-In . SVG Version: 6.00 Build 0)  -->
<svg version="1.1" id="Layer_1" xmlns="http://www.w3.org/2000/svg" xmlns:xlink="http://www.w3.org/1999/xlink" x="0px" y="0px"
	 viewBox="0 0 832.9 206.7" style="enable-background:new 0 0 832.9 206.7;" xml:space="preserve">
<style type="text/css">
	.st0{fill:#213D76;}
	.st1{fill:#ED2027;}
	.st2{fill:#B42025;}
	.st3{fill:#FFFFFF;}
	.st4{fill:none;}
</style>
<g>
	<g>
		<path class="st0" d="M50.2,115.6c-16,0-28.7-3.7-31.1-4.4c-1.2-0.5-1.9-1.5-1.9-2.6V108l1.6-8.1c0.2-1.2,1.1-1.6,2.1-1.6
			c0.2,0,0.5,0,0.9,0.1c2.6,0.5,15.2,4.1,27,4.1c10.1,0,19.1-3,19.1-13.4c0-10.6-9.3-11.7-21.2-13.4c-13.3-2-30.5-5.6-30.5-26.5
			c0-21.6,16-27.3,35-27.3c14.4,0,26.4,3.5,29.1,4.2c1.5,0.4,2.2,1.4,2.2,2.6v0.6l-1.7,8c-0.1,0.9-1,1.7-2,1.7
			c-0.1,0-0.2-0.1-0.4-0.1c-5.9-1.2-15.1-3.7-25.9-3.7c-9.1,0-18.8,1.7-18.8,12.1C33.7,57.5,44.1,59,55,60.6
			c14.4,2.2,30.8,4.3,30.8,27.3C86.1,109.3,68.6,115.6,50.2,115.6z"/>
		<path class="st0" d="M207,114.2c-4.3,1-10.2,1.7-17.1,1.7c-13.3,0-29.7-1.4-29.7-21c0-15.9,10-17.6,19.9-19.2l22-3.6v-3.9
			c0-3.5-0.4-5.9-3.5-7.3c-2-0.9-4.9-1.2-9.4-1.2c-8.4,0-17.5,2.5-21.2,3.5c-0.4,0-0.6,0.1-0.9,0.1c-0.6,0-1.2-0.2-1.4-1.1l-1.7-7.6
			V54c0-1.1,0.9-1.6,1.5-1.9c3-1.1,14.3-4.2,26.9-4.2c8.8,0,14.7,1.2,18.6,3.5c6.3,3.5,7.5,9.3,7.5,15.9v34.1
			C218.5,110.6,215.4,112.2,207,114.2z M201.9,82.8l-15.3,2.5c-5.1,0.7-9.7,1.5-9.7,9.5c0,9.6,7.8,10.4,13.7,10.4
			c4.8,0,8.8-0.9,11.4-1.7V82.8H201.9z"/>
		<path class="st0" d="M262.5,60.6c-7.5,0-13.9,0.7-17.4,1.6v50.2c0,1.1-0.7,1.9-1.9,1.9h-12.6c-0.7,0-2.1-0.7-2.1-1.9V59.1
			c0-4.8,2.8-6.3,8.8-8c5.4-1.7,14.2-3,21.2-3.1h2.1c1.7,0,1.7,0,2.6,0.4c0.5,0.2,1.1,0.7,1.1,2v8C264.3,59.6,264.2,60.6,262.5,60.6
			z"/>
		<path class="st0" d="M327.1,86.6c0,1.4-0.7,2.8-2.6,2.8h-41.3c0,5.7,1.6,8.8,4.9,11.3c3.2,2.6,7.9,3.7,14.6,3.7
			c7.6,0,13.4-1.9,17.3-3c0.2-0.1,0.4-0.1,0.6-0.1c0.7,0,1.4,0.5,1.7,1.7l1.6,6.3c0,0.1,0.1,0.4,0.1,0.6c0,1-0.6,1.5-1.5,1.9
			c-4.2,1.7-12.6,3.9-22.3,3.9c-24.2,0-33.7-9.5-33.7-33.7c0-23.2,6.4-34.3,30.5-34.3c12.5,0,20.1,3.2,24.6,9.1
			c4.2,5.6,5.6,13.4,5.6,23.7v6.1H327.1z M309.7,68.3c-1.6-6.8-5.3-9-12.6-9c-8.3,0-11.7,2.5-13.1,8.6c-0.9,3.5-0.9,7-1,11.1
			l27.6-0.1C310.6,74.9,310.5,71.6,309.7,68.3z"/>
		<path class="st0" d="M467.4,114.2c-4.3,1-10.2,1.7-17.1,1.7c-13.3,0-29.7-1.4-29.7-21c0-15.9,10-17.6,19.9-19.2l22-3.6v-3.9
			c0-3.5-0.4-5.9-3.5-7.3c-2-0.9-4.9-1.2-9.4-1.2c-8.4,0-17.5,2.5-21.2,3.5c-0.4,0-0.6,0.1-0.9,0.1c-0.6,0-1.2-0.2-1.4-1.1l-1.7-7.6
			V54c0-1.1,0.9-1.6,1.5-1.9c3-1.1,14.3-4.2,26.9-4.2c8.8,0,14.7,1.2,18.6,3.5c6.3,3.5,7.5,9.3,7.5,15.9v34.1
			C478.9,110.6,475.8,112.2,467.4,114.2z M462.3,82.8L447,85.3c-5.1,0.7-9.7,1.5-9.7,9.5c0,9.6,7.8,10.4,13.7,10.4
			c4.8,0,8.8-0.9,11.4-1.7V82.8H462.3z"/>
		<path class="st0" d="M544.9,114.3h-12.7c-1.1,0-2-0.7-2-1.9V68.8c0-7.2-2.7-9.6-9.3-9.6c-7.4,0-15.4,2.1-15.4,2.1v51.1
			c0,1.1-0.7,1.9-1.9,1.9H491c-1.2,0-2.1-0.7-2.1-1.9V59.2c0-4.7,2.3-6.3,9.3-8.1c6.3-1.7,16.7-3.2,24.6-3.2
			c15.4,0,23.9,3.9,23.9,18.8v45.8C546.7,113.5,546,114.3,544.9,114.3z"/>
		<path class="st0" d="M616.4,113.2c0,0.5-0.5,1.1-1.2,1.1h-16.5c-0.6,0-1.2,0-1.9-0.7l-19.1-26h-4.2v24.9c0,1.1-0.6,1.9-1.9,1.9
			h-12.7c-1.1,0-2-0.7-2-1.9V26.2c0-1.5,0.6-2.2,2.1-2.6l12.1-2.1h0.5c1.1,0,1.9,0.7,1.9,2.1v52.8h4.2l19.5-26
			c0.5-0.7,1-0.9,1.6-0.9l15.1,0.4c0.9,0,1.2,0.6,1.2,1.1c0,0.2-0.1,0.4-0.2,0.6L591.5,81l24.7,31.6
			C616.3,112.7,616.4,112.9,616.4,113.2z"/>
		<path class="st0" d="M111.6,103.1"/>
		<path class="st0" d="M128,47.9c-8.3,0-17.8,1.4-25.2,3.9c-5.6,1.7-7.8,3.6-7.8,10v70.9c0,1.2,1,2.2,2.7,1.9
			c1.8-0.3,11.7-2.2,11.7-2.2c1.5-0.2,2.1-1,2.1-2.5v-16c4.4,1.1,9.9,1.9,16,1.9c22.9,0,27.3-14.4,27.3-33.9
			C154.9,62.3,151.8,47.9,128,47.9z M123.3,104.5c-6.7,0-11.7-1.5-11.7-1.5V61.4c0,0,7.3-2,13-2c9.4,0,13.4,2.1,13.4,22.1
			C138,100.3,134.6,104.5,123.3,104.5z"/>
		<path class="st0" d="M381.3,114.3h-41.1c-1.1,0-2.1-0.9-2.1-2V25.1c0-1.1,1-2,2.1-2h41.2c20.9,0,29.4,8.2,29.4,23
			c0,13.1-7.3,17.8-18.5,21c12.5,2.1,21.6,8.8,21.6,23.4C413.8,107,402.2,114.3,381.3,114.3z M379.7,35.8h-23.8v26.4l22.9-1
			c9.4-0.4,14.2-3.7,14.2-13.1C393,39.5,388.8,35.8,379.7,35.8z M379.1,74.2l-23.2-0.7v28.1h23.2c12.5,0,16.5-5.4,16.5-13
			C395.6,78.5,392.3,74.6,379.1,74.2z"/>
	</g>
	<g>
		<path class="st0" d="M251.7,187.1c-7.2,0-13.1-1.6-14.1-1.9c-0.6-0.2-1-0.7-0.8-1.4l0.6-3.8c0.1-0.7,0.7-0.8,1.3-0.7
			c1.2,0.2,7.1,1.8,12.4,1.8c4.5,0,8.6-1.2,8.6-5.9c0-4.8-4-5.3-9.4-6c-6-0.9-13.7-2.5-13.7-11.9c0-9.7,7.2-12.2,15.7-12.2
			c6.5,0,11.9,1.5,13.1,1.9c0.7,0.2,1.2,0.7,1,1.4l-0.8,3.6c-0.2,0.7-0.6,0.8-1.2,0.7c-2.7-0.6-6.6-1.7-11.5-1.7
			c-4.1,0-8.4,0.8-8.4,5.4c0,4.6,4.7,5.3,9.6,6c6.5,1,13.7,1.9,13.7,12.2C267.8,184.3,259.9,187.1,251.7,187.1z"/>
		<path class="st0" d="M312.5,150.8c2.8,3.7,3.5,8.9,3.5,15.2c0,12.7-3.3,21.2-19.4,21.2c-5.7,0-9.8-1.1-12.7-3.1l-3.6,4.2
			c-0.2,0.2-0.3,0.3-0.5,0.3s-0.3-0.1-0.5-0.2l-2.5-1.9c-0.2-0.2-0.3-0.3-0.3-0.4c0-0.2,0.1-0.3,0.2-0.5l3.9-4.5
			c-2.7-3.7-3.4-8.9-3.4-15c0-12.7,3.3-21.2,19.4-21.2c5.6,0,9.6,1.1,12.5,2.9l3.7-4.3c0.2-0.2,0.3-0.2,0.5-0.2s0.3,0.1,0.5,0.2
			l2.5,1.9c0.2,0.2,0.3,0.3,0.3,0.5s-0.1,0.3-0.2,0.5L312.5,150.8z M296.7,150.7c-10.1,0-11.2,5.3-11.2,15.3c0,3.4,0.2,6.2,0.8,8.5
			l18.4-21.5C303.1,151.4,300.6,150.7,296.7,150.7z M307,157.3L288.4,179c1.7,1.6,4.3,2.4,8.3,2.4c10.1,0,11.2-5.4,11.2-15.4
			C307.9,162.5,307.8,159.6,307,157.3z"/>
		<path class="st0" d="M327.5,185.7v-39.2c0-0.5,0.4-0.9,0.9-0.9h19c8.8,0,13.7,3.3,13.7,11.2c0,5.6-2.2,9.2-8.4,10.1v1.4
			c6.2,0.8,8.4,2.9,8.8,9.4l0.4,8.1c0,0.4-0.3,0.7-0.8,0.7h-6.6c-0.6,0-0.8-0.2-0.8-0.7l-0.3-7.6c-0.3-5.4-3.2-6.6-8.6-6.9l-9.1-0.3
			v14.7c0,0.5-0.3,0.8-0.9,0.8h-6.1C327.9,186.5,327.5,186.2,327.5,185.7z M353,158.5c0-4.8-1.7-7.2-6.8-7.2h-10.7v14.3l9.2-0.3
			C349.4,165.1,353,164,353,158.5z"/>
		<path class="st0" d="M387,168.8h-14.8c-0.5,0-1.2-0.3-1.2-1v-3.4c0-0.6,0.5-1,1.2-1H387c0.7,0,1.1,0.4,1.1,1v3.4
			C388.1,168.4,387.6,168.8,387,168.8z"/>
		<path class="st0" d="M411.4,146.6l14.5,30.2h1.9l-0.6-30.4c0-0.4,0.4-0.8,0.9-0.8h6c0.6,0,0.8,0.3,0.8,0.8v39.4
			c0,0.3-0.2,0.8-0.8,0.8h-10c-0.8,0-1.2-0.3-1.5-1l-14.5-30.2h-1.9l0.6,30.4c0,0.4-0.4,0.8-0.9,0.8h-6c-0.5,0-0.9-0.3-0.9-0.8
			v-39.4c0-0.3,0.2-0.8,0.8-0.8h10C410.7,145.6,411,145.9,411.4,146.6z"/>
		<path class="st0" d="M465.7,187.2c-16.1,0-19.4-8.5-19.4-21.2s3.3-21.2,19.4-21.2c16.1,0,19.4,8.5,19.4,21.2
			C485.1,178.8,481.8,187.2,465.7,187.2z M465.7,150.7c-10.1,0-11.2,5.3-11.2,15.3c0,10.1,1.1,15.4,11.1,15.4
			c10.1,0,11.2-5.4,11.2-15.4C476.9,155.9,475.8,150.7,465.7,150.7z"/>
		<path class="st0" d="M496.5,185.7v-39.2c0-0.5,0.4-0.9,0.9-0.9h19c8.8,0,13.7,3.3,13.7,11.2c0,5.6-2.2,9.2-8.4,10.1v1.4
			c6.2,0.8,8.4,2.9,8.8,9.4l0.4,8.1c0,0.4-0.3,0.7-0.8,0.7h-6.6c-0.6,0-0.8-0.2-0.8-0.7l-0.3-7.6c-0.3-5.4-3.2-6.6-8.6-6.9l-9.1-0.3
			v14.7c0,0.5-0.3,0.8-0.9,0.8h-6.1C496.9,186.5,496.5,186.2,496.5,185.7z M522,158.5c0-4.8-1.7-7.2-6.8-7.2h-10.7v14.3l9.2-0.3
			C518.4,165.1,522,164,522,158.5z"/>
		<path class="st0" d="M540.6,166.1c0-14.8,5.2-21.2,19.8-21.2c8,0,13.5,1.8,14.5,2.2c0.8,0.3,1.1,0.7,0.9,1.3l-0.8,3.8
			c-0.1,0.6-0.6,0.7-1.2,0.7c-1.4-0.3-5.4-1.9-12.1-1.9c-9.5,0-13,3.4-13,15.3c0,12,3.4,15.3,13,15.3c3.5,0,5.8-0.8,6.5-0.9v-9.8
			l-6.8-0.8c-0.4-0.1-0.7-0.3-0.7-0.7v-4.2c0-0.4,0.3-0.7,0.8-0.7h13.8c0.5,0,0.8,0.3,0.8,0.8v15.2c0,3-0.4,4.3-3.3,5.2
			c-2.7,0.9-6.4,1.7-11.5,1.7C545.7,187.2,540.6,181.6,540.6,166.1z"/>
		<path class="st0" d="M588.9,185.6v-39.2c0-0.5,0.4-0.9,0.9-0.9h26.5c0.5,0,0.9,0.4,0.9,0.9v4.3c0,0.5-0.4,0.8-0.9,0.8h-19.4v10.8
			h18.4c0.5,0,0.9,0.3,0.9,0.8v4.3c0,0.5-0.4,0.9-0.9,0.9h-18.4v12h19.6c0.4,0,0.8,0.4,0.8,0.9v4.3c0,0.5-0.4,0.8-0.8,0.8h-26.6
			C589.3,186.5,588.9,186.1,588.9,185.6z"/>
	</g>
	<g>
		<path class="st1" d="M730,14c-9.7,0-19,1.5-27.7,4.3c36.8-8,73.3,7.2,86.5,38.3c15.2,35.9-6.6,79.4-48.6,97.2
			c-37.7,16-78.9,5.8-98-22.4c11.1,38,46.2,65.7,87.8,65.7c50.5,0,91.5-41,91.5-91.5S780.5,14,730,14z"/>
		<path class="st2" d="M740.1,153.7c42-17.8,63.8-61.3,48.6-97.2c-13.1-31.1-49.6-46.2-86.5-38.3c-37,11.7-63.8,46.4-63.8,87.2
			c0,9,1.3,17.6,3.7,25.8C661.2,159.5,702.4,169.7,740.1,153.7z"/>
		<g>
			<path class="st3" d="M753.4,146.9v-94c0-1.9-1.5-3.4-3.4-3.4h-21.3c-1.5,0-2.4,0.3-3.7,0.8l-27.5,14.1c-1.7,0.7-2.4,1.7-2.4,3.4
				v15.4c0,1.8,1.5,3.3,3.3,3.3H716v73.9c8-1.1,16.1-3.3,24.1-6.7C744.8,151.8,749.3,149.4,753.4,146.9z"/>
			<path class="st4" d="M719.4,175.4H750c1.9,0,3.4-1.5,3.4-3.4v-25.2c-4.2,2.6-8.6,4.9-13.3,6.9c-7.9,3.4-16.1,5.6-24.1,6.7V172
				C716,173.9,717.6,175.4,719.4,175.4z"/>
		</g>
	</g>
</g>
</svg>
