<?xml version="1.0" encoding="UTF-8"?>
<svg id="Layer_1" xmlns="http://www.w3.org/2000/svg" version="1.1" viewBox="0 0 560.7 421.1">
  <!-- Generator: Adobe Illustrator 29.5.1, SVG Export Plug-In . SVG Version: 2.1.0 Build 141)  -->
  <defs>
    <style>
      .st0 {
        fill: #00559b;
      }

      .st1 {
        fill: #00569c;
      }
    </style>
  </defs>
  <g>
    <path class="st1" d="M165.3,402.7c-2.5-.8-4.4-1.9-5.8-3.2l1.9-3.9c1.3,1.2,3,2.2,5.1,2.9,2.1.8,4.2,1.1,6.4,1.1s5.1-.5,6.5-1.5,2.1-2.3,2.1-3.9-.4-2.2-1.2-2.9-1.8-1.3-2.9-1.7c-1.2-.4-2.8-.8-4.9-1.3-2.6-.6-4.8-1.3-6.4-1.9s-3-1.6-4.2-2.9-1.7-3.1-1.7-5.3.5-3.5,1.5-5,2.5-2.7,4.5-3.6,4.5-1.4,7.5-1.4,4.1.3,6.1.8,3.7,1.3,5.1,2.3l-1.6,4c-1.5-.9-3-1.6-4.7-2.1s-3.3-.7-4.9-.7c-2.8,0-5,.5-6.4,1.6s-2.1,2.4-2.1,4,.4,2.2,1.2,2.9,1.8,1.3,3,1.8,2.8.9,4.8,1.3c2.6.6,4.8,1.3,6.4,1.9s3,1.6,4.1,2.9,1.7,3,1.7,5.2-.5,3.5-1.5,5-2.5,2.7-4.5,3.6-4.5,1.3-7.5,1.3-5.2-.4-7.6-1.2h0Z"/>
    <path class="st1" d="M197.3,402.1c-2.1-1.2-3.7-2.8-4.9-4.8-1.2-2-1.8-4.4-1.8-7s.6-4.9,1.8-7c1.2-2.1,2.8-3.7,4.9-4.8,2.1-1.1,4.5-1.7,7.1-1.7s5,.6,7.1,1.7c2.1,1.2,3.7,2.8,4.9,4.8,1.2,2,1.8,4.4,1.8,7s-.6,4.9-1.8,7c-1.2,2.1-2.8,3.7-4.9,4.8-2.1,1.2-4.4,1.8-7.1,1.8s-5-.6-7.1-1.8ZM213.9,373.6h3l-22,33.5h-3l22-33.5ZM209,398.5c1.4-.8,2.4-1.9,3.2-3.3.8-1.4,1.2-3,1.2-4.9s-.4-3.5-1.2-4.9c-.8-1.4-1.8-2.5-3.2-3.3-1.4-.8-2.9-1.1-4.6-1.1s-3.2.4-4.6,1.1c-1.4.8-2.4,1.9-3.2,3.3-.8,1.4-1.2,3-1.2,4.9s.4,3.5,1.2,4.9c.8,1.4,1.9,2.5,3.2,3.3,1.3.8,2.9,1.2,4.6,1.2s3.2-.4,4.6-1.2Z"/>
    <path class="st1" d="M233.1,378c1.6-.8,3.6-1.2,6-1.2v4.7h-1.1c-2.6,0-4.6.8-6.1,2.3s-2.2,3.8-2.2,6.6v13.2h-4.8v-26.5h4.6v4.5c.8-1.5,2.1-2.7,3.7-3.5h-.1Z"/>
    <path class="st1" d="M286,379.7c1.9,1.9,2.9,4.8,2.9,8.6v15.2h-4.8v-14.7c0-2.6-.6-4.5-1.8-5.8-1.2-1.3-2.9-2-5.1-2s-4.4.8-5.8,2.3-2.2,3.7-2.2,6.5v13.7h-4.8v-14.7c0-2.6-.6-4.5-1.8-5.8-1.2-1.3-2.9-2-5.1-2s-4.4.8-5.8,2.3-2.2,3.7-2.2,6.5v13.7h-4.8v-26.5h4.6v4c1-1.4,2.2-2.4,3.8-3.1s3.3-1.1,5.3-1.1,3.9.4,5.5,1.2c1.6.8,2.8,2,3.7,3.7,1-1.5,2.4-2.7,4.2-3.6,1.8-.9,3.8-1.3,6-1.3,3.3,0,6,1,7.9,2.9h.3Z"/>
    <path class="st1" d="M315.9,379.5c1.9,1.8,2.9,4.5,2.9,8v16h-4.5v-3.5c-.8,1.2-1.9,2.2-3.4,2.8-1.5.6-3.2,1-5.3,1-3,0-5.3-.7-7.1-2.1s-2.7-3.3-2.7-5.7.8-4.2,2.5-5.6,4.4-2.1,8.1-2.1h7.6v-1c0-2.1-.6-3.6-1.8-4.8-1.2-1.1-3-1.6-5.3-1.6s-3.1.3-4.6.8-2.8,1.2-3.8,2.1l-2-3.6c1.4-1.1,3-1.9,4.9-2.5s3.9-.9,6-.9c3.7,0,6.5.9,8.4,2.7h0ZM311.1,398.9c1.3-.8,2.3-2,2.9-3.5v-3.7h-7.4c-4.1,0-6.1,1.4-6.1,4.1s.5,2.4,1.5,3.2,2.5,1.1,4.3,1.1,3.4-.4,4.8-1.2h0Z"/>
    <path class="st1" d="M336,378c1.6-.8,3.6-1.2,6-1.2v4.7h-1.1c-2.6,0-4.6.8-6.1,2.3s-2.2,3.8-2.2,6.6v13.2h-4.8v-26.5h4.6v4.5c.8-1.5,2.1-2.7,3.7-3.5h-.1Z"/>
    <path class="st1" d="M358.1,391.2l-5.5,5.1v7.2h-4.8v-37.1h4.8v23.8l14.5-13.2h5.8l-11.1,11,12.2,15.5h-5.9l-10-12.3Z"/>
    <path class="st1" d="M396.2,379.5c1.9,1.8,2.9,4.5,2.9,8v16h-4.5v-3.5c-.8,1.2-1.9,2.2-3.4,2.8-1.5.6-3.2,1-5.3,1-3,0-5.3-.7-7.1-2.1s-2.7-3.3-2.7-5.7.8-4.2,2.5-5.6,4.4-2.1,8.1-2.1h7.6v-1c0-2.1-.6-3.6-1.8-4.8-1.2-1.1-3-1.6-5.3-1.6s-3.1.3-4.6.8-2.8,1.2-3.8,2.1l-2-3.6c1.4-1.1,3-1.9,4.9-2.5s3.9-.9,6-.9c3.7,0,6.5.9,8.4,2.7h0ZM391.4,398.9c1.3-.8,2.3-2,2.9-3.5v-3.7h-7.4c-4.1,0-6.1,1.4-6.1,4.1s.5,2.4,1.5,3.2,2.5,1.1,4.3,1.1,3.4-.4,4.8-1.2h0Z"/>
  </g>
  <g>
    <path class="st1" d="M202.8,328.4h-20.8l-4.1,9.6h-8l18.7-41.6h7.6l18.8,41.6h-8.1l-4.2-9.6h.1ZM200.3,322.3l-7.8-18.2-7.8,18.2h15.6,0Z"/>
    <path class="st1" d="M247.6,338l-8.5-12.2h-11v12.1h-7.7v-41.6h17.1c3.6,0,6.7.6,9.4,1.8,2.7,1.2,4.7,2.9,6.2,5.1,1.4,2.2,2.1,4.9,2.1,7.9s-.8,5.8-2.3,8.1c-1.5,2.3-3.7,3.9-6.6,5.1l9.6,13.7h-8.3ZM244.8,305.1c-1.7-1.4-4.3-2.1-7.7-2.1h-9v16.6h9c3.4,0,5.9-.7,7.7-2.2s2.6-3.5,2.6-6.2-.9-4.7-2.6-6.1h0Z"/>
    <path class="st1" d="M295,331.5v6.5h-31.2v-41.6h30.4v6.5h-22.7v10.8h20.1v6.4h-20.1v11.5h23.5Z"/>
    <path class="st1" d="M340.7,296.4v41.6h-6.4l-23-28.2v28.2h-7.7v-41.6h6.4l23,28.2v-28.2h7.7Z"/>
    <path class="st1" d="M378.8,328.4h-20.8l-4.1,9.6h-8l18.7-41.6h7.6l18.8,41.6h-8.1l-4.2-9.6h.1ZM376.3,322.3l-7.8-18.2-7.8,18.2h15.6,0Z"/>
  </g>
  <g>
    <g>
      <polyline class="st0" points="18.7 196.4 43.2 253.5 57 253.5 81.4 196.4 68.6 196.4 50.3 238.7 32.6 196.4 18.7 196.4"/>
      <path class="st0" d="M130,201.7c-4.5-4-10.9-5.9-19.2-5.9s-9,.6-13.2,1.8c-4.2,1.2-7.9,2.9-11,5.3l5.2,9.7c2.1-1.8,4.8-3.2,7.9-4.2,3.1-1,6.3-1.5,9.5-1.5,4.8,0,8.3,1.1,10.7,3.3,2.4,2.2,3.5,5.2,3.5,9.1v.9h-14.8c-5.8,0-10.4.7-13.9,2.2s-6,3.5-7.5,6.1-2.3,5.5-2.3,8.7.9,6.2,2.6,8.8c1.7,2.6,4.2,4.6,7.4,6.1s6.9,2.2,11.2,2.2,9.2-.9,12.6-2.8c2.3-1.3,4.1-2.9,5.4-4.9v6.9h12.6v-33.5c0-8.3-2.3-14.4-6.8-18.3M117.9,242.3c-2.6,1.5-5.5,2.2-8.8,2.2s-6.1-.7-8-2.1-2.9-3.3-2.9-5.8.8-3.9,2.4-5.4c1.6-1.5,4.6-2.2,9.2-2.2h13.8v6.6c-1.1,2.9-3,5.1-5.6,6.6"/>
      <path class="st0" d="M105.6,188.4c1.9,1.1,4,1.7,6.4,1.7s4.6-.6,6.5-1.7,3.4-2.6,4.4-4.4c1.1-1.9,1.6-3.9,1.6-6.1s-.5-4.4-1.6-6.3-2.5-3.4-4.4-4.5-4-1.7-6.5-1.7-4.5.6-6.3,1.7c-1.9,1.1-3.3,2.6-4.4,4.5-1.1,1.9-1.7,4-1.7,6.3s.5,4.2,1.6,6,2.5,3.3,4.4,4.4M107.2,172.9c1.3-1.3,2.9-1.9,4.8-1.9s3.6.7,4.9,2c1.3,1.3,1.9,3,1.9,5s-.6,3.5-1.9,4.8c-1.3,1.3-2.9,1.9-4.9,1.9s-3.5-.6-4.8-1.9-1.9-2.9-1.9-4.8.7-3.7,2-5"/>
      <path class="st0" d="M164.7,204.8v-8.4h-12.7v57.1h13.4v-27.7c0-5.8,1.5-10.2,4.5-13.2s7-4.4,12.1-4.4,1,0,1.5,0,1,.1,1.6.3v-12.7c-5.5,0-10.1,1-13.7,3-2.7,1.5-4.9,3.5-6.6,6"/>
      <path class="st0" d="M250,199.4c-4.3-2.4-9.3-3.6-14.9-3.6s-10.8,1.2-15.2,3.7c-4.5,2.5-7.9,5.9-10.5,10.3-2.5,4.4-3.8,9.4-3.8,15.1s1.3,10.7,3.9,15.1,6.3,7.9,11,10.4,10.3,3.8,16.6,3.8,9.4-.8,13.3-2.4,7.1-3.9,9.7-6.9l-7.2-8.2c-2,2.1-4.3,3.7-6.8,4.7-2.6,1-5.5,1.5-8.7,1.5s-7-.7-9.8-2.1c-2.9-1.4-5.1-3.5-6.6-6.1-1-1.7-1.7-3.5-2-5.5h44.8c0-.6.1-1.3.2-2v-1.9c0-6-1.2-11.2-3.7-15.6s-5.9-7.8-10.3-10.3M220.8,214.5c1.4-2.5,3.3-4.5,5.8-5.9s5.3-2.1,8.6-2.1,6,.7,8.5,2.1,4.4,3.4,5.8,5.9c1,1.8,1.6,3.7,1.9,5.9h-32.5c.3-2.1.9-4.1,1.9-5.8"/>
      <path class="st0" d="M319.9,198.5c-3.6-1.8-7.7-2.7-12.2-2.7s-9.4,1-13.2,2.9c-2.6,1.3-4.7,3-6.5,5.1v-7.4h-12.7v57.1h13.4v-28.9c0-3.8.7-7,2-9.6,1.3-2.5,3.2-4.4,5.6-5.7,2.4-1.3,5.2-1.9,8.3-1.9s7.6,1.2,10,3.7,3.6,6.3,3.6,11.3v31h13.4v-32.7c0-5.8-1-10.5-3.1-14.2s-4.9-6.4-8.5-8.2"/>
      <path class="st0" d="M386.7,199.4c-4.3-2.4-9.3-3.6-14.9-3.6s-10.8,1.2-15.2,3.7c-4.5,2.5-7.9,5.9-10.5,10.3-2.5,4.4-3.8,9.4-3.8,15.1s1.3,10.7,3.9,15.1,6.3,7.9,11,10.4,10.3,3.8,16.6,3.8,9.4-.8,13.3-2.4,7.1-3.9,9.7-6.9l-7.2-8.2c-2,2.1-4.3,3.7-6.8,4.7-2.6,1-5.5,1.5-8.7,1.5s-7-.7-9.8-2.1c-2.9-1.4-5.1-3.5-6.6-6.1-1-1.7-1.7-3.5-2-5.5h44.8c0-.6,0-1.3.2-2v-1.9c0-6-1.2-11.2-3.7-15.6s-5.9-7.8-10.3-10.3M357.5,214.5c1.4-2.5,3.3-4.5,5.8-5.9s5.3-2.1,8.6-2.1,6,.7,8.5,2.1,4.4,3.4,5.8,5.9c1,1.8,1.6,3.7,1.9,5.9h-32.5c.3-2.1.9-4.1,1.9-5.8"/>
      <path class="st0" d="M424.7,204.8v-8.4h-12.7v57.1h13.4v-27.7c0-5.8,1.5-10.2,4.5-13.2s7-4.4,12.1-4.4,1,0,1.5,0,1,.1,1.6.3v-12.7c-5.5,0-10.1,1-13.7,3-2.7,1.5-4.9,3.5-6.6,6"/>
      <path class="st0" d="M498.8,204c-1.9-2.3-4.1-4.1-6.7-5.4-3.8-1.9-8.2-2.9-13-2.9s-10.3,1.1-14.7,3.4-7.8,5.5-10.4,9.6c-2.5,4.1-3.8,8.9-3.8,14.4s1.3,10.4,3.8,14.5,6,7.4,10.4,9.7c4.4,2.3,9.3,3.5,14.7,3.5s9.2-1,13-2.9c2.3-1.2,4.3-2.7,6.1-4.7v3c0,5.8-1.5,10.1-4.4,13s-7.5,4.3-13.8,4.3-7.8-.6-11.6-1.9c-3.8-1.2-7-2.9-9.5-5l-6,10c3.2,2.6,7.3,4.6,12.3,6s10.2,2.1,15.4,2.1c10,0,17.6-2.4,22.9-7.3,5.3-4.9,7.9-12.5,7.9-22.8v-48.4h-12.7v7.8ZM496.2,231.8c-1.5,2.5-3.5,4.4-6.1,5.8s-5.6,2.1-9,2.1-6.4-.7-9-2.1c-2.7-1.4-4.7-3.3-6.2-5.8s-2.2-5.3-2.2-8.5.7-6,2.2-8.5,3.5-4.3,6.2-5.7c2.7-1.3,5.7-2,9-2s6.3.7,9,2c2.6,1.3,4.7,3.2,6.1,5.7,1.5,2.5,2.2,5.3,2.2,8.5s-.7,6-2.2,8.5"/>
      <path class="st0" d="M533.8,187c2.6,0,4.6-.8,6.2-2.4,1.6-1.6,2.4-3.6,2.4-5.9s-.8-4-2.4-5.5c-1.6-1.5-3.7-2.2-6.1-2.2s-4.5.8-6.1,2.3-2.4,3.4-2.4,5.7.8,4.1,2.4,5.7c1.6,1.6,3.7,2.4,6.1,2.4"/>
      <rect class="st0" x="527.1" y="196.4" width="13.4" height="57.1"/>
    </g>
    <g>
      <path class="st0" d="M343.8,111.6c-2.4-2.8-2.9-4.5-2.1-7.3.4-1.3,1.2-1.7,1.4-2.1,0-.1-.1-.3-.3-.3-1.5.3-2.1-1.2-1.9-1.9.1-.9.3-1.7,1.1-3,.2-.3,0-.5-.3-.5-1.4-.1-2,.9-2.1-.1-.1-.9.4-1.9,1.2-3.2.3-.4-1.2-.7-1.5-.7-.6,0-1.2-.6-1.2-.9,0-1,.7-1.1.4-1.5-.5-.6-3.7-1.9-7.1-6.2-.8-1.4-1-3.1-1.7-4.6-2.4-6.2-4.4-12.4-8.7-17.7-1-1.2-1.4-1.4-2.8-2.5-.4-.4-.3-.7.9-2.1,1.8-2.1,3.6-3.9,3.3-8.7-.3-5.7-5.2-9.6-9.6-9.6s-8.5,2.7-9.8,5c-1.5,2.7-2.3,5.6-3.4,8.2-.5,1.3-2.8,6.9-5.5,7.9-.7.5-3,.6-4.5-1-.7-.9-1.5-2.3-1-3.5h.2c.5.4.8,1.3,1.4,1.8.7.5,1.9.5,2.6.2.9-.5,1.2-1.6,1.2-2.6s-.5-2.1-1.4-2.9c-1-.8-2.9-.9-4.1-.4-2.5,1.1-2.5,3.8-2.6,4.9.2,1.8,1.1,4.3,3.4,5.6.5.3-1.3,2.3-3.8,2.6-.8,0-1.3,0-2.1-.5-.6-.5-1-.8-1.3-1.4-.2-.4-1.2.5-1.5,1.9-.1.6-1.1.4-1.9,0-1-.6-1.4-1.9-1.6-1.9-.3,0-1,.8-1.3,1.5-.5,1.1-1,1.7-1.8,1.3s-1-.8-1.3-1.3c-.4-.7-.6-1.4-.8-1.8,0-.1-.1-.2-.2-.2-.3-.3-1.4.9-1.7,1.2-.4.5-1.3,1.2-2.3,1.1-1.1-.1-1.2-1.9-2.2-3.9,0-.3-.4-.4-.6-.2-1.8,1.3-2.4,1.7-3.4,2.1-1.2.4-1.3-.5-1.3-.5-.2-1.6-1.1-3.7-1.9-3.9-.8,0-2.3,2.4-4.4,2.9-.7.2-.7-1.1-.7-1.1,0-1.3-1.1-3.3-2.1-3.4-.6,0-.4,1.2-3.9,2.7-1.5.7-3.8.6-5.1.2-.3,1.6-1.1,4.9-1.7,5,0,0-5.3-2-6.7-1.8-1.8.9-4.8,4.6-4.8,4.6-1.9,0-3.1-2.6-3.6-2-.7.7-2.7,8.9-1.7,14.2,2.6,13.9,7.2,24.2,9.8,40.1,1,5.9-5,9.8-7.7,14.6,0,0-.4.6.5.6,2.5,0,4.7.1,7.5,0,.8,0,2-.9,2.2-1.9.7-2.9,1.2-6.5,2.3-9.5.4-1.4,2.5-3.6,5.5-5.5.2,0-1.7-1.2-1.1-2.4.3-.6.7-.9,1.1-1.4s.8-1.1,1.1-2c-2.5-.8-1.5-2.4-1.5-2.4.2-.4.8-1.2,2-2.8-1.4-1.2-1.8-.7-2.2-1.2-.5-.6-.2-1.6.9-2.9.7-.9,2.4-2.7.9-2.8-2,0-3.5-1.1-3.3-3.3v-4.5c0-.5.5-.2.5-.2,2.2,1.1,4.7,1.6,6.8,2,0,0,.3,0,.3.4-.2,2.1.7,6,1.2,8.1.4,1.9,1.5,4.9,1.2,8.2-.2,2.3-1.9,3-3.1,4.1-.7.7-2.8,1.5-2.6,2.4,0,0,0,.3.5.7,0,0,3.9,3.6,5.5,4.8.8.6,1.8-4.5,2.7-6.4.4-.8,1.3-1.6,1.7-1.8,1.3-.7,2-2.5,2-2.5v-.3c-1.1,0-1.1-.8-.8-1.1.3-.3,1-.9,1.5-1.3,1.3-1.1,1.9-2.3,1.9-2.3v-.2c-1.5.2-1.6-.7-1.6-1s.2-.6.9-1.2c.5-.4,2-1.2,2.4-2.9,0-.2-1.4.5-2.7-1.2-.8-1,0-3.7.6-5,.4-1,.6-1.2,1.1-1.2,1.6.1,3.2-.3,5.3-.6,0,0,1.5-.3,1.2,1.1-1,4.5-2.4,9.7-3.2,14.4,0,0-.1.8-.5,1.2-1.5,1.7-3.1,2.7-4.7,3.7-1.2.7-2.4,1.1-3,2.4,0,0-.3.7.2,1.1l5.9,5c.3.3.5,0,.5,0,1.2-1.5,2.3-3.8,3-5.6.4-1.1.2-1.8.9-2.5,0,0,.6-.5,1.4-.7,1-.3,1.2-.4,1.8-1.2.5-.5.3-.2-.4-1.5-.2-.5,1-.9,1-.9.4-.2.7-.2,1.1-.4s.8-.4,1.4-1c-1.4,0-1.3-.7-.9-1.1,1.2-1,2.6-.5,4-2.5h0c-.3,0-1-.3-1.2-.8-.2-.6,1.3-1.7,2.8-2.2,1.3-.4,1.2-1.4,1.2-1.4-.8,0-1.9-3.2-1.6-4.1-.3-2,3.6-2.5,5-2.7,0,0,.5,2.4,1,4.2,1.3,4.5,5.5,10.1,5.5,10.1.2.3.7.8.2,1.5l-6.5,7.9c-.3.4-.4,1.1.2,1.1l9.4-.4c.7,0,1.2-.5,1.3-.9.2-1.8-.8-5.5.7-8.1.6-1,.9-1.8,1.4-2.9,0,0-1.9.3-.5-1.4.5-.6.9-1.3,1.2-2.2,0,0-.8-.5-1.5-1.1-.3-.3.1-.4.1-.4.4-.3.6-.6.8-1,.2-.4.3-.9.4-1.5-2.1,0-2.6-1-2.8-1.6-.1-.4,0-2.5.5-3.3.5-.9,1.5-2.3,2.7-3.5.5-.5,1.1-.7,1.2-.1.4,1.5,1.6,6.7,3.2,8.1,0,0,3,2.8,4.9,5.3,1.1,1.4,2.8,3.2,2.5,5.1l-.3.5-5.5,8.3s-.3.5,0,.8c.2.3.5.3.7.3l9-2.2s.3,0,.4-.2v-.3l-.4-6.1c0-1,1.8-2.5,2.3-3v-.3c-.4-.3-.8-1.2-.5-1.5,1.2-1.2,1.9-2.3,1.5-2.2-.7.1-1.5.1-1.8-.5-.1-.3.2-.5.2-.5,1-.8,1.2-1.5,1.2-1.8v-.4s-3.3-.3-5-2.8c-.5-.8-.4-5.5-.4-6.8,0,0,0-.5.4-.4,5.1,3.2,9.3,4.4,16.1,5.6,0,0,.7-.1,2.3,2.7,2.8,4.9,5.6,9.5,8.6,14.3.7,1.1,1.2,2.2,1.4,3.2-1.6,2.8-4.5,5.5-6.7,8.2-.9,1-.3,1.3.5,1.2l9.2-1.4s.6,0,.7-.7c.5-2.2,0-6,3.1-8.6-.7-.9-1.3-.9-2.3-2M312.4,55.2c-3.6.2-4.5,0-4.5,0-1.8,2.4-3,3.3-4.6,4.3-1.8,1.1-4.1,2.2-6,2.2s-.2-.2,0-.3c.1-.1.2-.2.2-.2,4-4.2,6.2-10.1,8.2-13.4,1.2-2,2.1-4.2,5.1-5,4.3-1.2,8.1,2.4,7.9,6.5-.2,3.3-2.6,5.7-6.2,5.9"/>
      <path class="st0" d="M256.8,33.7h0c0,0-.1,0-.1,0-2.9.4-6.3,1.3-9.5,4.3,2,2.5,5.2,2.9,8.2,2.9s.9.3,1.6.7c1.3.8,3.2,2,6.3,2.4h0c1,.2,2,.3,3.1.3,1.9,0,3.7-.3,5.4-.7h.3c1.5-.4,3-.7,4.5-.7s1.9.2,2.8.5c-.2-.7-.2-1.2-.2-1.7v-.3h.3c2.6.8,4.9,1.1,7.1,1.1s5.5-.6,8.1-1.9h0c1.8-.5,3.3-1.9,4.7-3.4,1.7-1.7,3.4-3.5,5.9-3.5-.2-.6-.9-1.4-1.4-1.7h0c-1-.6-2.2-.9-3.4-.9s-3,.4-4.5.8-3.1.8-4.6.8-.7,0-1.1,0h-1c-.8,0-1.7,0-2.4-.6h0v-.2c0-.4.2-.7.4-.9.1,0,.2-.3.3-.4-.6,0-1.3-.2-2-.3-.4,0-.9-.2-1.3-.2s-2.7-.2-4.3-.7h0c-4-1.7-6.9-2.4-9.9-2.4s-5.2.6-7.9,1.9h0c-2.1.9-4.3,1.8-6.6,1.8h0c0,.2.4.6.5.8.5.7,1.1,1.6.9,2.2"/>
      <path class="st0" d="M225.8,61.2c.5-.5.6-1.5,1.8.5.3.5.7,1,.9.9.1,0,.4-.4.5-.5,1.1-1.6,2.5-2.5,4.1-3.2h.1c1.9.2,3.6.9,5.8,1.8.2,0,.4,0,.5-.2.9-3.2-.6-6.1-.6-6.5s.3-.2,1.1.6c1.7,1.7,4.4,1.9,6,1.4.8-.2,1.9-.7,2.3-1.3.2-.2,0-.5-.2-.6-4.7-.7-5-5.6-7-8.9-.1-.2-.2-.5-.1-.5l1.5.8s6.7,1.4,7,1.5c.7.1,1-.7,1-.7,0-.2.5-1.8.4-3.3,0-.7-.7-1.1-1.1-.7-.1.1-.2.3-.4.4s-.4.1-.6,0c-1.7-.5-2.3-.6-4.2-1.4l-2.4-3.9c-.2-.5.2-.7.4-.8,1.9-1.6,3.6-2.8,10.2-6.2.6-.3-.6-4.4-1.3-7.1-.2-.9-1-1.2-1.3-1.1-8.4,2.2-15.9,6.2-17.6,4.4h0l-8.5-6.4c-.7-.5-1.4,0-1.3.8.4,3.3.8,5.2,1.1,7.2,0,.5,0,.7-.3.7-1.9,0-3.8,1.4-4.9,3.4-1.6,2.8-3,5.3-5.6,6.6-.2,0-.3.3-.2.5.6,1,1.5,1.6,2.5,2s1.5.1,2.3.5c.2,0,.3.3.2.5,0,.2-.2.3-.3.5-2.2,3.9.3,8.9-3.3,12-.2.2-.1.5.2.6,4.3.7,5.6-2.4,6.1-1.8-1.3,4-.7,4.5-1.5,9.5-.2,1.1-1,2.6-.3,2.4,5.6-1.6,6.7-3.9,7.1-4.3M236.6,30.4c1.2,0,2.1.9,2.1,2.1s-.9,2.1-2.1,2.1-1.9-.9-1.9-2.1.9-2.1,1.9-2.1"/>
    </g>
  </g>
</svg>