<svg id="Layer_1" data-name="Layer 1" xmlns="http://www.w3.org/2000/svg" viewBox="0 0 434 440.91"><defs><style>.cls-1,.cls-3{fill:none;}.cls-1{stroke:#ffffff;stroke-width:4px;}.cls-2{fill:#ffffff;}.cls-4{fill:#ffffff;fill-rule:evenodd;}</style></defs><title>Viking House</title><circle class="cls-1" cx="217.33" cy="224.24" r="162.67" transform="translate(-94.9 219.36) rotate(-45)"/><path class="cls-2" d="M17.87,225.88c-2.06.61-2.52,1.17-3,2.42a5.57,5.57,0,0,0-.29,1.38c0,.32-.16.42-.37.4s-.28-.43-.22-1c.2-1.9.53-3.92.67-5.18.1-.89.18-2.62.37-4.41.05-.43.16-.82.41-.79s.3.25.27.57a2.44,2.44,0,0,0,.1,1.42.83.83,0,0,0,.71.44,10.31,10.31,0,0,0,2.84-.52l16.93-4.38v-.15c-3.77-2-14.79-7.87-17.06-9a4.51,4.51,0,0,0-1.28-.47.71.71,0,0,0-.74.39,4.82,4.82,0,0,0-.33,1.42c0,.32-.1.6-.35.57s-.33-.36-.25-1c.19-1.79.46-3.28.52-3.74.06-.61.14-2.31.25-3.38.05-.47.16-.75.41-.72s.3.25.26.61a3.11,3.11,0,0,0,.24,1.8c.27.5.82,1.1,3,2.32,3.22,1.76,5,2.94,9.24,5.35,5,2.86,8.69,5,10.39,6,2,1.16,2.53,1.44,2.47,1.94s-.57.62-2.33,1.12Z"/><path class="cls-2" d="M28.16,196.57c-5.38-1-6.37-1.17-7.52-1.31s-1.88.1-2.2.84a5.18,5.18,0,0,0-.38,1.25c-.07.35-.18.55-.46.5s-.23-.33-.13-.9c.25-1.34.77-3.56,1-4.58s.44-3,.69-4.34c.08-.46.2-.73.42-.69s.31.27.25.63a5.81,5.81,0,0,0-.09,1.08c0,1,.55,1.38,1.78,1.68s2.11.46,7.49,1.45l6.23,1.15c3.43.63,6.23,1.15,7.78,1.29,1,.07,1.66-.06,2-1.1a16,16,0,0,0,.47-1.78c.07-.39.21-.55.39-.51s.3.35.23.74c-.43,2.34-1,4.55-1.12,5.5s-.46,3.07-.72,4.48c-.08.46-.24.69-.48.64s-.26-.19-.18-.61a6.6,6.6,0,0,0,.09-1.31c0-.73-.57-1-1.58-1.35-1.45-.45-4.25-1-7.69-1.6Z"/><path class="cls-2" d="M35.36,173.85l.06-.17c-.83-1.6-4.08-8.37-4.88-9.77s-1.35-2.4-1.92-2.61a.62.62,0,0,0-.85.23c-.18.28-.3.39-.5.31s-.24-.28-.11-.64c.26-.72,1-2.54,1.37-3.45s.95-2.95,1.33-4c.13-.34.28-.55.52-.47s.24.28.12.62a6.88,6.88,0,0,0-.34,2.1,11.46,11.46,0,0,0,1.21,4.57c.64,1.42,3.86,8.37,4.66,10,2-.64,11.58-4.68,13.31-5.55,2-1,4-1.94,5.41-3.51A6.51,6.51,0,0,0,56,159.56c.08-.24.22-.42.43-.35s.27.3,0,.94l-1.07,2.94c-.37,1-.59,1.63-.91,2.31-.83,1.77-1.91,2.41-3.72,3.4s-12.1,4.84-13.34,5.2l-.64.19-.06.17,3.08,1.11c3.11,1.13,5.78,2.1,7.28,2.53,1,.27,1.82.24,2.27-.56a15.16,15.16,0,0,0,.73-1.61c.1-.27.26-.4.43-.34s.24.39.11.77c-.69,1.9-1.56,4-1.87,4.83s-1,2.95-1.45,4.3c-.16.44-.34.64-.58.56s-.22-.24-.07-.64A5.92,5.92,0,0,0,47,184c.11-.72-.57-1.16-1.5-1.66-1.36-.68-4-1.65-7.15-2.78l-5.95-2.16c-5.15-1.86-6.1-2.21-7.2-2.53s-1.82-.28-2.46.75a7,7,0,0,0-.58,1.29c-.14.37-.28.55-.51.46s-.22-.35,0-.85c.65-1.8,1.53-3.89,1.82-4.7s1-3,1.38-4.14c.18-.47.33-.68.57-.6s.23.32.13.59a5.62,5.62,0,0,0-.24,1c-.16,1,.31,1.46,1.47,1.95s2,.81,7.15,2.67Z"/><path class="cls-2" d="M44,145.68c-4.88-2.47-5.78-2.93-6.84-3.38s-1.83-.45-2.35.18a4.91,4.91,0,0,0-.72,1.09c-.16.32-.32.48-.58.35s-.12-.39.14-.9c.61-1.22,1.74-3.19,2.21-4.12s1.27-2.75,1.89-4c.21-.42.4-.64.59-.55s.23.36.07.68a5.31,5.31,0,0,0-.4,1c-.27,1,.14,1.48,1.23,2.12s1.9,1,6.78,3.51l5.65,2.86c3.11,1.58,5.65,2.87,7.09,3.44.92.34,1.61.41,2.23-.49a17.26,17.26,0,0,0,1-1.57c.17-.36.35-.47.51-.39s.19.42,0,.78c-1.07,2.12-2.19,4.09-2.63,5s-1.3,2.81-1.95,4.09c-.21.42-.42.6-.65.48s-.19-.26,0-.64a5.46,5.46,0,0,0,.46-1.22c.2-.71-.25-1.18-1.13-1.75-1.27-.84-3.81-2.13-6.92-3.71Z"/><path class="cls-2" d="M63.11,133.15c2.34,1.54,3.38,1.69,4,1.25a5.76,5.76,0,0,0,1.27-1.4c.23-.32.41-.46.59-.33s.11.47-.18.88c-1.33,1.92-2.24,3-2.63,3.61-.19.26-1.07,1.71-2.13,3.25-.27.38-.49.63-.75.44s-.12-.34.09-.63a6.39,6.39,0,0,0,.78-1.44c.29-.93-.48-1.64-3-3.46L43.8,122.89c-.59-.41-.94-.79-.73-1.08s.79-.33,1.67-.46c.63-.09,8.57-1.23,15.86-2.57C64,118.17,71,117.14,71.86,117l.1-.14-13.48-8.93c-1.82-1.23-2.57-1.35-3.35-.85a5.76,5.76,0,0,0-1.27,1.45c-.25.35-.42.41-.6.28s0-.51.27-.94c1.07-1.54,2.15-2.9,2.58-3.52.22-.32.91-1.51,1.92-3,.27-.39.5-.66.74-.5s.14.36-.1.72a3.87,3.87,0,0,0-.53,1c-.34,1,.12,1.66,1.75,2.84l18.43,13.29c.65.45.83.75.65,1a2.22,2.22,0,0,1-1.35.55c-3.07.63-9.57,1.72-14.75,2.68-5.43,1-11.41,1.72-12.34,1.86l-.06.09Z"/><path class="cls-2" d="M98.13,93.33c.68.69.71.76.58,1.25-.79,2.52-3,5.29-5,7.27-6.25,6.24-14.73,8.8-21.75,1.77a13.45,13.45,0,0,1-3.88-12.76,17.51,17.51,0,0,1,5.2-8.5,43.56,43.56,0,0,1,4.91-4.09,22.56,22.56,0,0,0,2.29-1.73c.34-.28.49-.23.67-.05a48.59,48.59,0,0,0,4,4.36c.41.4.46.61.25.81s-.35.1-.58-.08a5.09,5.09,0,0,0-3-1.25A11.55,11.55,0,0,0,74.18,84a10.4,10.4,0,0,0-3.47,6.62c-.23,2.62.76,5.45,3.89,8.58,5.47,5.48,13.05,6.09,18.43.72a8.14,8.14,0,0,0,1.89-2.44,1.28,1.28,0,0,0-.46-1.42l-2.39-2.4c-1.28-1.27-2.24-2.24-3-3s-1.53-1-2.55-.36a8.21,8.21,0,0,0-1.07.92c-.23.23-.43.33-.58.18s-.08-.44.28-.79c1.32-1.32,3-2.85,3.77-3.61S91,84.82,91.79,84c.33-.33.56-.46.77-.25s0,.35-.13.53a5.9,5.9,0,0,0-.61.77c-.56.81-.38,1.5.48,2.41s1.76,1.81,3,3.09Z"/><path class="cls-2" d="M133.1,53.41a.22.22,0,0,0,.07-.32l-.36-.67c-2.6-4.81-3.08-5.7-3.69-6.68s-1.17-1.41-2.33-1.07a6.92,6.92,0,0,0-1.29.57c-.35.19-.57.22-.69,0s.07-.4.51-.64c1.71-.92,3.76-1.9,4.62-2.36s2.7-1.58,3.94-2.25c.44-.24.7-.3.82-.07s0,.38-.42.59a6.1,6.1,0,0,0-.87.59c-.77.62-.73,1.29-.2,2.44s1,1.93,3.56,6.75l3,5.58c1.57,2.91,2.92,5.42,3.82,6.69.57.84,1.14,1.44,2.15,1a17.7,17.7,0,0,0,1.69-.74c.35-.19.56-.18.64,0s-.08.45-.46.65c-2.06,1.11-4.11,2.09-5,2.57-.72.4-2.67,1.57-3.91,2.23-.44.24-.71.27-.83,0s0-.32.37-.52a6.63,6.63,0,0,0,1.07-.74c.57-.47.35-1.26,0-2.24-.56-1.42-1.91-3.92-3.48-6.84l-1.5-2.79a.2.2,0,0,0-.29-.08l-12.11,6.52a.19.19,0,0,0-.09.29l1.51,2.79c1.57,2.91,2.92,5.42,3.81,6.7.57.83,1.14,1.43,2.16,1a15.35,15.35,0,0,0,1.68-.74c.35-.19.56-.18.64,0s-.08.45-.46.66c-2.06,1.11-4.11,2.09-5,2.56s-2.68,1.57-4,2.25c-.41.22-.68.25-.8,0s0-.33.37-.53a6.21,6.21,0,0,0,1.07-.74c.57-.47.35-1.25,0-2.24-.56-1.42-1.9-3.92-3.48-6.84l-3-5.57c-2.6-4.82-3.07-5.71-3.68-6.69s-1.18-1.41-2.34-1.07a7.22,7.22,0,0,0-1.29.57c-.35.19-.57.23-.69,0s.07-.4.51-.64c1.71-.92,3.76-1.9,4.62-2.36s2.7-1.58,3.94-2.25c.44-.24.7-.29.82-.07s0,.38-.42.59A7.08,7.08,0,0,0,117,50c-.77.62-.73,1.29-.2,2.44s1,1.93,3.56,6.75l.36.67a.22.22,0,0,0,.31.12Z"/><path class="cls-2" d="M146.37,49.34c-1.86-5.87-.38-14.68,9.92-17.94,8.54-2.71,15.44.58,17.92,8.44s-1,15.81-9.75,18.57C154.61,61.53,148.29,55.41,146.37,49.34Zm23.44-6.71c-2.43-7.68-8.37-11.05-14-9.27-3.94,1.25-7.74,4.87-5,13.41,2.26,7.14,8,11.55,14.59,9.47C167.76,55.48,173,52.55,169.81,42.63Z"/><path class="cls-2" d="M181.57,36c-.7-5.42-.83-6.42-1-7.56s-.59-1.73-1.8-1.83a7.31,7.31,0,0,0-1.41.07c-.39.05-.62,0-.65-.24s.21-.35.75-.43c1.89-.25,4.15-.43,5.22-.57.86-.11,3.1-.51,4.38-.67.54-.07.8,0,.83.22s-.18.35-.53.39a5.22,5.22,0,0,0-1,.25c-.94.3-1.15.94-1.06,2.2s.21,2.15.91,7.58l.65,5c.67,5.18,2,7.22,3.93,8.42a6.72,6.72,0,0,0,4.65.89,7.1,7.1,0,0,0,4.68-2.57c1.71-2.22,1.4-5.45.92-9.13l-.58-4.46c-.71-5.43-.84-6.43-1.06-7.56s-.59-1.74-1.8-1.84a7.52,7.52,0,0,0-1.3.06c-.39,0-.61,0-.64-.24s.2-.35.7-.42c1.82-.24,4.09-.42,4.12-.43.43-.06,2.67-.45,4.06-.63.5-.06.76,0,.79.22s-.17.35-.6.41a5.16,5.16,0,0,0-1,.24c-.94.3-1.15.95-1.06,2.21s.21,2.15.91,7.58L204,37c.52,4,.67,8.22-2,11.18a10.77,10.77,0,0,1-7.1,3.54c-1.89.25-5.33.58-8.24-1.43-2-1.41-3.74-3.88-4.41-9.05Z"/><path class="cls-2" d="M212.87,49.2c-.57-.27-.67-.45-.66-1.24,0-2,.21-4.14.25-4.71s.16-.94.45-.93.36.33.35.62a7.61,7.61,0,0,0,.3,1.84,5,5,0,0,0,5.09,3.72c3.23,0,4.85-2.12,4.89-4,0-1.76-.49-3.43-3.44-5.82l-1.64-1.32c-3.9-3.16-5.23-5.7-5.19-8.62.07-3.95,3.43-6.74,8.43-6.66a17.57,17.57,0,0,1,4.78.68c.32.08.5.19.49.44,0,.47-.16,1.51-.21,4.32,0,.79-.13,1.08-.41,1.08s-.36-.23-.35-.66a4.43,4.43,0,0,0-.9-2.39,4.58,4.58,0,0,0-3.89-1.83c-2.67,0-4.31,1.48-4.35,3.64,0,1.66.78,2.93,3.73,5.25l1,.77c4.3,3.35,5.81,5.85,5.76,9.27a7.27,7.27,0,0,1-3.49,6.21,10.37,10.37,0,0,1-5.75,1.39A12.75,12.75,0,0,1,212.87,49.2Z"/><path class="cls-2" d="M237.21,33.88c.72-5.43.85-6.43.92-7.58s-.12-1.83-1.26-2.23a7,7,0,0,0-1.38-.29c-.39-.05-.6-.15-.56-.4s.29-.29.82-.22c1,.12,2,.3,2.89.41s1.74.3,2.24.37c1.14.15,8.24,1.08,8.92,1.13a12.71,12.71,0,0,0,1.57,0A4,4,0,0,1,252,25c.18,0,.19.18.17.35a23.52,23.52,0,0,0-.59,2.29c-.08.35-.36,1.91-.49,2.33-.06.17-.16.38-.41.34s-.29-.22-.25-.54a4,4,0,0,0,0-1.31c-.16-.68-.46-1.15-2.22-1.6-.6-.15-4.33-.71-5.05-.81-.18,0-.26.08-.3.33l-1.18,9c0,.25,0,.39.2.42.78.1,4.89.64,5.72.68a2.54,2.54,0,0,0,1.78-.31c.29-.25.45-.41.63-.39s.24.1.21.32-.24.76-.62,2.57c-.13.71-.43,2.12-.46,2.37s-.09.68-.41.63a.28.28,0,0,1-.28-.36,10.64,10.64,0,0,0,0-1.3c-.09-.74-.52-1.34-1.82-1.66-.67-.16-4.19-.66-5-.77-.18,0-.23.12-.26.33l-.37,2.82c-.16,1.21-.63,4.49-.73,5.53-.25,2.47.25,3.08,3.89,3.56a9.09,9.09,0,0,0,3.41,0c1-.3,1.51-1,1.95-2.43.13-.38.22-.51.47-.48s.25.32.2.68a27.46,27.46,0,0,1-1,3.9c-.37.9-.69.85-2.05.68-2.67-.36-4.63-.68-6.16-.92s-2.62-.46-3.69-.6c-.4,0-1.18-.15-2-.23s-1.76-.16-2.47-.25c-.47-.06-.7-.2-.67-.45s.18-.27.61-.21a6.53,6.53,0,0,0,1.3,0c.73,0,1-.82,1.29-1.83.38-1.48.75-4.3,1.18-7.58Z"/><path class="cls-2" d="M227.32,427c-.6-.18-.73-.35-.82-1.14-.23-2-.33-4.12-.37-4.7s0-.95.32-1,.4.28.43.57a7.84,7.84,0,0,0,.54,1.78,5,5,0,0,0,5.53,3c3.22-.38,4.54-2.75,4.32-4.64s-.94-3.33-4.18-5.31l-1.79-1.1c-4.29-2.61-5.94-5-6.28-7.85-.46-3.93,2.5-7.14,7.47-7.72a17.54,17.54,0,0,1,4.82,0c.33,0,.52.12.55.37.06.46,0,1.52.36,4.31.09.78,0,1.08-.27,1.11s-.38-.17-.43-.6a4.39,4.39,0,0,0-1.21-2.25,4.54,4.54,0,0,0-4.1-1.29c-2.64.31-4.07,2-3.82,4.18.19,1.64,1.16,2.8,4.39,4.7l1.09.63c4.71,2.75,6.53,5,6.93,8.44a7.27,7.27,0,0,1-2.63,6.61,10.44,10.44,0,0,1-5.52,2.13A12.52,12.52,0,0,1,227.32,427Z"/><path class="cls-2" d="M254.68,398.22l-5.17,1.44c-2,.58-2.8,1-3.13,1.86a4.21,4.21,0,0,0-.29,1.37c0,.3-.07.46-.28.52s-.36-.1-.45-.49c-.14-.55-.27-3.9-.27-4.2,0-.47,0-.71.25-.76a8.34,8.34,0,0,0,1.61,0c1-.15,2.38-.41,3.53-.7l13.83-3.45a17.52,17.52,0,0,0,2.37-.78,7,7,0,0,1,.9-.41c.24-.06.33.14.46.66.18.74.68,3.17.91,4.08.05.36,0,.59-.18.64s-.39-.09-.55-.6l-.14-.38c-.29-.89-1.48-1.63-4.61-.93l-4.42,1,3.58,14.32c.8,3.21,1.49,6,2,7.43.35.95.75,1.67,1.83,1.55a17.32,17.32,0,0,0,1.82-.31c.38-.1.58,0,.63.14s-.2.42-.58.51c-2.3.58-4.53,1-5.51,1.27-.8.2-3,.86-4.37,1.21-.46.11-.73.06-.79-.18s.07-.31.49-.42a5.67,5.67,0,0,0,1.22-.45c.67-.32.68-1.14.53-2.18-.19-1.51-.88-4.27-1.68-7.48Z"/><path class="cls-2" d="M280.6,407.63c-.17.06-.21.16-.2.38l.07,5.51a7.39,7.39,0,0,0,.3,2.24c.24.6.71.92,1.75.51l.5-.2c.41-.15.53-.13.61.07s-.07.42-.44.56c-1.07.42-2.55.89-3.59,1.3-.37.14-2.17,1-3.91,1.65-.44.17-.67.18-.77-.09s0-.32.3-.42.75-.34,1-.48c1.46-.8,1.65-2.19,1.66-4.13l.15-24.35c0-1.13.08-1.57.42-1.7s.62.1,1.25.74c1.53,1.53,12.26,13.09,16.4,17.34,2.46,2.52,3.62,2.61,4.39,2.5a8.21,8.21,0,0,0,1.46-.42c.26-.1.45-.14.54.1s-.17.45-1.41.94-3.66,1.43-6.36,2.42c-.62.2-1,.36-1.11.12s0-.32.35-.48a.59.59,0,0,0,0-.89l-5.47-6.05a.36.36,0,0,0-.43-.11Zm6.18-4.36c.16-.07.16-.18.09-.27l-6.27-7.09c-.09-.12-.18-.28-.29-.24s-.1.23-.08.38l.15,9.46c0,.14.1.23.23.18Z"/><path class="cls-2" d="M293.5,387.87c-1.68-1.33-2.41-1.38-3.72-1.07a5.25,5.25,0,0,0-1.29.55c-.29.16-.44.12-.54-.07s.19-.48.66-.74c1.67-.92,3.52-1.82,4.63-2.43.78-.43,2.25-1.36,3.82-2.23.38-.21.76-.34.88-.12s0,.39-.31.55a2.57,2.57,0,0,0-1.11.9.85.85,0,0,0,.05.83,11,11,0,0,0,2.06,2L312,397.39l.13-.07c-.56-4.22-2.06-16.63-2.45-19.13a4.79,4.79,0,0,0-.36-1.32.7.7,0,0,0-.74-.37,4.6,4.6,0,0,0-1.35.54c-.28.15-.55.26-.68,0s.11-.47.71-.8c1.58-.87,3-1.51,3.37-1.74s2-1.2,2.91-1.72c.41-.23.69-.31.81-.09s0,.39-.34.57a3.09,3.09,0,0,0-1.34,1.23c-.25.51-.43,1.3-.17,3.79.41,3.64.5,5.81.93,10.63.53,5.72.94,10,1.12,11.93.19,2.28.28,2.89-.17,3.13s-.84-.11-2.26-1.26Z"/><path class="cls-2" d="M327.22,383.5c-.15.11-.16.21-.09.43l1.48,5.29a6.8,6.8,0,0,0,.87,2.09c.38.52.92.71,1.82.05l.43-.32c.35-.26.48-.26.61-.09s0,.42-.28.65c-.93.68-2.24,1.51-3.14,2.18-.32.23-1.85,1.49-3.35,2.6-.38.28-.6.35-.77.12s-.05-.32.18-.49a10.36,10.36,0,0,0,.85-.72c1.21-1.16,1-2.55.55-4.42l-6.12-23.57c-.27-1.09-.33-1.54,0-1.75s.62-.06,1.41.39c1.86,1.08,15.21,9.5,20.3,12.54,3,1.8,4.16,1.59,4.88,1.28a7.09,7.09,0,0,0,1.3-.78c.24-.17.4-.24.55,0s-.05.48-1.12,1.27-3.16,2.33-5.52,4c-.54.36-.89.61-1,.41s-.06-.32.21-.56a.59.59,0,0,0-.23-.86l-6.84-4.44a.36.36,0,0,0-.44,0Zm4.84-5.8c.15-.11.11-.21,0-.28l-7.88-5.24c-.11-.09-.25-.22-.33-.15s0,.25,0,.38l2.58,9.1c.06.13.15.2.27.12Z"/><path class="cls-2" d="M352.48,369.14c2.06,1.91,3.06,2.23,3.74,1.9a5.85,5.85,0,0,0,1.49-1.17c.28-.28.48-.38.63-.23s0,.48-.32.84c-1.63,1.67-2.72,2.63-3.19,3.12-.23.23-1.34,1.51-2.65,2.85-.32.34-.57.54-.81.32s-.05-.36.2-.62a6.17,6.17,0,0,0,1-1.28c.45-.87-.19-1.7-2.41-3.92l-15-15.13c-.52-.5-.8-.93-.55-1.19s.84-.18,1.73-.17c.64,0,8.66.21,16.06.1,3.46,0,10.57.11,11.41.07l.12-.13-11.81-11c-1.59-1.51-2.31-1.75-3.17-1.39a6.2,6.2,0,0,0-1.49,1.22c-.3.31-.48.33-.63.18s.05-.51.42-.89c1.31-1.34,2.6-2.5,3.12-3,.28-.28,1.16-1.34,2.39-2.6.33-.34.61-.57.81-.37s.08.38-.22.69a4.36,4.36,0,0,0-.68.85c-.49.92-.16,1.66,1.26,3.09l16,16.16c.56.56.69.89.47,1.12a2.21,2.21,0,0,1-1.42.32c-3.13.11-9.73.11-15,.2-5.53.08-11.54-.2-12.48-.22l-.08.08Z"/><path class="cls-2" d="M389.2,327.4c.8.54.84.61.81,1.11-.3,2.63-1.95,5.77-3.53,8.1-4.94,7.3-12.78,11.43-21,5.86a13.49,13.49,0,0,1-6.24-11.79,17.45,17.45,0,0,1,3.5-9.34,43.18,43.18,0,0,1,4-4.95,26.53,26.53,0,0,0,1.92-2.13c.27-.34.43-.32.64-.18a48.22,48.22,0,0,0,4.75,3.52c.47.32.56.51.4.75s-.33.17-.59,0a5,5,0,0,0-3.16-.66,11.53,11.53,0,0,0-6.83,5.07,10.37,10.37,0,0,0-2.14,7.16c.27,2.62,1.78,5.2,5.44,7.69,6.41,4.34,14,3.5,18.24-2.79a8.07,8.07,0,0,0,1.39-2.76,1.29,1.29,0,0,0-.72-1.31l-2.81-1.9c-1.49-1-2.62-1.77-3.53-2.35s-1.7-.71-2.57.13a7.77,7.77,0,0,0-.88,1.1c-.18.27-.36.41-.54.29s-.16-.41.13-.83c1.05-1.55,2.41-3.36,3-4.26s1.61-2.56,2.28-3.55c.26-.39.46-.56.7-.39s.11.34,0,.55a5.07,5.07,0,0,0-.45.86c-.4.91-.09,1.55.93,2.28.87.64,2.07,1.45,3.56,2.46Z"/><path class="cls-2" d="M381.61,308c-4.94-2.35-5.85-2.79-6.92-3.22s-1.78-.45-2.52.52a7.38,7.38,0,0,0-.7,1.22c-.17.36-.33.52-.55.41s-.19-.36,0-.85c.42-.88.9-1.81,1.29-2.62s.82-1.56,1-2c.49-1,3.57-7.51,3.84-8.15s.41-1.2.47-1.49a3.71,3.71,0,0,1,.11-.58c.08-.16.23-.13.39-.05s.54.45,2,1.26c.31.19,1.71.94,2.06,1.19.15.11.32.26.21.49s-.3.22-.6.08a3.87,3.87,0,0,0-1.26-.37c-.69-.05-1.24.09-2.21,1.63-.32.52-2,3.9-2.32,4.55-.08.16,0,.27.21.38l8.23,3.92c.22.1.37.13.46-.06.34-.72,2.12-4.45,2.41-5.23a2.55,2.55,0,0,0,.26-1.8c-.15-.35-.25-.55-.18-.72s.18-.19.37-.1.65.47,2.25,1.39c.63.34,1.89,1.06,2.12,1.17s.61.29.47.58a.29.29,0,0,1-.43.16,7.93,7.93,0,0,0-1.23-.43c-.73-.15-1.43.07-2.13,1.22-.36.58-1.93,3.78-2.3,4.56-.08.17,0,.26.23.35l2.57,1.23c1.11.52,4.08,2,5,2.39,2.27,1,3,.72,4.59-2.6a9.09,9.09,0,0,0,1.06-3.24c0-1-.48-1.74-1.71-2.6-.33-.24-.42-.37-.32-.59s.39-.14.71,0a28.63,28.63,0,0,1,3.41,2.14c.74.63.6.93,0,2.16-1.16,2.44-2.08,4.2-2.78,5.58s-1.24,2.36-1.7,3.33c-.17.36-.51,1.07-.85,1.87s-.7,1.62-1,2.27c-.2.43-.41.61-.64.5s-.2-.26,0-.64a6.36,6.36,0,0,0,.43-1.24c.18-.71-.46-1.21-1.34-1.79-1.29-.81-3.86-2-6.85-3.46Z"/><path class="cls-2" d="M391,284.47c-5.22-1.65-6.18-2-7.3-2.23s-1.82-.2-2.42.86a6.77,6.77,0,0,0-.53,1.3c-.12.38-.25.56-.49.49s-.23-.34-.07-.85c.57-1.82,1.36-4,1.59-4.67.36-1.17,1.08-3.81,1.42-4.88a11.53,11.53,0,0,1,3.47-5.85,6.21,6.21,0,0,1,5.44-.85c2.54.8,4.54,2.6,6.26,7,4.81-1.84,8.61-3.25,11.38-4.6a7.23,7.23,0,0,0,3.55-3.11,4.9,4.9,0,0,0,.4-.93c.09-.27.24-.38.41-.32s.27.34.14.76l-1,3.26a7.45,7.45,0,0,1-1.81,3.47c-1.26,1.22-3.28,2-6.53,3.11-2.33.77-5.16,1.62-5.81,1.9a.77.77,0,0,0-.44.54l-1,3c-.06.17,0,.29.19.36l.48.15c3.19,1,5.9,1.86,7.4,2.15,1,.21,1.85.24,2.31-.75a16.65,16.65,0,0,0,.67-1.63c.08-.28.23-.38.4-.33s.27.35.13.79c-.63,2-1.53,4.5-1.7,5s-.78,2.85-1.22,4.22c-.14.45-.32.65-.56.58s-.23-.23-.1-.64a5.55,5.55,0,0,0,.26-1.28c.07-.73-.63-1.14-1.58-1.59-1.39-.63-4.1-1.48-7.26-2.48Zm4-3.2c.38.12.54.09.72-.11a9.91,9.91,0,0,0,1.16-2.5,3.6,3.6,0,0,0,.19-2.63c-.43-1.26-1.7-2.76-4.51-3.65-4.88-1.54-7.3,1.25-7.94,3.27a8.26,8.26,0,0,0-.44,1.87c0,.26.11.37.38.46Z"/><path class="cls-3" d="M308.5,33.74l.53-1.91A211.7,211.7,0,0,0,217,10.9C99.55,10.9,4,106.46,4,223.9s95.55,213,213,213,213-95.56,213-213A212.5,212.5,0,0,0,360.25,66.4l-2.75,2.34Z"/><path d="M370.44,70.46c-2.3-2.3-4.66-4.54-7.05-6.73l-3.14,2.67A212.5,212.5,0,0,1,430,223.9c0,117.45-95.55,213-213,213S4,341.35,4,223.9s95.55-213,213-213a211.7,211.7,0,0,1,92,20.93l1.13-4A217.06,217.06,0,0,0,63.56,377.35,217,217,0,0,0,370.44,70.46Z"/><path class="cls-4" d="M55.89,213.1c.06,0,.06,0,.07.07,1.95.5,4.36.54,5.95,1.42,21.09,6.14,36.85,23.22,35,49.82-.87,12.67-7.12,23-14.6,30.76a41.29,41.29,0,0,1-7.7,4.93A162.36,162.36,0,0,1,55.89,213.1Z"/><path class="cls-4" d="M172.5,246.16c14.89-1.17,15.58,21.15,1.69,22.24a10.83,10.83,0,0,1-12-10.21C161.66,251.31,166.37,246.63,172.5,246.16Z"/><path class="cls-4" d="M231.11,271c-.56,2.54-1.24,4-1.89,6.35,6.73-1.63,12.09-5.44,18.19-8.18,13.46-7.72,25.19-18.13,35.82-29.41,15.6-16.53,23.79-42,27-67.53a209.86,209.86,0,0,0,.94-23.66c3.28,1.1,6.36,2.38,9.6,3.51,1.17,8.42,1,18.65.61,27.65-3.53,45.16-23,81.41-52.39,104-41.19,31.17-101.1,38.34-161.71,40.43-4.9.17-10.79.31-16.42.4a146.2,146.2,0,0,1-13.73-19.94c13.72-8,23.06-23.14,24.54-41.57,1.89-23.47-12.7-41.25-29.07-49.62a49.24,49.24,0,0,0-16.29-5.14A38.42,38.42,0,0,1,57,203c23.33,3.68,37.11,16.5,45.7,34.95,4.42-32.09,39.09-38.86,51.17-65.44-13.37,13.3-30.35,25.26-51.85,30.49,1.31-6.08,2.6-12.55,3.92-18.39,15.21-5.51,29.34-11.64,40.56-21.43a104.28,104.28,0,0,1-50.29,12.37L100,155c11.94,1.47,25.75.71,36.58-3a32.21,32.21,0,0,1-18.46-5.68c-1.24-.85-3.71-3.05-4.06-4.53-.74-3.21,1.64-7.16,1.29-10.61,6,4.23,16.37,9.56,26,7.23,9.24-2.24,17.76-8.79,23.45-14.74-2.84-12.9,1.37-26.27,14.47-28.46.55-3,1-6.16,1.55-9.19,1.47,2.62,2.74,5.42,4.13,8.11,25.41-3.07,23.84,21.84,29.47,38.67-1.26.23-3.71.24-5,1.15,3,7.1,7.24,14.71,8,22.91a72.33,72.33,0,0,1-12.85,2.44c11.63,11.87,17.77,29.53,22,48.6,7.08-1.07,11.53-6,13.32-12.1.56-.68,1.7-.78,2.57-1.15-2.19-16.6-5-32.91-7.17-49.14,2.79-.51,5.79-.8,8.66-1.22.15,2.28.45,4.41.61,6.69a39,39,0,0,0,22.17-22.51c6.37,12,9,31.63,3,45.09C265,165.9,256.74,161.12,246,160c.81,11.18,2.28,22,4,32.93a15.39,15.39,0,0,1,5.67-.14,56.42,56.42,0,0,1,1.56,22.38c-1.28.94-2.8,1.66-4.13,2.56.53,3.84.78,7.74,1.56,11.36,16.13-7.51,24.06-22.75,31.77-38.8,8.26-17.17,9.62-39.52,8-61.45-.21-3.87-.82-8.33-1.42-12.3-3.22-21.21-9.06-49.08-4.33-70.31.12-.52.29-1.15.41-1.76,1.2-8.35,3.69-15.79,7.5-21.63C305.69,9.21,322.09-.48,343.4,0,364,.5,380.51,16.5,382.68,35.51c2.07,18.19-6.22,34-20.42,39.95-21.3,6.41-40.8-4.51-39-28.19A21.64,21.64,0,0,1,327.2,36a9.76,9.76,0,0,1,1.26-1.61c6.78-9.89,28.1-7.95,31.57,3.65,2.36,7.87-1.3,16-9.13,16.83-7.54.82-11.89-9.1-6.62-14.33-13.46-1.94-9.89,20.18-.54,21.63,13.84,2.72,22.3-5,24.54-16.56,2.86-14.81-8.9-23.31-20-25.42-13.08-2.19-24.38,3-29.68,11.16-7.18,15.12-1.52,35.35,5.41,47.45,10.28,18,20.2,35.79,30.29,53.88s18.52,37.44,23.12,60.3c6.16,29,2.32,62.19-7.31,87.34C346.41,342.22,292.57,384.16,214.55,386a170.44,170.44,0,0,1-37-5.21,274.94,274.94,0,0,0,71-17.68c8.62-3.44,16.42-6.44,24.78-10.31,12.66-5.84,24.57-13.84,35.7-21.22,11.81-7.84,21.45-19.26,29.27-30.9,1.65-2.46,3.44-5.28,4.87-7.64,11.64-18.42,16.35-47.57,17.24-72.87.12-20.56-2.81-42.19-8.39-60.1-15-5.49-30.07-11.21-44.88-16.63a165.75,165.75,0,0,1-11.36,68.08C281.82,238.41,259.44,258.08,231.11,271ZM194.2,119.81c2.29,3.28,6.13,6.54,11.09,5.88C205.27,120.43,200.12,118,194.2,119.81Zm-45.76,89.71a54,54,0,0,0-24.54,26.77c-4.75,10-6,24.55-2.3,36.37,6.65,21.44,25.33,37.78,51.51,38.26,21,.38,36.39-11.19,45.56-24.81,8.31-11.38,11.55-31.05,5.68-45.9-4.08-12.39-12-22.47-22.71-28.46C188.18,201.81,163.6,201.35,148.44,209.52Zm82.33,19.06c.29,3.78,1.12,7,1.56,10.82a85,85,0,0,0,15.14-6.09c-.63-3.69-1.1-8-1.89-11.76C240.66,223.9,235.78,226.31,230.77,228.58Zm47.87,44.75c0-.18.28-.17.27-.41C278.76,273,278.49,273.23,278.64,273.33ZM123.13,288.55c-1.5,0-17.69,2.44-24.13,1.69-1.1,2.12-2.83,3.81-3.9,5.74,11.08.45,22.1-.77,31.57-2C125.18,293.12,123.38,288.55,123.13,288.55Z"/><path class="cls-4" d="M222.19,262.85c-1.26,14.84-10.81,26-18.18,32.25-11.71,9.9-34.77,14.5-51.25,6.83-7.66-3.57-13.36-9-18.38-14.88-5.19-7.62-9.29-16.32-10.08-27a89.12,89.12,0,0,1,1.56-15.69c5.94-17.65,19.12-31.68,38.19-35.22C198,202.82,224.48,229.73,222.19,262.85Zm-65.1-4.39c.7,9,7.67,15.86,17.37,15.14,8.76-.65,16-7.27,15.28-17.37-.61-8.75-7.47-16-17.44-15.21C163.24,241.69,156.32,248.51,157.09,258.46Z"/><path class="cls-4" d="M338.33,158.61c3.37,1.27,6.73,2.56,10.14,3.79,1.76,10.08,4.54,19.65,5.27,30.28a160.52,160.52,0,0,1,.27,40.56c-7,55-32.34,86.79-69.51,106.37-.9.61-1.81.94-7.19,4.06-38.64,17.23-63,22.57-99.33,31.47-2.36.23-9.72,1.94-14.6,1.29-3.35-.45-7.42-2.8-10.55-4.2a155.18,155.18,0,0,1-28.12-15.82c9.27-.84,17.52-.23,25.62-1.28,28.55-2.37,58.43-8.18,84.23-17,30.37-11.11,56.79-27.86,76.66-50.5,13-14.8,23.62-34.31,26.84-56.92,3-20.81,4.11-41.88,1.83-63.41C339.56,164.28,338.54,161.7,338.33,158.61Z"/><path class="cls-4" d="M324.88,153.61c3,1.11,6,2.25,9.06,3.38,6.08,41.53,1.18,88-19.34,115.6-8.72,14.11-21.2,25.05-34.21,35-.21.22,0-.2-.27-.14-22.13,16.49-49.34,27.49-78.75,33.8-23.39,5-50.36,8.86-76.12,8.32-.2.08-2,0-2.47,0-1.75,0-4.64.47-7.67-.44-1.59-.47-3.81-3.27-5.14-4.46a161,161,0,0,1-14.4-14.33c19.11.32,35-1.2,50.57-2.23,74.47-6.71,144.83-31.57,167.52-95.25,8.31-23.33,15.42-51.7,11.22-79C324.8,153.72,324.85,153.7,324.88,153.61Z"/></svg>